<svg width="192" height="192" viewBox="0 0 192 192" fill="none" xmlns="http://www.w3.org/2000/svg">
<g clip-path="url(#clip0_2_288)">
<path fill-rule="evenodd" clip-rule="evenodd" d="M110.67 69.2795C111.214 68.7637 111.375 68.6668 112.38 68.6265C112.556 69.7704 113.02 70.776 112.088 71.5379C111.427 71.0917 110.871 70.0338 110.67 69.2795ZM123.477 70.1219C123.461 69.802 123.64 69.3448 123.803 69.1119C123.966 68.879 124.098 68.8692 124.361 69.0836C124.751 69.419 125.06 69.8369 125.268 70.307C125.521 70.8794 125.637 71.588 125.684 72.4423C125.749 73.3771 125.686 74.3166 125.494 75.234C125.303 76.0901 124.945 76.9001 124.44 77.6175C124.013 78.19 123.569 78.462 123.228 78.511C122.888 78.56 122.643 78.3848 122.669 78.2193C122.695 78.0539 122.996 77.8994 123.312 77.6512C123.693 77.3674 124.008 77.0047 124.235 76.5879C124.488 76.1123 124.645 75.4995 124.799 74.9325C124.952 74.3654 125.099 73.8441 125.115 73.2336C125.113 72.6441 125.048 72.0566 124.92 71.4813C124.825 71.0253 124.751 70.8022 124.63 70.6759C124.578 70.6204 124.511 70.5802 124.438 70.5597C124.365 70.5392 124.287 70.5391 124.213 70.5595C124.087 70.5975 124.002 70.7042 123.855 70.6683C123.744 70.6273 123.648 70.5531 123.58 70.4558C123.513 70.3585 123.476 70.2427 123.477 70.1241V70.1219ZM121.353 54.3625C122.826 53.7704 123.246 52.9476 124.477 52.3664C124.563 52.3251 124.672 52.2935 124.851 52.1988L128.839 49.9339C130.809 48.8978 130.988 48.1403 132.791 49.6074L134.35 52.1433C133.622 52.8377 130.577 53.729 128.923 53.7943C127.197 53.8596 122.541 54.8392 121.353 54.3625ZM123.036 51.2585C122.3 51.9986 118.97 54.788 117.652 52.891C115.747 50.1494 121.819 51.1747 123.036 51.2585ZM121.926 49.3147C123.054 48.186 125.669 47.9422 127.552 47.7909C127.302 48.4657 125.997 49.3941 125.253 49.7859C124.574 50.1429 124.393 49.8621 123.568 49.7152L121.926 49.3147ZM117.531 43.0653C118.752 42.2741 123.124 42.2185 124.684 41.916C126.033 41.6526 129.873 41.916 131.145 42.0303C133.027 42.2087 135.216 42.9303 136.992 43.4538C141.908 44.9024 144.428 47.4808 139.575 49.6814C135.269 51.6405 135.97 50.6849 135.045 49.6194C134.622 49.1329 131.569 47.4731 130.559 47.1053C128.917 46.5067 125.725 46.732 123.92 46.9126C124.199 45.9397 125.108 45.3411 125.821 44.8785C128.459 43.172 133.686 44.3626 135.954 44.4758C134.397 43.0413 129.028 42.8073 127.218 42.8552C122.027 42.9924 119.094 44.318 117.456 44.4268L117.531 43.0653ZM107.518 33.035C106.489 32.506 104.154 31.2729 103.666 31.2174C102.263 31.0541 101.974 30.8386 100.996 30.8604C99.6904 30.8898 100.102 30.9693 99.1844 31.2163L94.8179 31.6234C94.1648 31.5548 93.7175 31.1695 93.1548 31.0019C92.3135 30.7516 89.5633 30.9638 88.7524 31.1477C88.51 31.2052 88.2784 31.3015 88.0668 31.4329C87.947 31.52 87.8329 31.6145 87.725 31.7159C86.5474 32.4777 83.8352 33.7152 80.5799 37.8597C80.5451 37.876 79.6896 38.763 79.2336 39.0754C79.0464 39.2092 78.9278 39.3115 78.9278 39.3115C78.586 39.6054 78.7613 39.6282 78.0364 39.588C74.7191 39.404 75.2067 38.7173 73.3946 40.4369C69.803 43.8565 72.5239 41.9682 70.2285 47.0345C69.618 48.3841 68.7299 49.0023 68.6635 49.2842C68.7244 51.1562 71.3343 53.1947 72.2409 54.5268C71.9982 54.9143 70.6802 56.1833 70.2448 56.5675C68.0921 58.4667 69.6234 57.5307 67.9016 57.7048C67.3955 58.458 67.586 59.1197 66.6413 59.4647C63.9117 60.4529 65.7706 59.4299 64.0706 61.2322C59.5942 58.6332 61.5924 59.6791 56.8243 57.4599C55.0764 56.6469 54.7226 56.5294 52.6286 56.0821C51.1419 55.7654 49.6378 55.4813 48.2164 55.1581C48.2164 55.9449 62.6242 59.8848 64.088 65.1449C64.3459 66.0721 65.3396 71.3082 65.5029 71.5662L65.6226 71.3072C65.6346 71.268 65.6574 71.2092 65.6672 71.1635C65.677 71.1178 65.6879 71.0547 65.6944 71.0057C65.7055 70.7761 65.6975 70.5461 65.6705 70.3178C65.2427 65.8937 64.8956 65.8022 66.6805 62.1149C66.8557 63.2642 66.6957 64.6529 67.1027 65.5095C67.7786 63.7169 67.722 60.8426 69.298 60.0818C69.7333 61.3302 69.8617 63.3469 70.0598 64.8945C70.2002 65.9981 70.3189 68.3174 70.7498 69.113C70.8165 69.2582 70.9112 69.3887 71.0285 69.4972C70.8228 65.0556 69.7725 65.2287 71.0176 60.1743C71.318 58.9554 71.2581 58.6506 72.2148 58.0618L72.5065 64.8619C73.0028 63.6059 73.0387 61.8635 73.1388 60.3844C73.2694 58.4645 73.8103 57.7451 74.1183 56.2486C74.9248 56.6001 75.5615 57.1193 76.4289 57.4599C77.526 57.8866 78.8233 57.978 79.2957 58.2109C78.6339 68.3207 78.0571 66.9798 81.7009 77.0776C82.3246 78.807 83.2421 80.3961 83.9397 82.1929C85.3371 85.7932 86.4679 89.522 87.9155 93.1048C89.6873 97.4931 89.3467 97.664 91.7324 102.213C92.1862 103.076 91.8934 102.933 92.7347 103.052C92.9524 102.463 91.2665 98.3518 90.9934 97.0545C90.7517 95.9324 90.6668 94.6503 90.3523 93.5848C88.624 87.6271 87.8665 84.5982 84.5067 79.1477C81.2286 73.8278 80.0575 65.1895 81.1143 58.8041C81.9175 53.9467 82.4704 54.5595 82.921 52.6527C82.0644 52.9313 80.0281 55.8372 79.5199 56.6524C76.1068 56.6633 76.2548 56.3563 74.7572 54.3429C70.358 48.4538 70.7651 50.5129 72.5173 45.833C73.3021 43.7346 73.4697 42.9543 74.5569 41.3402C77.2278 41.387 77.2778 41.2314 79.2369 42.4515C79.9291 42.8868 80.0445 43.431 80.5701 43.9501L82.0166 45.2845C81.9077 44.392 81.69 43.5431 81.5126 42.6822C80.7192 38.8729 82.441 40.4598 83.3901 40.635L82.6282 39.2266C83.254 38.9001 84.3206 38.1383 84.8746 37.7345L87.22 35.6666C87.9712 35.0635 88.7533 34.5001 89.5632 33.9786C91.0021 33.1003 96.4526 33.713 99.2703 36.2391C101.079 37.8597 101.498 40.1245 102.427 40.9604C101.272 34.6 97.1937 34.8003 96.4254 32.9892C98.7272 31.816 104.534 33.1688 106.457 34.2779C107.074 34.6338 107.743 35.1181 108.307 35.4849C109.859 36.4883 111.864 38.2994 113.137 39.5771C113.653 40.0952 113.947 40.6502 114.49 41.2423C117.41 44.4257 116.839 44.6314 116.15 47.2087C114.314 54.0719 116.544 53.8477 117.013 56.7373C115.38 56.3553 114.177 53.2066 113.43 51.8397C113.25 54.2068 116.645 60.2712 117.906 61.9854L121.063 66.095C122.913 68.829 114.784 65.5236 112.458 66.144C107.41 67.4892 109.989 70.0218 110.717 71.3137C111.152 72.0853 112.42 73.4578 112.164 74.3981C111.796 75.7488 110.663 75.9218 109.512 76.6336C108.662 77.1571 107.329 78.2933 106.532 78.572C105.117 79.0661 104.665 78.2019 104.246 77.6839L103.553 77.0308C104.379 81.245 108.233 79.0704 110.915 78.1192C114.071 76.9917 117.36 77.6044 120.34 78.6122C119.951 79.435 118.789 80.2448 117.558 80.3841L117.264 79.0781C115.747 79.5363 116.442 80.8194 113.983 80.9751C112.535 81.0698 110.372 80.051 109.629 80.4309C109.985 81.2689 111.679 81.4997 112.431 82.1037C111.044 84.3185 110.891 83.1921 109.415 86.4495C107.939 89.707 107.383 94.4228 106.876 98.095C106.603 100.071 106.14 101.67 105.761 103.525H107.769C108.335 101.421 109.046 98.9711 109.479 96.7966C110.401 92.1634 110.862 87.0122 114.602 83.6394C116.107 82.2822 118.941 83.1648 121.364 81.1253C123.415 79.398 123.123 80.7988 124.869 79.89C128.531 77.9853 127.674 72.931 126.704 69.8052C125.765 66.7894 124.694 66.1973 123.013 64.2709C121.586 62.6384 117.71 57.9998 122.469 56.3085C126.029 55.0416 130.573 55.5858 134.354 54.4963C136.306 53.9337 139.32 52.2108 140.492 51.4021C144.509 48.6268 144.577 46.8735 142.178 43.9284C141.669 43.3036 140.494 42.7801 139.596 42.2893C137.103 40.9267 136.504 40.6742 133.258 40.2736C131.251 40.0266 126.815 39.7044 124.783 40.056C123.67 40.2508 121.758 40.4489 120.637 40.6252C119.271 40.8429 117.569 40.9767 116.478 41.1215C115.081 39.2386 114.526 38.8925 114.035 38.3015C113.872 38.1067 113.356 37.6224 112.677 36.8627C112.14 36.2619 111.423 35.5099 111.291 35.3989C109.342 33.7729 109.105 33.8491 107.522 33.035H107.518Z" fill="#000001"/>
<path fill-rule="evenodd" clip-rule="evenodd" d="M100.247 100.943C100.39 99.2681 99.8754 96.0998 99.6523 94.3356C99.4172 92.4701 98.5726 90.4795 97.936 88.7262C97.3363 87.0719 93.256 81.3536 91.9989 79.6286C90.8202 78.0178 87.2668 71.96 86.7258 69.9062C85.5646 65.4951 85.0933 61.6347 85.053 56.8274C83.6577 59.9336 84.3401 66.6335 85.2783 69.8877C87.9013 79.0071 93.8764 82.8164 96.3306 89.6143L100.247 100.943Z" fill="#000001"/>
<path d="M100.247 100.943C100.39 99.2681 99.8754 96.0998 99.6523 94.3356C99.4172 92.4701 98.5726 90.4795 97.936 88.7262C97.3363 87.0719 93.256 81.3536 91.9989 79.6286C90.8202 78.0178 87.2668 71.96 86.7258 69.9062C85.5646 65.4951 85.0933 61.6347 85.053 56.8274C83.6577 59.9336 84.3401 66.6335 85.2783 69.8877C87.9013 79.0071 93.8764 82.8164 96.3306 89.6143L100.247 100.943Z" stroke="#1F191A" stroke-width="0.57" stroke-miterlimit="22.93"/>
<path fill-rule="evenodd" clip-rule="evenodd" d="M73.3011 49.4335C73.694 48.9111 73.5515 48.0404 73.7539 47.3656C75.4648 46.5309 75.1557 47.2927 75.1688 47.3352C75.2286 47.5354 75.1894 47.8576 75.2134 48.085C75.3222 49.168 75.849 49.1571 76.5989 49.9211C77.7035 51.0465 77.6644 52.8259 78.9867 53.6847C78.8441 52.7334 77.9245 50.5687 79.9467 50.9202C80.5191 51.0203 81.7218 52.0456 82.9244 49.6643C84.065 49.8743 84.0672 50.3815 84.2903 51.5732C84.4982 52.6855 84.3143 53.5051 84.4732 54.4901L84.792 51.595C84.7039 49.6272 84.1847 50.0387 83.9214 49.0004C83.7037 48.1362 84.1009 46.9597 83.9997 46.0074C83.9148 45.2129 83.3859 44.315 83.3304 43.5194C83.1269 45.1323 83.5034 46.6538 83.2433 48.5041L80.7542 45.3184C80.3124 44.8243 79.766 44.4477 79.3709 43.8774C78.3849 42.4626 77.3183 42.3102 75.221 43.2603C74.2665 43.6957 74.2164 43.6957 73.9378 44.8025C73.6342 46.0019 72.6035 48.4137 73.3011 49.4335Z" fill="#000001"/>
<path d="M73.3011 49.4335C73.694 48.9111 73.5515 48.0404 73.7539 47.3656C75.4648 46.5309 75.1557 47.2927 75.1688 47.3352C75.2286 47.5354 75.1894 47.8576 75.2134 48.085C75.3222 49.168 75.849 49.1571 76.5989 49.9211C77.7035 51.0465 77.6644 52.8259 78.9867 53.6847C78.8441 52.7334 77.9245 50.5687 79.9467 50.9202C80.5191 51.0203 81.7218 52.0456 82.9244 49.6643C84.065 49.8743 84.0672 50.3815 84.2903 51.5732C84.4982 52.6855 84.3143 53.5051 84.4732 54.4901L84.792 51.595C84.7039 49.6272 84.1847 50.0387 83.9214 49.0004C83.7037 48.1362 84.1009 46.9597 83.9997 46.0074C83.9148 45.2129 83.3859 44.315 83.3304 43.5194C83.1269 45.1323 83.5034 46.6538 83.2433 48.5041L80.7542 45.3184C80.3124 44.8243 79.766 44.4477 79.3709 43.8774C78.3849 42.4626 77.3183 42.3102 75.221 43.2603C74.2665 43.6957 74.2164 43.6957 73.9378 44.8025C73.6342 46.0019 72.6035 48.4137 73.3011 49.4335Z" stroke="#1F191A" stroke-width="0.57" stroke-miterlimit="22.93"/>
<path fill-rule="evenodd" clip-rule="evenodd" d="M77.0975 62.6296C76.0015 66.8079 75.8317 67.832 76.6687 72.1985C77.5306 76.6923 77.1301 76.6771 79.3221 80.8216C80.5987 83.2356 81.7796 85.9586 82.9398 88.5544L86.0318 96.778C86.2985 96.0314 84.7258 89.1454 84.3187 88.0711C83.3196 85.4079 82.3597 82.7382 81.2387 80.2262C79.3972 76.1046 79.3036 76.4812 78.3883 72.1724C78.0803 70.7216 77.6046 69.0074 77.5002 67.5425C77.3957 66.0776 77.7603 63.8192 77.0975 62.6296Z" fill="#000001"/>
<path d="M77.0975 62.6296C76.0015 66.8079 75.8317 67.832 76.6687 72.1985C77.5306 76.6923 77.1301 76.6771 79.3221 80.8216C80.5987 83.2356 81.7796 85.9586 82.9398 88.5544L86.0318 96.778C86.2985 96.0314 84.7258 89.1454 84.3187 88.0711C83.3196 85.4079 82.3597 82.7382 81.2387 80.2262C79.3972 76.1046 79.3036 76.4812 78.3883 72.1724C78.0803 70.7216 77.6046 69.0074 77.5002 67.5425C77.3957 66.0776 77.7603 63.8192 77.0975 62.6296Z" stroke="#1F191A" stroke-width="0.57" stroke-miterlimit="22.93"/>
<path fill-rule="evenodd" clip-rule="evenodd" d="M88.6982 46.8115C84.9792 47.5995 90.4058 53.3417 96.555 51.7788L92.8154 48.0272C92.0177 47.1217 90.4689 45.524 88.7678 45.0789C88.3858 45.6873 88.585 46.0867 88.6982 46.8115ZM89.5689 47.2545C90.0314 47.2545 90.4069 47.6006 90.4069 48.0272C90.4069 48.4539 90.0314 48.7989 89.5689 48.7989C89.1063 48.7989 88.7308 48.4528 88.7308 48.0272C88.7308 47.6017 89.1052 47.2567 89.5678 47.2567L89.5689 47.2545Z" fill="#000001"/>
<path d="M88.6983 46.8115C84.9793 47.5995 90.2688 53.3167 96.5551 51.7788L92.8155 48.0272C92.0091 46.9878 89.7953 45.204 88.7679 45.0789C88.3859 45.6873 88.5851 46.0867 88.6983 46.8115ZM89.569 47.2545C90.0315 47.2545 90.407 47.6006 90.407 48.0272C90.407 48.4539 90.0315 48.7989 89.569 48.7989C89.1064 48.7989 88.7309 48.4528 88.7309 48.0272C88.7309 47.6017 89.1053 47.2567 89.5679 47.2567L89.569 47.2545Z" stroke="#1F191A" stroke-width="0.57" stroke-miterlimit="22.93"/>
<path fill-rule="evenodd" clip-rule="evenodd" d="M104.831 103.525C105.571 102.057 104.878 100.028 104.93 98.4095C105.061 94.4283 107.903 89.1585 108.768 85.0227C108.106 85.4951 108.254 85.7334 107.788 86.8849C107.524 87.5379 107.3 88.0821 107.037 88.7155C106.532 89.9247 106.044 91.1676 105.535 92.3811C103.262 97.7946 104.229 94.9333 103.225 100.55C102.822 100.751 102.401 100.942 101.993 101.149C101.913 102.244 102.537 103.231 103.577 103.529L104.831 103.525Z" fill="#000001"/>
<path d="M104.831 103.525C105.571 102.057 104.878 100.028 104.93 98.4095C105.061 94.4283 107.903 89.1585 108.768 85.0227C108.106 85.4951 108.254 85.7334 107.788 86.8849C107.524 87.5379 107.3 88.0821 107.037 88.7155C106.532 89.9247 106.044 91.1676 105.535 92.3811C103.262 97.7946 104.229 94.9333 103.225 100.55C102.822 100.751 102.401 100.942 101.993 101.149C101.913 102.244 102.537 103.231 103.577 103.529L104.831 103.525Z" stroke="#1F191A" stroke-width="0.57" stroke-miterlimit="22.93"/>
<path fill-rule="evenodd" clip-rule="evenodd" d="M90.4253 70.7948C90.2262 70.3987 90.0988 70.1113 89.8986 69.725L89.2771 68.8445C89.3653 69.688 92.2157 76.1191 92.811 77.3337C93.4836 78.7018 94.4087 79.6867 95.2957 80.8643C95.8399 81.5903 97.0371 83.7703 97.9579 84.0358C97.7859 82.8277 96.7694 82.2019 96.6997 80.7414C98.181 80.7414 101.229 80.3691 102.686 79.8511C103.271 79.6432 102.969 79.7553 103.198 79.5757C102.364 79.2307 99.9888 80.2951 97.5628 79.3581C95.9977 78.7573 94.5154 78.0825 93.7176 76.8722L90.4253 70.7948Z" fill="#000001"/>
<path d="M90.4253 70.7948C90.2262 70.3987 90.0988 70.1113 89.8986 69.725L89.2771 68.8445C89.3653 69.688 92.2157 76.1191 92.811 77.3337C93.4836 78.7018 94.4087 79.6867 95.2957 80.8643C95.8399 81.5903 97.0371 83.7703 97.9579 84.0358C97.7859 82.8277 96.7694 82.2019 96.6997 80.7414C98.181 80.7414 101.229 80.3691 102.686 79.8511C103.271 79.6432 102.969 79.7553 103.198 79.5757C102.364 79.2307 99.9888 80.2951 97.5628 79.3581C95.9977 78.7573 94.5154 78.0825 93.7176 76.8722L90.4253 70.7948Z" stroke="#1F191A" stroke-width="0.57" stroke-miterlimit="22.93"/>
<path fill-rule="evenodd" clip-rule="evenodd" d="M106.595 50.2387C106.192 48.1023 100.224 42.5266 99.4437 41.3142C99.1705 40.8886 98.8408 39.9461 98.4315 40.327C98.1899 40.5523 99.4709 42.5941 99.7441 43.1753C101.509 46.9345 100.397 44.4552 104.224 47.9847C104.609 48.3401 104.968 48.7227 105.298 49.1297C106.315 50.3095 105.998 50.0864 106.595 50.2387Z" fill="#000001"/>
<path d="M106.595 50.2387C106.192 48.1023 100.224 42.5266 99.4437 41.3142C99.1705 40.8886 98.8408 39.9461 98.4315 40.327C98.1899 40.5523 99.4709 42.5941 99.7441 43.1753C101.509 46.9345 100.397 44.4552 104.224 47.9847C104.609 48.3401 104.968 48.7227 105.298 49.1297C106.315 50.3095 105.998 50.0864 106.595 50.2387Z" stroke="#1F191A" stroke-width="0.57" stroke-miterlimit="22.93"/>
<path fill-rule="evenodd" clip-rule="evenodd" d="M140.688 48.4537C141.668 46.8059 139.679 46.0452 138.294 45.8884C138.62 46.7352 138.874 46.0299 139.87 47.9792C140.279 48.7737 139.73 48.4787 140.688 48.4537Z" fill="#000001"/>
<path d="M140.688 48.4537C141.668 46.8059 139.679 46.0452 138.294 45.8884C138.62 46.7352 138.874 46.0299 139.87 47.9792C140.279 48.7737 139.73 48.4787 140.688 48.4537Z" stroke="#1F191A" stroke-width="0.57" stroke-miterlimit="22.93"/>
<path fill-rule="evenodd" clip-rule="evenodd" d="M100.821 55.646C101.032 56.0052 101.706 56.7823 102.329 57.7531C102.929 58.7242 103.461 59.7363 103.92 60.782C104.321 61.6755 104.552 62.297 104.682 62.4624C104.811 62.6278 104.83 62.3362 104.724 61.6853C104.619 61.0345 104.387 60.0245 104.187 59.2909C103.986 58.5574 103.818 58.0872 103.48 57.592C103.116 57.0817 102.692 56.6159 102.219 56.2043C101.904 55.915 101.55 55.6731 101.165 55.486C100.863 55.3456 100.61 55.2868 100.821 55.646Z" fill="#1F191A"/>
<path d="M100.821 55.646C101.032 56.0052 101.706 56.7823 102.329 57.7531C102.929 58.7242 103.461 59.7363 103.92 60.782C104.321 61.6755 104.552 62.297 104.682 62.4624C104.811 62.6278 104.83 62.3362 104.724 61.6853C104.619 61.0345 104.387 60.0245 104.187 59.2909C103.986 58.5574 103.818 58.0872 103.48 57.592C103.116 57.0817 102.692 56.6159 102.219 56.2043C101.904 55.915 101.55 55.6731 101.165 55.486C100.863 55.3456 100.61 55.2868 100.821 55.646Z" stroke="#1F191A" stroke-width="0.57" stroke-miterlimit="22.93"/>
<path fill-rule="evenodd" clip-rule="evenodd" d="M106.65 36.6647C106.65 36.9662 106.807 37.7531 106.855 38.4061C106.903 39.0591 106.839 39.5707 106.881 39.8384C106.924 40.1061 107.072 40.1246 107.208 40.0757C107.344 40.0267 107.455 39.9113 107.503 39.5805C107.548 39.1182 107.523 38.652 107.429 38.1972C107.338 37.7407 107.187 37.2982 106.981 36.8813C106.807 36.5483 106.65 36.3633 106.65 36.6647Z" fill="#1F191A"/>
<path d="M106.65 36.6647C106.65 36.9662 106.807 37.7531 106.855 38.4061C106.903 39.0591 106.839 39.5707 106.881 39.8384C106.924 40.1061 107.072 40.1246 107.208 40.0757C107.344 40.0267 107.455 39.9113 107.503 39.5805C107.548 39.1182 107.523 38.652 107.429 38.1972C107.338 37.7407 107.187 37.2982 106.981 36.8813C106.807 36.5483 106.65 36.3633 106.65 36.6647Z" stroke="#1F191A" stroke-width="0.57" stroke-miterlimit="22.93"/>
<path fill-rule="evenodd" clip-rule="evenodd" d="M74.6834 50.1366C74.7302 50.4032 75.0099 50.9953 75.2527 51.5394C75.4954 52.0836 75.7217 52.5777 75.9427 53.0349C76.1636 53.492 76.3856 53.9055 76.538 54.1896C76.6904 54.4737 76.7753 54.6173 76.8645 54.6652C76.9538 54.7131 77.0332 54.6652 77.0757 54.515C77.117 54.2953 77.117 54.0698 77.0757 53.85C77.0331 53.5836 76.9713 53.3206 76.8906 53.0632C76.8232 52.796 76.7188 52.5396 76.5805 52.3013C76.4172 52.0303 76.1636 51.719 75.9372 51.4132C75.7109 51.1074 75.5106 50.807 75.3571 50.5686C75.2037 50.3303 75.0992 50.1561 74.9566 50.0397C74.814 49.9232 74.6399 49.8688 74.6834 50.1366Z" fill="#1F191A"/>
<path d="M74.6834 50.1366C74.7302 50.4032 75.0099 50.9953 75.2527 51.5394C75.4954 52.0836 75.7217 52.5777 75.9427 53.0349C76.1636 53.492 76.3856 53.9055 76.538 54.1896C76.6904 54.4737 76.7753 54.6173 76.8645 54.6652C76.9538 54.7131 77.0332 54.6652 77.0757 54.515C77.117 54.2953 77.117 54.0698 77.0757 53.85C77.0331 53.5836 76.9713 53.3206 76.8906 53.0632C76.8232 52.796 76.7188 52.5396 76.5805 52.3013C76.4172 52.0303 76.1636 51.719 75.9372 51.4132C75.7109 51.1074 75.5106 50.807 75.3571 50.5686C75.2037 50.3303 75.0992 50.1561 74.9566 50.0397C74.814 49.9232 74.6399 49.8688 74.6834 50.1366Z" stroke="#1F191A" stroke-width="0.57" stroke-miterlimit="22.93"/>
<path d="M138.979 106.805C138.976 106.923 138.985 107.04 139.005 107.156C139.017 107.229 139.05 107.297 139.1 107.352C139.15 107.407 139.215 107.446 139.287 107.464C139.389 107.497 139.494 107.518 139.6 107.528C139.725 107.542 139.89 107.553 140.096 107.559V107.922H136.643V107.559C136.855 107.552 137.066 107.534 137.276 107.504C137.379 107.49 137.478 107.455 137.567 107.402C137.634 107.355 137.685 107.288 137.712 107.21C137.749 107.079 137.765 106.942 137.758 106.805V103.913C137.766 103.829 137.744 103.745 137.696 103.676C137.675 103.653 137.649 103.634 137.619 103.622C137.59 103.609 137.558 103.603 137.526 103.605C137.427 103.614 137.33 103.646 137.244 103.697C137.038 103.81 136.838 103.936 136.646 104.073L136.402 103.649L138.491 102.396H139.005C138.989 102.652 138.98 103.007 138.982 103.461L138.979 106.805Z" fill="black"/>
<path d="M142.125 107.75V107.461C142.278 107.461 142.431 107.445 142.581 107.414C142.732 107.382 142.879 107.331 143.016 107.26C143.15 107.192 143.272 107.103 143.379 106.998C143.507 106.87 143.615 106.723 143.698 106.562C143.788 106.393 143.857 106.214 143.903 106.028C143.954 105.831 143.99 105.631 144.012 105.428L143.973 105.412C143.591 105.692 143.125 105.835 142.651 105.817C142.37 105.826 142.092 105.756 141.849 105.614C141.631 105.481 141.459 105.284 141.355 105.051C141.241 104.783 141.185 104.495 141.191 104.204C141.186 103.87 141.272 103.542 141.441 103.254C141.611 102.972 141.861 102.749 142.16 102.612C142.508 102.454 142.887 102.377 143.269 102.387C143.649 102.374 144.026 102.466 144.357 102.653C144.655 102.833 144.886 103.105 145.016 103.428C145.172 103.818 145.246 104.236 145.234 104.656C145.25 105.249 145.134 105.838 144.894 106.381C144.682 106.845 144.337 107.236 143.903 107.505C143.426 107.788 142.887 107.95 142.333 107.977L142.125 107.75ZM143.117 105.277C143.21 105.277 143.303 105.268 143.394 105.249C143.478 105.231 143.559 105.202 143.635 105.163C143.713 105.125 143.786 105.078 143.853 105.022C143.903 104.985 143.947 104.94 143.983 104.889C144.009 104.841 144.027 104.79 144.037 104.737C144.053 104.648 144.061 104.556 144.059 104.465C144.059 103.941 143.989 103.54 143.849 103.263C143.709 102.984 143.504 102.845 143.235 102.845C143.096 102.84 142.959 102.872 142.836 102.936C142.728 102.999 142.637 103.088 142.572 103.196C142.5 103.321 142.45 103.457 142.426 103.599C142.396 103.768 142.381 103.94 142.383 104.113C142.38 104.888 142.625 105.276 143.117 105.277Z" fill="black"/>
<path d="M150.313 102.724L148.092 107.934H147.277V107.661L149.285 103.591V103.525H147.495C147.399 103.523 147.304 103.533 147.211 103.554C147.146 103.568 147.085 103.599 147.036 103.644C146.988 103.689 146.951 103.745 146.927 103.806C146.889 103.907 146.859 104.011 146.837 104.117H146.373L146.482 102.458H150.315L150.313 102.724Z" fill="black"/>
<path d="M151.55 107.674V106.673H152.274C152.316 106.917 152.427 107.143 152.594 107.326C152.669 107.399 152.758 107.455 152.856 107.493C152.953 107.53 153.057 107.548 153.162 107.544C153.452 107.544 153.668 107.454 153.806 107.274C153.944 107.095 154.014 106.816 154.014 106.439C154.014 106.063 153.925 105.786 153.746 105.592C153.568 105.397 153.311 105.3 152.97 105.3C152.829 105.301 152.687 105.313 152.548 105.336C152.412 105.356 152.277 105.386 152.145 105.424L151.786 105.2V102.467H154.15C154.223 102.47 154.296 102.463 154.368 102.446C154.409 102.434 154.447 102.411 154.476 102.379C154.517 102.325 154.55 102.266 154.572 102.202H155.008L154.927 103.479H152.471V104.919C152.631 104.87 152.795 104.834 152.96 104.81C153.164 104.785 153.369 104.774 153.574 104.776C153.875 104.77 154.173 104.833 154.445 104.96C154.687 105.077 154.889 105.263 155.025 105.495C155.167 105.745 155.238 106.029 155.232 106.316C155.243 106.643 155.156 106.965 154.984 107.243C154.809 107.5 154.558 107.696 154.266 107.803C153.91 107.934 153.533 107.996 153.154 107.987C152.867 107.986 152.58 107.958 152.298 107.903C152.04 107.856 151.789 107.779 151.55 107.674Z" fill="black"/>
<path d="M38.4932 101.665C38.8679 101.659 39.2422 101.696 39.6087 101.774C39.8913 101.836 40.1609 101.946 40.4054 102.1C40.6264 102.239 40.8176 102.421 40.9681 102.634C41.116 102.853 41.2236 103.097 41.2859 103.354C41.3601 103.657 41.3967 103.968 41.3948 104.28C41.4003 104.659 41.3512 105.037 41.2489 105.401C41.1629 105.711 41.0148 105.999 40.8136 106.249C40.6366 106.463 40.4196 106.64 40.1747 106.77C39.9021 106.912 39.608 107.01 39.304 107.058C38.9503 107.111 38.5929 107.135 38.2352 107.13H36.4122V106.865C36.4933 106.846 36.5719 106.817 36.6462 106.779C36.7007 106.751 36.7452 106.707 36.7736 106.652C36.8052 106.587 36.8237 106.516 36.828 106.443C36.8356 106.359 36.84 106.254 36.84 106.125V102.676C36.84 102.551 36.8367 102.445 36.8302 102.36C36.827 102.287 36.8092 102.217 36.7779 102.152C36.7486 102.097 36.704 102.052 36.6495 102.022C36.5747 101.982 36.4949 101.951 36.4122 101.932V101.667L38.4932 101.665ZM38.0807 106.643C38.2015 106.654 38.3229 106.658 38.4442 106.655C38.6973 106.663 38.9493 106.619 39.1854 106.528C39.3291 106.467 39.4585 106.377 39.5652 106.263C39.75 106.059 39.8842 105.813 39.957 105.547C40.0607 105.165 40.1091 104.771 40.1007 104.375C40.114 103.945 40.0449 103.517 39.8972 103.113C39.7883 102.811 39.5872 102.552 39.3225 102.371C39.0565 102.208 38.7487 102.126 38.4366 102.134C38.2712 102.134 38.1525 102.134 38.0807 102.142V106.643Z" fill="black"/>
<path d="M46.3522 101.665V102.938H45.808C45.7536 102.758 45.6784 102.586 45.5838 102.423C45.5279 102.336 45.4536 102.262 45.3661 102.206C45.2298 102.144 45.0801 102.117 44.9308 102.129H44.0601V104.048H44.588C44.6827 104.053 44.7773 104.036 44.8644 103.998C44.9351 103.961 44.9928 103.904 45.0298 103.833C45.0875 103.719 45.1299 103.598 45.1561 103.473H45.6088V105.098H45.1561C45.1302 104.974 45.0885 104.855 45.032 104.743C44.9952 104.671 44.939 104.61 44.8698 104.569C44.7813 104.529 44.6846 104.512 44.588 104.517H44.0601V106.654H44.9308C45.0099 106.655 45.089 106.649 45.167 106.635C45.2274 106.625 45.2855 106.604 45.3389 106.573C45.3932 106.541 45.4423 106.501 45.4848 106.454C45.5313 106.403 45.5729 106.348 45.6088 106.289C45.6506 106.215 45.6869 106.137 45.7177 106.057C45.7686 105.928 45.8125 105.796 45.8494 105.661H46.3935L46.3174 107.122H42.3829V106.857C42.464 106.838 42.5426 106.809 42.6169 106.771C42.6714 106.743 42.7159 106.699 42.7443 106.644C42.7759 106.579 42.7944 106.508 42.7987 106.435C42.8063 106.351 42.8107 106.246 42.8107 106.117V102.668C42.8107 102.543 42.8074 102.437 42.8009 102.352C42.7977 102.28 42.7799 102.209 42.7486 102.144C42.7193 102.089 42.6747 102.044 42.6202 102.014C42.5454 101.974 42.4656 101.944 42.3829 101.924V101.659L46.3522 101.665Z" fill="black"/>
<path d="M47.8127 105.779C47.8538 106.043 47.9697 106.289 48.1469 106.489C48.3036 106.645 48.5325 106.723 48.8336 106.723C48.9791 106.726 49.1235 106.698 49.2581 106.643C49.3826 106.59 49.4878 106.5 49.5595 106.385C49.6398 106.25 49.6795 106.095 49.6738 105.939C49.6782 105.788 49.6465 105.639 49.5813 105.503C49.5087 105.368 49.4078 105.25 49.2853 105.157C49.108 105.022 48.9177 104.906 48.7172 104.809C48.5225 104.712 48.3341 104.603 48.1534 104.482C47.9926 104.379 47.8463 104.254 47.718 104.112C47.4961 103.867 47.3626 103.555 47.3389 103.226C47.3152 102.896 47.4027 102.568 47.5874 102.294C47.7656 102.053 48.0116 101.871 48.2938 101.771C48.6368 101.647 48.9999 101.587 49.3647 101.594C49.592 101.593 49.8192 101.606 50.045 101.632C50.2939 101.663 50.541 101.708 50.785 101.766V102.926H50.2409C50.2039 102.749 50.1384 102.58 50.0471 102.424C49.976 102.308 49.8744 102.213 49.7533 102.15C49.4809 102.036 49.1746 102.033 48.9 102.141C48.7843 102.192 48.6856 102.274 48.6159 102.38C48.543 102.494 48.5052 102.626 48.5071 102.762C48.5031 102.901 48.5342 103.04 48.5974 103.164C48.6733 103.294 48.7761 103.405 48.8989 103.491C49.0935 103.631 49.2995 103.755 49.5149 103.861C49.7914 103.998 50.0514 104.167 50.2898 104.363C50.4734 104.509 50.6197 104.697 50.7167 104.91C50.8138 105.124 50.8588 105.358 50.8482 105.592C50.8555 105.893 50.7766 106.189 50.6207 106.446C50.4607 106.695 50.2288 106.889 49.9557 107.003C49.6369 107.137 49.2937 107.203 48.9479 107.197C48.6638 107.197 48.3798 107.18 48.0979 107.151C47.8187 107.122 47.5414 107.077 47.2675 107.016V105.784L47.8127 105.779Z" fill="black"/>
<path d="M53.7967 101.665C54.1714 101.659 54.5457 101.696 54.9123 101.774C55.1948 101.836 55.4643 101.946 55.7089 102.1C55.9299 102.239 56.1211 102.421 56.2716 102.634C56.4195 102.853 56.5271 103.097 56.5894 103.354C56.6642 103.657 56.7008 103.968 56.6982 104.28C56.7038 104.659 56.6547 105.037 56.5524 105.401C56.4664 105.711 56.3183 105.999 56.1171 106.249C55.9401 106.463 55.7231 106.64 55.4782 106.77C55.2056 106.912 54.9115 107.01 54.6075 107.058C54.2538 107.111 53.8964 107.135 53.5387 107.13H51.719V106.865C51.8001 106.846 51.8786 106.817 51.953 106.779C52.0075 106.751 52.052 106.707 52.0803 106.652C52.112 106.587 52.1305 106.516 52.1347 106.443C52.1424 106.359 52.1467 106.254 52.1467 106.125V102.676C52.1467 102.551 52.1435 102.445 52.1369 102.36C52.1338 102.287 52.116 102.217 52.0847 102.152C52.0553 102.097 52.0107 102.052 51.9563 102.022C51.8814 101.982 51.8017 101.951 51.719 101.932V101.667L53.7967 101.665ZM53.3842 106.643C53.505 106.654 53.6264 106.658 53.7477 106.655C54.0008 106.663 54.2528 106.619 54.4889 106.528C54.6326 106.467 54.762 106.377 54.8687 106.263C55.0535 106.059 55.1877 105.813 55.2605 105.547C55.3646 105.166 55.4133 104.771 55.4053 104.375C55.4182 103.945 55.3487 103.517 55.2007 103.113C55.0918 102.811 54.8907 102.552 54.626 102.371C54.36 102.208 54.0522 102.126 53.7401 102.134C53.5747 102.134 53.456 102.134 53.3842 102.142V106.643Z" fill="black"/>
<path d="M61.6558 101.665V102.938H61.1116C61.0572 102.758 60.982 102.586 60.8874 102.423C60.8315 102.336 60.7572 102.262 60.6697 102.206C60.5334 102.144 60.3837 102.117 60.2344 102.129H59.3637V104.048H59.8817C59.9765 104.053 60.0711 104.036 60.1582 103.998C60.2289 103.961 60.2866 103.904 60.3236 103.833C60.3813 103.719 60.4237 103.598 60.4499 103.473H60.9026V105.098H60.4499C60.424 104.974 60.3823 104.855 60.3258 104.743C60.289 104.671 60.2328 104.61 60.1636 104.569C60.0751 104.529 59.9784 104.512 59.8817 104.517H59.3539V106.654H60.2246C60.3037 106.655 60.3827 106.649 60.4608 106.635C60.5212 106.625 60.5794 106.604 60.6327 106.573C60.6869 106.541 60.7361 106.501 60.7786 106.454C60.8251 106.403 60.8667 106.348 60.9026 106.289C60.9444 106.215 60.9807 106.137 61.0115 106.057C61.0624 105.928 61.1063 105.796 61.1432 105.661H61.6873L61.6112 107.122H57.6865V106.857C57.7676 106.838 57.8462 106.809 57.9205 106.771C57.975 106.743 58.0195 106.699 58.0479 106.644C58.0795 106.579 58.098 106.508 58.1023 106.435C58.1099 106.351 58.1142 106.246 58.1142 106.117V102.668C58.1142 102.543 58.111 102.437 58.1045 102.352C58.1013 102.28 58.0835 102.209 58.0522 102.144C58.0229 102.089 57.9783 102.044 57.9238 102.014C57.849 101.974 57.7692 101.944 57.6865 101.924V101.659L61.6558 101.665Z" fill="black"/>
<path d="M39.2538 151.18V150.499C39.4895 150.467 39.7197 150.403 39.9384 150.309C40.0964 150.24 40.2283 150.123 40.315 149.974C40.4051 149.803 40.4578 149.615 40.4695 149.423C40.4902 149.205 40.5 148.922 40.5 148.593V138.318H39.6652C39.3429 138.303 39.0207 138.352 38.7173 138.462C38.4918 138.563 38.2953 138.719 38.1459 138.916C37.9606 139.167 37.8193 139.447 37.7279 139.745C37.6115 140.092 37.5103 140.42 37.4395 140.725H36.0247V137.108H48.1577V140.725H46.7428C46.6122 140.258 46.5092 139.915 46.4338 139.694C46.3682 139.499 46.2837 139.311 46.1813 139.133C46.0994 138.992 46.0007 138.862 45.8874 138.746C45.7911 138.648 45.6811 138.565 45.5609 138.499C45.4238 138.431 45.2769 138.384 45.1255 138.36C44.899 138.326 44.67 138.311 44.441 138.314H43.6987V148.588C43.6987 148.866 43.7089 149.143 43.7292 149.419C43.7407 149.576 43.7774 149.731 43.838 149.877C43.886 149.983 43.9544 150.08 44.0394 150.16C44.1359 150.244 44.2464 150.31 44.3659 150.356C44.5503 150.425 44.7425 150.472 44.9383 150.495V151.175L39.2538 151.18Z" fill="black"/>
<path d="M55.8155 151.18H50.4042V150.5C50.6124 150.449 50.8146 150.376 51.0071 150.282C51.1471 150.21 51.2612 150.096 51.3336 149.956C51.4134 149.787 51.4606 149.605 51.4729 149.419C51.4933 149.201 51.5038 148.928 51.5045 148.599V139.716C51.5045 139.39 51.4958 139.121 51.4784 138.902C51.4695 138.716 51.424 138.534 51.3445 138.366C51.2696 138.225 51.1563 138.11 51.018 138.031C50.8243 137.928 50.618 137.85 50.4042 137.8V137.119H56.413C57.1062 137.109 57.7987 137.166 58.4809 137.289C59.0002 137.386 59.5018 137.561 59.9687 137.808C60.314 137.991 60.6216 138.238 60.8753 138.535C61.128 138.837 61.3222 139.183 61.4478 139.555C61.5891 139.993 61.6568 140.45 61.648 140.91C61.6641 141.507 61.5427 142.099 61.2932 142.642C61.0671 143.107 60.7394 143.516 60.3344 143.839C59.84 144.211 59.2974 144.515 58.7214 144.741V144.85C59.2007 145.049 59.6313 145.35 59.9839 145.731C60.3503 146.15 60.6542 146.62 60.8862 147.127L61.5392 148.529C61.8294 149.155 62.1164 149.624 62.4001 149.936C62.6634 150.236 63.0212 150.438 63.4145 150.507V151.188H59.4463C59.0479 150.638 58.5977 149.82 58.0956 148.734L57.2924 146.972C57.1254 146.581 56.9183 146.208 56.6742 145.86C56.5361 145.668 56.3539 145.513 56.1431 145.406C55.9614 145.323 55.6806 145.282 55.3029 145.282H54.7054V148.601C54.6933 148.965 54.7174 149.329 54.7772 149.689C54.8163 149.879 54.9137 150.051 55.0558 150.183C55.193 150.307 55.4469 150.416 55.8177 150.509L55.8155 151.18ZM54.7021 138.337V144.066H55.7219C56.1852 144.083 56.6473 144.009 57.0824 143.849C57.4146 143.719 57.7078 143.507 57.9335 143.231C58.1481 142.957 58.2971 142.638 58.3688 142.298C58.4512 141.912 58.491 141.517 58.4874 141.122C58.4874 140.189 58.2676 139.488 57.8279 139.02C57.3882 138.552 56.7352 138.318 55.8688 138.32C55.2789 138.32 54.89 138.326 54.7021 138.339V138.337Z" fill="black"/>
<path d="M69.3851 148.593C69.3851 148.833 69.3916 149.058 69.4058 149.263C69.4133 149.434 69.4407 149.604 69.4874 149.768C69.5239 149.889 69.5855 150 69.6681 150.095C69.7601 150.193 69.8712 150.272 69.9946 150.327C70.1566 150.401 70.3258 150.458 70.4996 150.497V151.177H65.0872V150.497C65.2952 150.445 65.4973 150.372 65.6901 150.279C65.8301 150.206 65.9442 150.092 66.0166 149.952C66.0959 149.784 66.1431 149.602 66.1559 149.416C66.1766 149.198 66.1875 148.925 66.1864 148.596V139.702C66.1864 139.376 66.1777 139.1 66.1614 138.888C66.1516 138.704 66.1058 138.524 66.0264 138.358C65.954 138.216 65.8401 138.099 65.6999 138.023C65.5057 137.923 65.2999 137.847 65.0872 137.796V137.116H70.4974V137.796C70.279 137.846 70.0689 137.928 69.8738 138.038C69.7469 138.115 69.6417 138.224 69.5679 138.353C69.4907 138.504 69.4417 138.668 69.4232 138.837C69.3918 139.126 69.3784 139.417 69.3829 139.708L69.3851 148.593Z" fill="black"/>
<path d="M80.5822 146.821H76.182L75.8413 147.801C75.7491 148.063 75.6703 148.33 75.6051 148.6C75.5419 148.868 75.5105 149.143 75.5115 149.419C75.5115 150.093 75.8689 150.453 76.5836 150.501V151.181H72.1801V150.501C72.4242 150.478 72.6566 150.385 72.8494 150.233C73.0605 150.061 73.2386 149.851 73.3751 149.615C73.5773 149.257 73.7463 148.881 73.8801 148.492L78.178 137.047H80.9294L84.3338 148.583C84.4349 148.958 84.5622 149.324 84.7147 149.68C84.8075 149.884 84.9451 150.064 85.1174 150.206C85.321 150.357 85.5574 150.458 85.8074 150.5V151.18H80.1186V150.5C80.4755 150.459 80.74 150.359 80.912 150.202C81.0002 150.115 81.0688 150.01 81.1133 149.894C81.1578 149.779 81.1771 149.655 81.1699 149.531C81.1678 149.293 81.1437 149.055 81.0981 148.821C81.0491 148.559 80.9707 148.23 80.8608 147.831L80.5822 146.821ZM80.4734 132.781L82.8025 135.367L82.0711 136.059L79.6179 134.337H79.5091L77.0265 136.067L76.3158 135.371L78.6754 132.785L80.4734 132.781ZM76.5781 145.612H80.2883L78.6395 139.81L76.5781 145.612Z" fill="black"/>
<path d="M100.151 137.113V137.793C99.951 137.852 99.7562 137.927 99.5688 138.019C99.4564 138.08 99.3582 138.165 99.2804 138.266C99.1862 138.407 99.1245 138.567 99.0997 138.735C99.0508 139.054 99.0301 139.376 99.0377 139.698V151.18H96.4256L91.7881 143.162C91.1627 142.073 90.7023 141.221 90.407 140.606H90.3145C90.3834 142.083 90.4175 143.643 90.4168 145.286V148.605C90.4044 148.967 90.4303 149.33 90.4941 149.686C90.5355 149.874 90.6326 150.045 90.7727 150.176C90.9065 150.296 91.159 150.405 91.5345 150.503V151.183H87.6349V150.503C87.8442 150.451 88.0466 150.375 88.2379 150.276C88.3774 150.199 88.491 150.083 88.5644 149.941C88.6438 149.774 88.6907 149.594 88.7026 149.41C88.7237 149.198 88.7342 148.93 88.7342 148.607V139.692C88.746 139.335 88.7234 138.978 88.6667 138.625C88.6266 138.438 88.5297 138.267 88.3892 138.136C88.2444 138.005 87.9897 137.892 87.6273 137.796V137.116H91.8012L95.4494 143.453C95.6758 143.852 95.971 144.391 96.3353 145.072C96.6995 145.752 97.0224 146.395 97.3039 146.999H97.4694C97.3968 145.357 97.3605 143.563 97.3605 141.619V139.702C97.3682 139.378 97.3507 139.054 97.3083 138.733C97.2886 138.573 97.2344 138.418 97.1494 138.28C97.0733 138.174 96.9744 138.086 96.8599 138.022C96.6677 137.925 96.4655 137.85 96.2569 137.796V137.116L100.151 137.113Z" fill="black"/>
<path d="M112.89 137.494V140.42H111.475C111.361 139.951 111.178 139.501 110.931 139.086C110.741 138.784 110.469 138.541 110.148 138.385C109.652 138.181 109.111 138.11 108.578 138.178C108.046 138.247 107.541 138.453 107.113 138.777C106.591 139.193 106.178 139.856 105.876 140.765C105.573 141.675 105.422 142.828 105.423 144.223C105.408 145.274 105.509 146.323 105.727 147.351C105.929 148.235 106.238 148.92 106.654 149.407C106.838 149.638 107.073 149.824 107.34 149.951C107.607 150.078 107.899 150.143 108.195 150.14C108.8 150.14 109.246 149.958 109.535 149.595C109.824 149.233 109.969 148.657 109.97 147.869V147.477C109.978 147.104 109.96 146.73 109.918 146.359C109.9 146.183 109.846 146.013 109.759 145.859C109.686 145.749 109.589 145.658 109.475 145.591C109.278 145.491 109.071 145.412 108.857 145.354V144.674H114.133V145.354C113.79 145.458 113.556 145.575 113.432 145.704C113.301 145.851 113.213 146.031 113.18 146.225C113.129 146.526 113.107 146.831 113.113 147.137V151.022L111.629 151.331L110.928 150.589C110.08 151.1 109.105 151.361 108.115 151.342C106.109 151.342 104.613 150.756 103.626 149.584C102.639 148.413 102.147 146.638 102.148 144.261C102.148 143.01 102.323 141.911 102.673 140.964C103.023 140.016 103.509 139.245 104.131 138.65C104.73 138.071 105.448 137.628 106.234 137.351C107.042 137.076 107.89 136.938 108.744 136.944C110.145 136.931 111.541 137.116 112.89 137.494Z" fill="black"/>
<path d="M125.381 139.699C125.393 139.339 125.37 138.979 125.315 138.623C125.278 138.437 125.187 138.266 125.052 138.133C124.921 138.01 124.667 137.896 124.29 137.793V137.113H128.825V137.793C128.622 137.844 128.425 137.917 128.237 138.011C128.099 138.086 127.986 138.2 127.911 138.338C127.828 138.505 127.779 138.688 127.767 138.874C127.746 139.092 127.736 139.365 127.736 139.693V146.135C127.749 146.853 127.68 147.571 127.53 148.273C127.416 148.794 127.199 149.286 126.891 149.721C126.604 150.111 126.237 150.434 125.814 150.669C125.362 150.917 124.873 151.091 124.366 151.185C123.771 151.293 123.167 151.344 122.563 151.339C121.587 151.339 120.762 151.238 120.089 151.034C119.475 150.866 118.911 150.551 118.445 150.118C118.018 149.703 117.697 149.192 117.507 148.628C117.305 148.048 117.203 147.296 117.203 146.372V139.704C117.203 139.377 117.195 139.108 117.177 138.889C117.168 138.704 117.123 138.521 117.043 138.353C116.969 138.213 116.855 138.097 116.717 138.019C116.523 137.915 116.317 137.837 116.103 137.787V137.107H121.514V137.787C121.296 137.837 121.086 137.918 120.891 138.029C120.765 138.107 120.66 138.215 120.586 138.343C120.509 138.494 120.461 138.659 120.442 138.827C120.411 139.116 120.397 139.407 120.401 139.698V146.516C120.4 147.012 120.436 147.508 120.51 147.999C120.564 148.402 120.692 148.791 120.885 149.148C121.063 149.462 121.327 149.718 121.647 149.885C121.971 150.057 122.387 150.143 122.895 150.143C123.595 150.143 124.117 150.002 124.461 149.721C124.821 149.413 125.075 149 125.188 148.54C125.328 148.032 125.398 147.278 125.399 146.278L125.381 139.699Z" fill="black"/>
<path d="M136.776 137.113V137.793C136.572 137.844 136.375 137.917 136.188 138.011C136.048 138.086 135.931 138.199 135.853 138.338C135.766 138.502 135.713 138.682 135.698 138.868C135.672 139.14 135.66 139.414 135.662 139.687V149.952H137.662C137.991 149.966 138.32 149.902 138.62 149.767C138.873 149.631 139.088 149.434 139.244 149.194C139.444 148.881 139.596 148.541 139.697 148.184C139.824 147.768 139.926 147.379 140.002 147.015H141.416L141.189 151.178H131.368V150.498C131.577 150.447 131.779 150.371 131.971 150.272C132.111 150.195 132.225 150.079 132.297 149.936C132.377 149.768 132.425 149.587 132.436 149.401C132.457 149.183 132.467 148.91 132.468 148.581V139.708C132.468 139.381 132.459 139.113 132.442 138.894C132.433 138.708 132.387 138.526 132.308 138.357C132.233 138.217 132.12 138.101 131.981 138.023C131.788 137.92 131.581 137.842 131.368 137.791V137.111L136.776 137.113Z" fill="black"/>
<path d="M149.552 151.345C147.532 151.345 146.015 150.754 145.001 149.572C143.988 148.39 143.48 146.621 143.478 144.265C143.478 142.719 143.723 141.398 144.214 140.302C144.706 139.205 145.429 138.371 146.383 137.799C147.339 137.228 148.476 136.943 149.795 136.943C151.849 136.943 153.391 137.532 154.422 138.711C155.453 139.889 155.969 141.639 155.969 143.962C155.969 145.26 155.816 146.375 155.509 147.306C155.203 148.238 154.768 149.002 154.203 149.599C153.644 150.195 152.949 150.647 152.178 150.918C151.334 151.21 150.445 151.355 149.552 151.345ZM146.758 143.987C146.758 146.061 147.007 147.605 147.506 148.619C148.004 149.633 148.766 150.141 149.791 150.143C150.277 150.157 150.753 150.006 151.142 149.715C151.537 149.398 151.847 148.986 152.043 148.518C152.292 147.938 152.459 147.326 152.538 146.699C152.642 145.934 152.691 145.163 152.687 144.391C152.687 143.024 152.578 141.878 152.361 140.954C152.143 140.029 151.817 139.332 151.381 138.862C151.17 138.631 150.91 138.448 150.621 138.326C150.333 138.204 150.021 138.146 149.707 138.156C148.71 138.156 147.97 138.632 147.486 139.583C147.002 140.535 146.759 142.003 146.758 143.987Z" fill="black"/>
<path d="M63.4828 118.843V121.538H62.3226C62.1354 121.001 61.9772 120.638 61.8481 120.45C61.7263 120.268 61.5671 120.115 61.3812 120C61.2005 119.89 60.8929 119.835 60.4583 119.835H58.608V123.902H59.729C59.93 123.911 60.1303 123.874 60.3146 123.793C60.4645 123.714 60.587 123.591 60.6661 123.442C60.7868 123.2 60.8764 122.944 60.9328 122.68H61.8905V126.119H60.9328C60.8772 125.859 60.7891 125.607 60.6705 125.369C60.5924 125.217 60.4733 125.089 60.3266 125.001C60.1392 124.917 59.9341 124.88 59.729 124.892H58.6113V129.417H60.4495C60.6169 129.419 60.784 129.406 60.9491 129.379C61.0772 129.356 61.2005 129.311 61.3137 129.247C61.4292 129.178 61.5334 129.092 61.6228 128.992C61.7218 128.885 61.8101 128.768 61.8862 128.644C61.9786 128.486 62.0594 128.322 62.1278 128.153C62.2358 127.879 62.3288 127.599 62.4064 127.314H63.5677L63.4066 130.407H55.0774V129.848C55.2491 129.806 55.4156 129.744 55.5737 129.665C55.6901 129.605 55.7849 129.51 55.8447 129.394C55.9096 129.257 55.9484 129.109 55.959 128.958C55.9764 128.78 55.984 128.556 55.984 128.285V120.981C55.984 120.715 55.9771 120.492 55.9633 120.311C55.9557 120.161 55.9187 120.013 55.8545 119.876C55.792 119.761 55.698 119.665 55.5835 119.601C55.4241 119.516 55.2544 119.452 55.0785 119.41V118.851L63.4828 118.843Z" fill="black"/>
<path d="M66.8592 127.554C67.0007 128.227 67.2365 128.728 67.5666 129.058C67.8968 129.388 68.3811 129.553 69.0196 129.553C69.3273 129.559 69.6328 129.501 69.9175 129.385C70.1817 129.273 70.4052 129.083 70.5575 128.84C70.7272 128.555 70.8111 128.227 70.7991 127.896C70.8069 127.581 70.7401 127.269 70.6043 126.985C70.4499 126.698 70.2362 126.448 69.9774 126.251C69.602 125.964 69.1987 125.716 68.7736 125.51C68.3607 125.306 67.9608 125.077 67.5764 124.823C67.2401 124.603 66.9339 124.339 66.6655 124.04C66.4192 123.763 66.2216 123.446 66.081 123.104C65.9373 122.74 65.8667 122.351 65.8732 121.96C65.8732 121.265 66.0455 120.675 66.3901 120.189C66.7679 119.68 67.2901 119.297 67.8888 119.089C68.6146 118.825 69.3827 118.697 70.1548 118.712C70.6363 118.711 71.1174 118.738 71.5958 118.793C72.1229 118.859 72.6461 118.953 73.163 119.076V121.533H72.0017C71.9235 121.159 71.785 120.8 71.5914 120.47C71.4411 120.223 71.2257 120.022 70.9689 119.89C70.3928 119.648 69.745 119.642 69.1644 119.872C68.9187 119.978 68.7094 120.153 68.5625 120.376C68.4111 120.618 68.3353 120.9 68.3448 121.186C68.3375 121.481 68.4033 121.773 68.5364 122.037C68.6961 122.315 68.914 122.555 69.1752 122.74C69.5875 123.038 70.0245 123.301 70.4813 123.525C71.0674 123.814 71.6179 124.171 72.1214 124.588C72.4922 124.9 72.7923 125.287 73.0019 125.723C73.2188 126.242 73.3137 126.804 73.2791 127.365C73.2446 127.926 73.0816 128.472 72.8028 128.96C72.4636 129.485 71.9734 129.896 71.3966 130.138C70.7215 130.423 69.9939 130.563 69.2612 130.548C68.6599 130.547 68.0591 130.514 67.4611 130.451C66.8701 130.391 66.2831 130.296 65.7034 130.167V127.555L66.8592 127.554Z" fill="black"/>
<path d="M77.5892 130.408V129.848C77.7833 129.821 77.9729 129.769 78.153 129.692C78.2825 129.635 78.3906 129.538 78.4621 129.416C78.5362 129.276 78.5796 129.121 78.5894 128.962C78.6061 128.78 78.6145 128.553 78.6145 128.281V119.833H77.9288C77.6634 119.821 77.3983 119.862 77.1485 119.952C76.9629 120.035 76.8012 120.163 76.6783 120.325C76.5261 120.531 76.4102 120.762 76.3354 121.007C76.2397 121.292 76.1606 121.562 76.0982 121.816H74.938V118.842H84.9139V121.816H83.7494C83.6413 121.432 83.5564 121.149 83.4947 120.968C83.4419 120.808 83.3726 120.653 83.2879 120.507C83.2207 120.392 83.1395 120.285 83.0463 120.189C82.9664 120.108 82.8751 120.04 82.7753 119.986C82.6615 119.931 82.54 119.894 82.415 119.877C82.2285 119.848 82.0399 119.836 81.8513 119.839H81.2418V128.287C81.2387 128.514 81.247 128.741 81.2668 128.968C81.2765 129.098 81.3082 129.226 81.3604 129.346C81.3996 129.433 81.4554 129.512 81.5248 129.578C81.6053 129.647 81.697 129.702 81.7958 129.74C81.9478 129.796 82.106 129.834 82.267 129.854V130.408H77.5892Z" fill="black"/>
<path d="M91.2852 126.826H87.6675L87.3877 127.63C87.3083 127.856 87.2441 128.075 87.1929 128.283C87.141 128.504 87.1154 128.73 87.1167 128.957C87.1167 129.51 87.4102 129.807 87.9972 129.847V130.407H84.3795V129.848C84.5801 129.83 84.7713 129.754 84.9302 129.63C85.1055 129.489 85.2531 129.317 85.3656 129.122C85.5323 128.828 85.6715 128.519 85.7813 128.199L89.3142 118.786H91.5769L94.3729 128.275C94.4559 128.583 94.5606 128.885 94.6863 129.178C94.7611 129.345 94.8727 129.494 95.0128 129.613C95.1806 129.737 95.3752 129.82 95.5809 129.855V130.407H90.901V129.848C91.139 129.836 91.3674 129.75 91.554 129.602C91.6277 129.531 91.6854 129.446 91.7229 129.351C91.7605 129.255 91.7771 129.153 91.7717 129.051C91.7697 128.855 91.7497 128.66 91.7118 128.467C91.6726 128.249 91.6077 127.978 91.517 127.654L91.2852 126.826ZM91.1916 115.289L93.1071 117.416L92.5052 117.983L90.4885 116.568H90.396L88.3618 117.983L87.7774 117.416L89.7179 115.289H91.1916ZM87.9896 125.836H91.037L89.682 121.066L87.9896 125.836Z" fill="black"/>
<path d="M107.54 118.844V119.404C107.376 119.453 107.216 119.515 107.061 119.59C106.969 119.64 106.888 119.71 106.824 119.793C106.749 119.909 106.7 120.04 106.681 120.177C106.641 120.439 106.624 120.705 106.63 120.97V130.408H104.478L100.669 123.816C100.154 122.923 99.7752 122.223 99.5328 121.714H99.4567C99.5133 122.929 99.5416 124.211 99.5416 125.561V128.289C99.5313 128.587 99.5529 128.886 99.6058 129.179C99.6393 129.334 99.719 129.474 99.8343 129.582C99.9446 129.68 100.152 129.769 100.457 129.849V130.408H97.2451V129.849C97.4173 129.806 97.5839 129.744 97.7414 129.662C97.8569 129.599 97.9512 129.504 98.0124 129.387C98.0769 129.25 98.1156 129.103 98.1267 128.952C98.1441 128.776 98.1517 128.556 98.1517 128.29V120.961C98.1603 120.67 98.1421 120.378 98.0973 120.09C98.0638 119.936 97.9841 119.795 97.8687 119.688C97.7523 119.579 97.5422 119.487 97.2451 119.408V118.848H100.677L103.676 124.06C103.862 124.387 104.105 124.83 104.405 125.39C104.706 125.949 104.971 126.477 105.201 126.974H105.337C105.275 125.625 105.243 124.15 105.243 122.551V120.975C105.25 120.709 105.236 120.442 105.201 120.178C105.185 120.046 105.14 119.92 105.07 119.806C105.008 119.717 104.927 119.643 104.833 119.589C104.675 119.509 104.508 119.447 104.337 119.402V118.843L107.54 118.844Z" fill="black"/>
<path d="M117.957 119.107V121.564H116.803C116.667 120.926 116.452 120.454 116.159 120.149C116.008 119.998 115.828 119.879 115.63 119.801C115.431 119.723 115.219 119.687 115.006 119.696C114.114 119.696 113.439 120.124 112.982 120.979C112.525 121.835 112.296 123.104 112.295 124.788C112.295 126.354 112.504 127.538 112.922 128.343C113.34 129.148 113.952 129.55 114.76 129.55C115.108 129.564 115.454 129.493 115.769 129.343C116.033 129.2 116.249 128.984 116.391 128.72C116.58 128.351 116.715 127.957 116.794 127.551H117.954V130.118C117.393 130.255 116.825 130.364 116.252 130.445C115.721 130.513 115.186 130.547 114.65 130.546C113.476 130.546 112.517 130.334 111.774 129.91C111.023 129.477 110.443 128.8 110.13 127.992C109.777 127.136 109.601 126.053 109.6 124.743C109.6 123.517 109.808 122.45 110.224 121.544C110.606 120.674 111.246 119.942 112.058 119.447C112.865 118.955 113.831 118.709 114.955 118.71C115.473 118.707 115.991 118.737 116.506 118.802C116.996 118.87 117.481 118.972 117.957 119.107Z" fill="black"/>
<path d="M123.652 128.283C123.652 128.48 123.652 128.664 123.668 128.834C123.675 128.974 123.698 129.113 123.737 129.249C123.766 129.349 123.817 129.441 123.885 129.52C123.96 129.601 124.051 129.666 124.152 129.71C124.285 129.772 124.424 129.819 124.567 129.851V130.408H120.118V129.848C120.29 129.806 120.456 129.745 120.614 129.665C120.731 129.606 120.826 129.511 120.885 129.394C120.949 129.257 120.985 129.11 120.994 128.959C121.012 128.781 121.019 128.556 121.019 128.285V120.973C121.019 120.701 121.012 120.478 120.999 120.303C120.991 120.153 120.954 120.005 120.89 119.868C120.829 119.752 120.734 119.656 120.619 119.593C120.458 119.511 120.289 119.448 120.114 119.407V118.847H124.563V119.407C124.383 119.448 124.211 119.515 124.05 119.606C123.947 119.67 123.861 119.758 123.8 119.864C123.737 119.988 123.697 120.123 123.681 120.262C123.655 120.501 123.644 120.742 123.648 120.983L123.652 128.283Z" fill="black"/>
<path d="M132.626 126.826H129.008L128.728 127.63C128.649 127.856 128.585 128.075 128.533 128.283C128.481 128.504 128.456 128.73 128.457 128.957C128.457 129.51 128.751 129.807 129.339 129.847V130.407H125.721V129.848C125.922 129.829 126.113 129.754 126.272 129.63C126.446 129.489 126.594 129.316 126.707 129.122C126.873 128.828 127.012 128.519 127.122 128.199L130.655 118.786H132.911L135.707 128.275C135.79 128.583 135.895 128.885 136.02 129.178C136.095 129.345 136.207 129.494 136.347 129.613C136.514 129.737 136.708 129.82 136.914 129.855V130.407H132.234V129.848C132.472 129.837 132.701 129.751 132.887 129.602C132.961 129.531 133.018 129.445 133.056 129.35C133.093 129.255 133.11 129.153 133.105 129.051C133.103 128.855 133.082 128.659 133.045 128.467C133.005 128.249 132.941 127.978 132.85 127.654L132.626 126.826ZM129.33 125.836H132.377L131.022 121.066L129.33 125.836Z" fill="black"/>
<path d="M163.224 110.571H28.7738V112.128H163.224V110.571Z" fill="black" stroke="white" stroke-miterlimit="10"/>
<path d="M52.4328 165.523C52.3078 165.717 52.1561 165.892 51.9822 166.043C51.8364 166.161 51.6666 166.245 51.4848 166.289C51.2322 166.351 50.9708 166.369 50.7121 166.342C50.3094 166.301 49.9124 166.217 49.528 166.09C49.5486 165.918 49.5704 165.746 49.5922 165.575C49.7569 165.616 49.9255 165.638 50.095 165.643C50.1974 165.645 50.2992 165.626 50.3943 165.588C50.4826 165.546 50.5628 165.488 50.6316 165.419C50.7406 165.305 50.8396 165.183 50.9276 165.053C51.7446 163.904 52.5696 162.756 53.4025 161.61C53.4744 161.511 53.5309 161.426 53.5734 161.356C53.6118 161.298 53.6354 161.231 53.642 161.162C53.6439 161.099 53.626 161.037 53.5908 160.985C53.5393 160.908 53.4786 160.838 53.4101 160.776L53.5636 160.569C54.2456 160.976 54.932 161.372 55.6228 161.757L55.478 161.975C55.3821 161.942 55.2822 161.922 55.1809 161.915C55.1179 161.913 55.055 161.924 54.997 161.949C54.9385 161.978 54.8858 162.017 54.8413 162.065C54.7671 162.148 54.6987 162.236 54.6367 162.328C53.8959 163.39 53.1613 164.455 52.4328 165.523Z" fill="black"/>
<path d="M56.3467 163.792C56.8735 164.071 57.4017 164.345 57.9313 164.613C57.5591 165.222 57.1894 165.831 56.8223 166.439C56.7201 166.602 56.6292 166.771 56.5502 166.947C56.5016 167.048 56.477 167.16 56.4784 167.273C56.4837 167.36 56.5143 167.444 56.5665 167.514C56.6312 167.592 56.7132 167.653 56.806 167.694C56.9251 167.75 57.0544 167.78 57.1858 167.784C57.3295 167.79 57.473 167.766 57.607 167.714C57.729 167.672 57.8324 167.589 57.8987 167.479C58.1447 167.051 58.3917 166.624 58.6399 166.196C58.7335 166.033 58.7988 165.912 58.8369 165.829C58.8692 165.764 58.8892 165.693 58.8956 165.621C58.8978 165.563 58.8826 165.506 58.8521 165.457C58.7982 165.379 58.7329 165.311 58.6584 165.253L58.7879 165.035C59.3212 165.297 59.8559 165.551 60.3921 165.797L59.0861 168.146C58.9925 168.316 58.9283 168.441 58.8924 168.522C58.8607 168.589 58.8425 168.66 58.839 168.734C58.8411 168.797 58.8632 168.858 58.9022 168.908C58.9729 168.993 59.0567 169.066 59.1503 169.125L59.0295 169.351C58.6283 169.18 58.2292 169.006 57.8323 168.829L57.3066 168.578L57.619 168.118L57.5733 168.083C57.2613 168.141 56.9428 168.158 56.6264 168.132C56.3822 168.105 56.1445 168.036 55.9244 167.927C55.6701 167.814 55.4463 167.643 55.2714 167.427C55.1457 167.26 55.0892 167.051 55.1136 166.844C55.1563 166.591 55.2536 166.35 55.3987 166.138L56.1519 164.941C56.2291 164.819 56.2868 164.723 56.3238 164.658C56.3532 164.605 56.3794 164.551 56.4022 164.496C56.4156 164.458 56.4247 164.42 56.4294 164.38C56.4324 164.344 56.4287 164.307 56.4185 164.271C56.4044 164.228 56.3826 164.187 56.3543 164.151C56.3106 164.096 56.2609 164.046 56.2063 164.003L56.3467 163.792Z" fill="black"/>
<path d="M65.4847 172.017C64.7678 171.752 64.0524 171.478 63.3385 171.194L63.4473 170.965C63.5543 170.994 63.6668 170.994 63.7738 170.965C63.854 170.932 63.9232 170.877 63.973 170.806C64.0654 170.666 64.1441 170.517 64.2081 170.362C64.3474 170.053 64.4889 169.745 64.6293 169.436C64.7043 169.273 64.762 169.136 64.8012 169.028C64.8349 168.939 64.8611 168.847 64.8796 168.754C64.9031 168.633 64.8831 168.509 64.823 168.402C64.7947 168.356 64.7577 168.316 64.7141 168.285C64.6571 168.244 64.5949 168.211 64.5291 168.187C64.4108 168.142 64.2841 168.124 64.158 168.133C64.0186 168.141 63.8825 168.178 63.7586 168.242C63.6438 168.295 63.5505 168.385 63.4941 168.498C63.2808 168.94 63.0689 169.381 62.8585 169.822C62.7816 169.972 62.7178 170.127 62.668 170.287C62.6443 170.368 62.6482 170.454 62.6789 170.532C62.7342 170.629 62.8157 170.708 62.914 170.761C62.8781 170.837 62.8432 170.913 62.8052 170.988C62.0955 170.698 61.3877 170.401 60.6818 170.098L60.7906 169.874C60.9043 169.904 61.0236 169.907 61.1389 169.883C61.221 169.856 61.293 169.804 61.3457 169.735C61.4424 169.598 61.5265 169.452 61.5971 169.3C61.8314 168.833 62.0669 168.366 62.3034 167.898C62.3883 167.73 62.4471 167.604 62.4819 167.521C62.5124 167.452 62.5287 167.378 62.5298 167.303C62.5279 167.241 62.507 167.181 62.4699 167.132C62.4014 167.051 62.3197 166.983 62.2283 166.93C62.2686 166.852 62.3089 166.775 62.348 166.698C62.7333 166.854 63.1182 167.008 63.5028 167.158L64.0285 167.376L63.7248 167.845L63.7705 167.876C63.9687 167.829 64.1692 167.793 64.3713 167.768C64.5358 167.749 64.7016 167.747 64.8665 167.761C65.2387 167.801 65.5917 167.946 65.8841 168.18C66.0032 168.281 66.0937 168.412 66.1464 168.559C66.1945 168.707 66.2061 168.865 66.1802 169.019C66.1486 169.209 66.0922 169.394 66.0126 169.57C65.8261 169.996 65.6411 170.422 65.4575 170.848C65.414 170.95 65.3748 171.047 65.34 171.138C65.3106 171.211 65.2908 171.288 65.2812 171.366C65.2746 171.419 65.2802 171.473 65.2975 171.524C65.318 171.575 65.35 171.621 65.3911 171.657C65.4456 171.708 65.505 171.753 65.5685 171.792C65.5489 171.863 65.5174 171.94 65.4847 172.017Z" fill="black"/>
<path d="M70.3646 173.136C70.1876 173.202 70.0056 173.254 69.8204 173.292C69.6554 173.323 69.4875 173.335 69.3198 173.328C69.1399 173.32 68.9619 173.287 68.7908 173.23C68.263 173.057 67.9202 172.774 67.7732 172.388C67.6263 172.002 67.6644 171.517 67.9006 170.925C68.0322 170.567 68.2519 170.248 68.5394 169.997C68.8057 169.775 69.1326 169.638 69.4776 169.604C69.8749 169.568 70.2752 169.618 70.6519 169.749C70.7848 169.791 70.9152 169.84 71.0427 169.897C71.1607 169.948 71.2756 170.006 71.3866 170.071C71.4954 170.133 71.6173 170.217 71.7664 170.322L72.1528 170.213L72.6763 170.44C72.2076 171.844 71.745 173.248 71.2886 174.652C71.2407 174.778 71.2114 174.911 71.2016 175.046C71.1991 175.12 71.2222 175.193 71.2669 175.253C71.3412 175.335 71.4306 175.403 71.5303 175.452L71.4552 175.69C70.6933 175.472 69.9315 175.242 69.1696 175C69.1968 174.922 69.2251 174.843 69.2523 174.764C69.3718 174.786 69.4942 174.786 69.6136 174.764C69.6894 174.743 69.7563 174.698 69.8041 174.635C69.8791 174.518 69.937 174.391 69.9761 174.258C70.1074 173.885 70.2369 173.511 70.3646 173.136ZM71.0274 171.238C71.1297 170.947 71.1475 170.713 71.0808 170.535C71.0133 170.357 70.8631 170.231 70.6171 170.154C70.4498 170.097 70.2679 170.101 70.1034 170.166C69.9209 170.244 69.7627 170.37 69.6452 170.53C69.4907 170.735 69.3681 170.963 69.2817 171.205C69.1061 171.672 69.039 172.041 69.0804 172.312C69.0955 172.438 69.1483 172.556 69.2318 172.652C69.3153 172.747 69.4256 172.815 69.5483 172.847C69.685 172.89 69.8289 172.906 69.9717 172.894C70.1127 172.883 70.2483 172.835 70.3646 172.755C70.4803 172.675 70.5673 172.561 70.6128 172.428L71.0274 171.238Z" fill="black"/>
<path d="M74.617 170.977C75.1713 171.127 75.7271 171.27 76.2844 171.406C76.0972 172.083 75.9107 172.76 75.7249 173.437C75.6726 173.619 75.6316 173.805 75.602 173.992C75.5826 174.105 75.5889 174.221 75.6205 174.331C75.6451 174.415 75.6939 174.491 75.7609 174.548C75.8391 174.608 75.9299 174.649 76.0264 174.669C76.1489 174.697 76.2762 174.697 76.3986 174.669C76.533 174.643 76.6598 174.587 76.7698 174.506C76.8726 174.435 76.947 174.33 76.9798 174.21C77.0995 173.736 77.2196 173.264 77.3401 172.795C77.3858 172.615 77.4152 172.481 77.4293 172.393C77.4424 172.321 77.4424 172.248 77.4293 172.176C77.4163 172.119 77.3876 172.067 77.3466 172.026C77.278 171.964 77.2002 171.912 77.1159 171.873C77.1376 171.792 77.1583 171.712 77.1801 171.631C77.738 171.762 78.2975 171.888 78.8583 172.008C78.653 172.87 78.4495 173.732 78.2478 174.593C78.2042 174.78 78.1759 174.919 78.1629 175.005C78.1487 175.077 78.1487 175.151 78.1629 175.223C78.1801 175.284 78.2154 175.338 78.2641 175.378C78.35 175.442 78.4455 175.493 78.5471 175.529L78.4916 175.777C78.078 175.704 77.6648 175.626 77.2519 175.542C77.0691 175.501 76.8877 175.46 76.7077 175.418L76.8808 174.898L76.8296 174.874C76.5571 175.003 76.2676 175.092 75.9698 175.139C75.7369 175.17 75.5004 175.157 75.2722 175.101C75.0074 175.048 74.7591 174.933 74.5484 174.764C74.3898 174.629 74.2863 174.441 74.2578 174.235C74.2321 173.981 74.2607 173.725 74.3416 173.483C74.4708 173.039 74.601 172.595 74.7324 172.151C74.7715 172.015 74.8009 171.91 74.8172 171.836C74.8317 171.779 74.8419 171.721 74.8477 171.662C74.8532 171.622 74.8532 171.582 74.8477 171.542C74.8421 171.504 74.8292 171.467 74.8096 171.433C74.7861 171.394 74.7555 171.359 74.7193 171.331C74.666 171.288 74.6079 171.252 74.5462 171.222C74.568 171.137 74.592 171.058 74.617 170.977Z" fill="black"/>
<path d="M84.4274 176.111C84.1301 176.324 83.7921 176.473 83.4346 176.549C83.0771 176.625 82.7078 176.627 82.3497 176.553C81.6422 176.437 81.1405 176.182 80.8488 175.801C80.5572 175.42 80.4777 174.916 80.605 174.295C80.6715 173.928 80.8366 173.585 81.0828 173.305C81.3174 173.047 81.6223 172.863 81.96 172.776C82.3392 172.68 82.7345 172.667 83.1192 172.738C83.3517 172.772 83.5791 172.835 83.7961 172.926C83.9694 172.998 84.1297 173.098 84.2706 173.222C84.3945 173.332 84.4961 173.464 84.5699 173.613C84.6591 173.794 84.7158 173.989 84.7376 174.189C84.7637 174.446 84.7571 174.704 84.718 174.959C83.7747 174.828 82.8358 174.682 81.9013 174.524C81.8207 174.974 81.857 175.322 82.0101 175.568C82.1614 175.813 82.4346 175.969 82.8253 176.032C83.0362 176.069 83.2523 176.066 83.462 176.022C83.694 175.963 83.9147 175.865 84.115 175.734L84.4274 176.111ZM83.4696 174.359C83.5218 173.975 83.5099 173.681 83.438 173.478C83.4039 173.38 83.3429 173.295 83.2619 173.231C83.181 173.167 83.0835 173.127 82.9809 173.116C82.874 173.097 82.764 173.106 82.6613 173.141C82.5586 173.177 82.4667 173.238 82.3943 173.319C82.1971 173.548 82.0612 173.823 81.9992 174.119C82.4912 174.204 82.9813 174.284 83.4696 174.359Z" fill="black"/>
<path d="M86.2352 176.793C86.3502 176.792 86.4628 176.76 86.5617 176.701C86.628 176.65 86.6766 176.579 86.701 176.499C86.7455 176.338 86.775 176.174 86.7892 176.008C86.8617 175.421 86.9321 174.835 87.0003 174.25C87.0134 174.15 87.0188 174.05 87.0166 173.949C87.0153 173.882 86.9973 173.817 86.9644 173.759C86.9309 173.708 86.8839 173.666 86.8284 173.639C86.7535 173.601 86.6751 173.57 86.5944 173.547L86.627 173.29C87.0264 173.329 87.4259 173.362 87.8242 173.399L88.3684 173.454C88.2748 174.352 88.1819 175.25 88.0898 176.148C88.0756 176.29 88.0658 176.399 88.0626 176.475C88.0582 176.535 88.0582 176.595 88.0626 176.656C88.0672 176.695 88.0764 176.734 88.0898 176.771C88.1202 176.852 88.1801 176.918 88.2574 176.956C88.3209 176.989 88.3877 177.016 88.4566 177.037C88.4479 177.119 88.4402 177.203 88.4315 177.287C87.6893 177.214 86.9477 177.134 86.2069 177.045C86.22 176.959 86.2254 176.88 86.2352 176.793ZM88.4849 171.965L88.3869 172.893C87.9929 172.854 87.5993 172.812 87.206 172.768C87.243 172.459 87.2811 172.151 87.3149 171.842C87.7067 171.885 88.0967 171.926 88.4849 171.965Z" fill="black"/>
<path d="M92.0786 174.31L92.1352 174.324C92.3314 174.137 92.562 173.989 92.8143 173.889C93.048 173.801 93.2973 173.762 93.5468 173.774C93.7337 173.781 93.9197 173.804 94.1029 173.841L94.0735 174.896C93.8069 174.888 93.5413 174.878 93.2747 174.869C93.2411 174.74 93.1786 174.621 93.0918 174.52C93.0503 174.478 93.0008 174.445 92.9463 174.422C92.8917 174.399 92.8332 174.388 92.774 174.388C92.6993 174.386 92.6251 174.401 92.5564 174.43C92.4769 174.462 92.4033 174.508 92.3387 174.564C92.2766 174.614 92.2255 174.677 92.1885 174.748C92.1578 174.809 92.1355 174.874 92.1221 174.94C92.1067 175.039 92.0972 175.138 92.0938 175.238C92.072 175.642 92.0506 176.048 92.0296 176.454C92.0133 176.623 92.0133 176.794 92.0296 176.963C92.0415 177.051 92.082 177.133 92.145 177.197C92.2373 177.268 92.3469 177.314 92.4628 177.329C92.4628 177.413 92.4551 177.497 92.4508 177.581C91.6998 177.544 90.9492 177.497 90.199 177.44C90.2055 177.357 90.212 177.273 90.2175 177.189C90.3292 177.18 90.4368 177.143 90.5298 177.08C90.5931 177.025 90.638 176.952 90.6583 176.871C90.6939 176.708 90.715 176.542 90.7214 176.375C90.7569 175.854 90.7932 175.333 90.8302 174.811C90.8433 174.623 90.8487 174.484 90.8476 174.393C90.849 174.319 90.8364 174.245 90.8106 174.175C90.7858 174.118 90.745 174.069 90.6931 174.034C90.6033 173.983 90.5059 173.946 90.4047 173.925C90.4112 173.839 90.4188 173.753 90.4243 173.666C90.8226 173.686 91.2217 173.702 91.6215 173.715L92.1656 173.747C92.1381 173.932 92.109 174.12 92.0786 174.31Z" fill="black"/>
<path d="M97.6588 177.741C97.263 177.755 96.8686 177.689 96.4986 177.548C96.182 177.424 95.9145 177.2 95.7368 176.91C95.5464 176.573 95.4558 176.189 95.4756 175.803C95.471 175.499 95.5292 175.198 95.6464 174.917C95.7489 174.679 95.905 174.468 96.1025 174.3C96.3038 174.133 96.5377 174.011 96.7892 173.94C97.0699 173.86 97.3603 173.818 97.6523 173.816C98.3543 173.806 98.8887 173.954 99.2609 174.269C99.6331 174.583 99.8366 175.053 99.866 175.683C99.8989 176.073 99.8212 176.464 99.6418 176.811C99.47 177.118 99.2025 177.362 98.8799 177.503C98.4939 177.667 98.078 177.748 97.6588 177.741ZM96.8382 175.727C96.8382 176.267 96.9129 176.673 97.0624 176.943C97.1205 177.066 97.2132 177.169 97.3292 177.24C97.4452 177.311 97.5795 177.346 97.7154 177.342C97.8535 177.349 97.9904 177.313 98.1073 177.239C98.2242 177.165 98.3154 177.057 98.3684 176.93C98.4349 176.78 98.4771 176.62 98.4936 176.457C98.5155 176.253 98.5228 176.047 98.5153 175.841C98.5001 175.297 98.4174 174.882 98.2705 174.612C98.2166 174.492 98.1286 174.39 98.0173 174.319C97.9061 174.249 97.7765 174.212 97.6447 174.214C97.4707 174.209 97.3012 174.269 97.1701 174.384C97.0377 174.521 96.9477 174.693 96.9111 174.88C96.8526 175.158 96.8281 175.443 96.8382 175.727ZM98.7755 172.001C98.7755 172.085 98.7809 172.17 98.7842 172.254C98.3053 172.68 97.8181 173.101 97.3225 173.516L96.9731 173.266C97.2837 172.854 97.5884 172.439 97.8874 172.022C98.1823 172.017 98.4794 172.01 98.7755 172.001Z" fill="black"/>
<path d="M103.597 178.109C103.603 178.246 103.628 178.382 103.67 178.513C103.698 178.587 103.751 178.649 103.819 178.69C103.927 178.743 104.045 178.773 104.165 178.778C104.174 178.862 104.181 178.947 104.189 179.031C103.416 179.095 102.643 179.148 101.87 179.192C101.863 179.108 101.859 179.023 101.852 178.94C101.959 178.913 102.059 178.867 102.148 178.802C102.204 178.752 102.242 178.686 102.257 178.613C102.277 178.477 102.28 178.338 102.265 178.202C102.183 177.083 102.101 175.964 102.018 174.845C102.003 174.663 101.991 174.535 101.982 174.458C101.974 174.391 101.959 174.326 101.936 174.264C101.919 174.214 101.891 174.169 101.853 174.132C101.815 174.096 101.769 174.069 101.718 174.054C101.635 174.027 101.549 174.009 101.462 174.001C101.462 173.913 101.45 173.826 101.444 173.739C101.845 173.705 102.246 173.669 102.648 173.63C102.826 173.617 103.005 173.604 103.182 173.589C103.182 173.776 103.172 173.964 103.168 174.151L103.221 174.158C103.414 173.956 103.634 173.782 103.874 173.64C104.076 173.529 104.298 173.461 104.527 173.439C105.042 173.389 105.447 173.506 105.746 173.798C106.046 174.09 106.239 174.553 106.322 175.191C106.384 175.572 106.351 175.962 106.226 176.326C106.108 176.64 105.886 176.903 105.597 177.073C105.247 177.271 104.856 177.386 104.454 177.409C104.144 177.437 103.831 177.429 103.522 177.386L103.597 178.109ZM103.423 176.164C103.451 176.479 103.531 176.708 103.677 176.846C103.823 176.983 104.027 177.042 104.297 177.02C104.427 177.012 104.552 176.968 104.658 176.892C104.764 176.816 104.846 176.712 104.895 176.591C105.015 176.331 105.049 175.972 104.997 175.514C104.941 175.005 104.834 174.635 104.681 174.402C104.617 174.294 104.523 174.207 104.41 174.151C104.297 174.096 104.171 174.074 104.046 174.09C103.914 174.102 103.786 174.143 103.672 174.212C103.556 174.279 103.46 174.374 103.39 174.488C103.322 174.601 103.292 174.733 103.305 174.865L103.423 176.164Z" fill="black"/>
<path d="M110.683 176.626C110.29 176.699 109.887 176.693 109.496 176.609C109.162 176.532 108.863 176.349 108.641 176.088C108.4 175.78 108.249 175.411 108.206 175.022C108.154 174.721 108.163 174.412 108.233 174.114C108.296 173.861 108.417 173.628 108.586 173.43C108.759 173.233 108.972 173.075 109.211 172.965C109.477 172.842 109.76 172.756 110.05 172.711C110.747 172.595 111.305 172.661 111.728 172.916C112.151 173.172 112.432 173.611 112.564 174.233C112.659 174.616 112.645 175.018 112.521 175.392C112.4 175.727 112.17 176.011 111.868 176.2C111.507 176.423 111.104 176.568 110.683 176.626ZM109.542 174.74C109.633 175.28 109.773 175.673 109.961 175.919C110.038 176.034 110.148 176.123 110.276 176.176C110.403 176.229 110.544 176.244 110.68 176.218C110.821 176.2 110.954 176.141 111.062 176.049C111.16 175.956 111.23 175.838 111.263 175.707C111.306 175.547 111.322 175.382 111.312 175.217C111.302 175.01 111.276 174.803 111.235 174.599C111.126 174.055 110.981 173.658 110.791 173.412C110.601 173.166 110.372 173.066 110.102 173.11C109.928 173.13 109.768 173.217 109.657 173.352C109.547 173.508 109.486 173.694 109.481 173.885C109.466 174.172 109.487 174.459 109.542 174.74Z" fill="black"/>
<path d="M116.232 174.314C116.269 174.481 116.32 174.644 116.385 174.803C116.42 174.881 116.478 174.947 116.55 174.993C116.659 175.042 116.779 175.061 116.898 175.049C116.919 175.131 116.94 175.214 116.963 175.297C116.224 175.475 115.485 175.643 114.744 175.801C114.724 175.717 114.705 175.634 114.686 175.55C114.756 175.522 114.822 175.486 114.883 175.441C114.924 175.413 114.957 175.376 114.983 175.334C115.008 175.291 115.024 175.244 115.029 175.194C115.039 175.122 115.036 175.048 115.021 174.977C115.006 174.887 114.98 174.759 114.941 174.601C114.706 173.618 114.468 172.635 114.228 171.653C114.176 171.435 114.134 171.277 114.105 171.176C114.081 171.09 114.051 171.006 114.016 170.925C113.991 170.867 113.954 170.815 113.907 170.773C113.864 170.736 113.813 170.711 113.758 170.701C113.667 170.686 113.575 170.682 113.483 170.689C113.463 170.606 113.443 170.522 113.424 170.439C113.809 170.337 114.193 170.232 114.577 170.125L115.103 170.001C115.487 171.44 115.864 172.877 116.232 174.314Z" fill="black"/>
<path d="M118.643 174.608C118.749 174.563 118.841 174.492 118.91 174.4C118.952 174.326 118.969 174.241 118.96 174.156C118.938 173.987 118.899 173.82 118.845 173.658C118.675 173.078 118.504 172.497 118.331 171.917C118.303 171.817 118.266 171.72 118.222 171.626C118.194 171.563 118.151 171.509 118.096 171.467C118.044 171.43 117.982 171.408 117.919 171.403C117.833 171.395 117.747 171.395 117.662 171.403L117.587 171.148C117.977 171.034 118.367 170.917 118.758 170.796L119.292 170.643C119.573 171.526 119.851 172.409 120.127 173.294C120.17 173.434 120.206 173.542 120.236 173.621C120.257 173.679 120.281 173.736 120.31 173.791C120.33 173.827 120.354 173.86 120.383 173.89C120.41 173.918 120.441 173.943 120.475 173.962C120.519 173.984 120.567 173.997 120.616 174.002C120.688 174.01 120.761 174.01 120.833 174.002L120.912 174.248C120.179 174.466 119.445 174.669 118.711 174.858C118.69 174.774 118.666 174.691 118.643 174.608ZM118.794 169.199C118.892 169.503 118.988 169.807 119.086 170.111C118.698 170.223 118.309 170.332 117.922 170.438L117.644 169.521C118.027 169.421 118.41 169.314 118.794 169.199Z" fill="black"/>
<path d="M122.888 172.532C123.014 172.715 123.195 172.853 123.404 172.927C123.629 172.988 123.867 172.974 124.084 172.889C124.265 172.842 124.426 172.738 124.543 172.592C124.585 172.531 124.61 172.459 124.616 172.385C124.622 172.312 124.609 172.237 124.578 172.17C124.546 172.077 124.485 171.996 124.404 171.939C124.305 171.878 124.193 171.838 124.078 171.823C123.845 171.791 123.61 171.774 123.374 171.772C123.199 171.767 123.024 171.752 122.851 171.726C122.695 171.704 122.542 171.663 122.396 171.604C122.266 171.553 122.146 171.479 122.041 171.386C121.942 171.292 121.867 171.175 121.824 171.046C121.745 170.833 121.753 170.599 121.844 170.393C121.956 170.157 122.13 169.957 122.346 169.811C122.616 169.624 122.912 169.478 123.224 169.376C123.431 169.303 123.636 169.24 123.84 169.186C124.044 169.131 124.313 169.077 124.645 169.005L124.987 169.856L124.42 170.061C124.317 169.946 124.196 169.85 124.062 169.774C123.962 169.72 123.85 169.69 123.736 169.687C123.614 169.689 123.494 169.712 123.38 169.755C123.221 169.8 123.079 169.892 122.972 170.018C122.931 170.069 122.905 170.13 122.896 170.194C122.887 170.258 122.895 170.324 122.92 170.384C122.948 170.469 122.999 170.544 123.068 170.602C123.153 170.664 123.251 170.705 123.355 170.722C123.586 170.758 123.819 170.773 124.053 170.768C124.314 170.765 124.575 170.787 124.832 170.833C125.023 170.867 125.205 170.941 125.365 171.051C125.513 171.157 125.627 171.305 125.692 171.475C125.768 171.651 125.792 171.845 125.76 172.034C125.725 172.214 125.644 172.382 125.525 172.521C125.383 172.685 125.214 172.824 125.026 172.932C124.797 173.065 124.556 173.175 124.305 173.258C123.751 173.438 123.179 173.559 122.6 173.62L122.296 172.734C122.493 172.662 122.691 172.596 122.888 172.532Z" fill="black"/>
<path d="M129.369 169.408C128.686 169.698 128 169.976 127.313 170.241L126.987 169.48C127.666 169.214 128.343 168.939 129.019 168.654C129.136 168.905 129.253 169.157 129.369 169.408Z" fill="black"/>
<path d="M131.713 168.833C131.886 169.054 132.123 169.216 132.392 169.297C132.632 169.358 132.917 169.311 133.247 169.156C133.405 169.085 133.549 168.987 133.672 168.867C133.779 168.763 133.852 168.629 133.88 168.483C133.905 168.327 133.875 168.167 133.794 168.032C133.725 167.898 133.622 167.785 133.494 167.705C133.346 167.623 133.183 167.571 133.015 167.554C132.762 167.526 132.507 167.52 132.253 167.536C132.004 167.548 131.754 167.545 131.505 167.528C131.294 167.514 131.085 167.474 130.884 167.408C130.708 167.351 130.543 167.263 130.396 167.148C130.252 167.03 130.135 166.881 130.055 166.713C129.913 166.451 129.87 166.148 129.934 165.857C130.016 165.551 130.185 165.275 130.421 165.063C130.718 164.786 131.057 164.559 131.426 164.389C131.667 164.272 131.903 164.172 132.133 164.083C132.364 163.995 132.636 163.91 132.949 163.823C133.141 164.157 133.333 164.492 133.524 164.828C133.337 164.924 133.149 165.019 132.961 165.113C132.833 164.976 132.683 164.861 132.517 164.774C132.382 164.707 132.232 164.676 132.081 164.684C131.908 164.699 131.74 164.748 131.586 164.828C131.444 164.894 131.315 164.986 131.206 165.099C131.114 165.195 131.051 165.315 131.025 165.446C131.005 165.579 131.029 165.715 131.095 165.832C131.158 165.959 131.255 166.067 131.375 166.143C131.519 166.223 131.678 166.272 131.843 166.286C132.115 166.313 132.389 166.318 132.661 166.301C133.013 166.281 133.365 166.294 133.714 166.341C133.961 166.374 134.2 166.458 134.414 166.588C134.611 166.717 134.774 166.894 134.886 167.102C135.042 167.364 135.102 167.672 135.055 167.973C134.993 168.294 134.834 168.589 134.599 168.817C134.306 169.11 133.962 169.348 133.584 169.518C133.286 169.658 132.968 169.789 132.63 169.91C132.311 170.025 131.986 170.122 131.657 170.202C131.48 169.835 131.303 169.469 131.123 169.104L131.713 168.833Z" fill="black"/>
<path d="M138.639 165.704C138.702 165.813 138.775 165.915 138.856 166.01C138.902 166.06 138.959 166.098 139.023 166.119C139.087 166.141 139.156 166.145 139.222 166.132C139.334 166.112 139.444 166.079 139.549 166.034C139.595 166.109 139.643 166.183 139.691 166.258C138.92 166.7 138.145 167.128 137.365 167.541C137.321 167.466 137.275 167.39 137.232 167.314C137.308 167.251 137.377 167.181 137.439 167.105C137.483 167.053 137.509 166.989 137.512 166.921C137.512 166.848 137.495 166.776 137.463 166.711C137.418 166.615 137.368 166.521 137.312 166.431C136.717 165.445 136.117 164.462 135.512 163.481C135.446 163.372 135.386 163.286 135.335 163.216C135.292 163.155 135.237 163.105 135.172 163.068C135.112 163.037 135.044 163.022 134.975 163.027C134.878 163.034 134.781 163.051 134.688 163.08L134.55 162.854C135.327 162.435 136.1 162 136.87 161.548C137.54 161.156 138.108 160.953 138.581 160.949C138.81 160.944 139.035 160.997 139.237 161.104C139.439 161.211 139.61 161.369 139.734 161.561C139.932 161.823 140.036 162.144 140.031 162.473C140.013 162.811 139.886 163.134 139.668 163.394C139.376 163.742 139.02 164.032 138.619 164.248C138.349 164.403 138.125 164.525 137.948 164.615C138.18 164.978 138.41 165.341 138.639 165.704ZM137.706 164.235L138.063 164.031C138.291 163.913 138.493 163.75 138.657 163.554C138.774 163.408 138.83 163.224 138.815 163.039C138.783 162.811 138.693 162.594 138.554 162.411C138.432 162.213 138.264 162.047 138.065 161.926C137.903 161.836 137.716 161.803 137.533 161.832C137.312 161.873 137.101 161.956 136.91 162.074C136.723 162.183 136.58 162.267 136.482 162.329C136.892 162.96 137.3 163.596 137.706 164.235Z" fill="black"/>
<path d="M95.9999 4.2124C45.3062 4.2124 4.21191 45.3067 4.21191 96.0004C4.21191 146.694 45.3062 187.788 95.9999 187.788C146.694 187.788 187.788 146.693 187.788 96.0004C187.788 45.3078 146.693 4.2124 95.9999 4.2124ZM95.9999 183.574C47.6321 183.574 8.42278 144.365 8.42278 95.9982C8.42278 47.6315 47.6321 8.4211 95.9999 8.4211C144.368 8.4211 183.576 47.6304 183.576 95.9982C183.576 144.366 144.367 183.576 95.9999 183.576V183.574Z" fill="black"/>
<path d="M96 0C42.9805 0 0 42.9805 0 96C0 149.02 42.9805 192 96 192C149.02 192 192 149.02 192 96C192 42.9805 149.018 0 96 0ZM96 190.592C43.7587 190.592 1.40834 148.241 1.40834 96C1.40834 43.7587 43.7587 1.40834 96 1.40834C148.241 1.40834 190.594 43.7587 190.594 96C190.594 148.241 148.241 190.594 96 190.594V190.592Z" fill="black"/>
</g>
<defs>
<clipPath id="clip0_2_288">
<rect width="192" height="192" fill="white"/>
</clipPath>
</defs>
</svg>
