<svg id="Camada_1" data-name="Camada 1" xmlns="http://www.w3.org/2000/svg" viewBox="0 0 1764.12 1764.12"><defs><style>.cls-1{fill:#000001;}.cls-1,.cls-3{fill-rule:evenodd;}.cls-2{fill:none;stroke:#1f191a;stroke-miterlimit:22.93;stroke-width:0.57px;}.cls-3{fill:#1f191a;}.cls-4{stroke:#fff;stroke-miterlimit:10;}</style></defs><title>Prancheta 1xhdpi</title><g id="Logo"><path class="cls-1" d="M1268.65,888.35c5-4.74,6.48-5.63,15.71-6,1.62,10.51,5.88,19.75-2.68,26.75C1275.61,905,1270.5,895.28,1268.65,888.35Zm117.67,7.74c-.14-2.94,1.5-7.14,3-9.28s2.71-2.23,5.13-.26a31.76,31.76,0,0,1,8.33,11.24c2.32,5.26,3.39,11.77,3.82,19.62a93.58,93.58,0,0,1-1.74,25.65,61.25,61.25,0,0,1-9.69,21.9c-3.92,5.26-8,7.76-11.13,8.21s-5.38-1.16-5.14-2.68,3-2.94,5.91-5.22a30.27,30.27,0,0,0,8.48-9.77c2.32-4.37,3.77-10,5.18-15.21s2.76-10,2.9-15.61a74.53,74.53,0,0,0-1.79-16.1c-.87-4.19-1.55-6.24-2.66-7.4a3.85,3.85,0,0,0-3.83-1.07c-1.16.35-1.94,1.33-3.29,1a5.32,5.32,0,0,1-3.48-5Zm-19.51-144.8c13.53-5.44,17.39-13,28.7-18.34.79-.38,1.79-.67,3.44-1.54l36.64-20.81c18.1-9.52,19.75-16.48,36.31-3l14.33,23.3c-6.69,6.38-34.67,14.57-49.87,15.17C1420.5,746.67,1377.72,755.67,1366.81,751.29Zm15.46-28.52c-6.76,6.8-37.36,32.43-49.47,15-17.5-25.19,38.29-15.77,49.47-15Zm-10.2-17.86c10.37-10.37,34.39-12.61,51.7-14-2.3,6.2-14.29,14.73-21.13,18.33-6.24,3.28-7.9.7-15.48-.65Zm-40.38-57.42c11.22-7.27,51.39-7.78,65.72-10.56,12.4-2.42,47.68,0,59.37,1.05,17.29,1.64,37.4,8.27,53.72,13.08,45.17,13.31,68.32,37,23.73,57.22-39.56,18-33.12,9.22-41.62-.57-3.88-4.47-31.94-19.72-41.22-23.1-15.08-5.5-44.41-3.43-61-1.77,2.57-8.94,10.92-14.44,17.47-18.69,24.24-15.68,72.27-4.74,93.1-3.7-14.3-13.18-63.63-15.33-80.26-14.89C1373,646.82,1346.05,659,1331,660Zm-92-92.16c-9.45-4.86-30.91-16.19-35.39-16.7-12.89-1.5-15.55-3.48-24.53-3.28-12,.27-8.22,1-16.65,3.27L1123,542.36c-6-.63-10.11-4.17-15.28-5.71-7.73-2.3-33-.35-40.45,1.34a21.24,21.24,0,0,0-6.3,2.62,32.56,32.56,0,0,0-3.14,2.6c-10.82,7-35.74,18.37-65.65,56.45-.32.15-8.18,8.3-12.37,11.17C978.09,612.06,977,613,977,613c-3.14,2.7-1.53,2.91-8.19,2.54-30.48-1.69-26-8-42.65,7.8-33,31.42-8,14.07-29.09,60.62-5.61,12.4-13.77,18.08-14.38,20.67.56,17.2,24.54,35.93,32.87,48.17-2.23,3.56-14.34,15.22-18.34,18.75C877.44,789,891.51,780.4,875.69,782c-4.65,6.92-2.9,13-11.58,16.17-25.08,9.08-8-.32-23.62,16.24-41.13-23.88-22.77-14.27-66.58-34.66-16.06-7.47-19.31-8.55-38.55-12.66-13.66-2.91-27.48-5.52-40.54-8.49,0,7.23,132.38,43.43,145.83,91.76,2.37,8.52,11.5,56.63,13,59l1.1-2.38c.11-.36.32-.9.41-1.32s.19-1,.25-1.45a38.14,38.14,0,0,0-.22-6.32c-3.93-40.65-7.12-41.49,9.28-75.37,1.61,10.56.14,23.32,3.88,31.19,6.21-16.47,5.69-42.88,20.17-49.87,4,11.47,5.18,30,7,44.22,1.29,10.14,2.38,31.45,6.34,38.76a11.15,11.15,0,0,0,2.56,3.53c-1.89-40.81-11.54-39.22-.1-85.66,2.76-11.2,2.21-14,11-19.41L918,847.76c4.56-11.54,4.89-27.55,5.81-41.14,1.2-17.64,6.17-24.25,9-38,7.41,3.23,13.26,8,21.23,11.13,10.08,3.92,22,4.76,26.34,6.9C974.3,879.54,969,867.22,1002.48,960c5.73,15.89,14.16,30.49,20.57,47,12.84,33.08,23.23,67.34,36.53,100.26,16.28,40.32,13.15,41.89,35.07,83.69,4.17,7.93,1.48,6.61,9.21,7.71,2-5.42-13.49-43.19-16-55.11-2.22-10.31-3-22.09-5.89-31.88-15.88-54.74-22.84-82.57-53.71-132.65-30.12-48.88-40.88-128.25-31.17-186.92,7.38-44.63,12.46-39,16.6-56.52-7.87,2.56-26.58,29.26-31.25,36.75-31.36.1-30-2.72-43.76-21.22C898.26,697,902,715.92,918.1,672.92c7.21-19.28,8.75-26.45,18.74-41.28,24.54.43,25-1,43,10.21,6.36,4,7.42,9,12.25,13.77l13.29,12.26c-1-8.2-3-16-4.63-23.91-7.29-35,8.53-20.42,17.25-18.81l-7-12.94c5.75-3,15.55-10,20.64-13.71l21.55-19A254.13,254.13,0,0,1,1074.72,564c13.22-8.07,63.3-2.44,89.19,20.77,16.62,14.89,20.47,35.7,29,43.38-10.61-58.44-48.08-56.6-55.14-73.24,21.15-10.78,74.5,1.65,92.17,11.84,5.67,3.27,11.82,7.72,17,11.09,14.26,9.22,32.68,25.86,44.38,37.6,4.74,4.76,7.44,9.86,12.43,15.3,26.83,29.25,21.58,31.14,15.25,54.82-16.87,63.06,3.62,61,7.93,87.55-15-3.51-26.06-32.44-32.92-45-1.65,21.75,29.54,77.47,41.13,93.22l29,37.76c17,25.12-57.69-5.25-79.06.45-46.38,12.36-22.69,35.63-16,47.5,4,7.09,15.65,19.7,13.3,28.34-3.38,12.41-13.79,14-24.37,20.54-7.81,4.81-20.06,15.25-27.38,17.81-13,4.54-17.15-3.4-21-8.16l-6.37-6c7.59,38.72,43,18.74,67.64,10,29-10.36,59.22-4.73,86.6,4.53-3.57,7.56-14.25,15-25.56,16.28l-2.7-12c-13.94,4.21-7.55,16-30.15,17.43-13.3.87-33.18-8.49-40-5,3.27,7.7,18.83,9.82,25.74,15.37-12.74,20.35-14.15,10-27.71,39.93s-18.67,73.26-23.33,107c-2.51,18.16-6.76,32.85-10.24,49.89H1242c5.2-19.33,11.73-41.84,15.71-61.82,8.47-42.57,12.71-89.9,47.07-120.89,13.83-12.47,39.87-4.36,62.13-23.1,18.84-15.87,16.16-3,32.2-11.35,33.65-17.5,25.78-63.94,16.86-92.66-8.62-27.71-18.46-33.15-33.91-50.85-13.11-15-48.72-57.62-5-73.16,32.71-11.64,74.46-6.64,109.2-16.65,17.94-5.17,45.63-21,56.4-28.43,36.91-25.5,37.53-41.61,15.49-68.67-4.68-5.74-15.47-10.55-23.72-15.06-22.91-12.52-28.41-14.84-58.24-18.52-18.44-2.27-59.2-5.23-77.87-2-10.22,1.79-27.79,3.61-38.09,5.23-12.55,2-28.19,3.23-38.21,4.56-12.84-17.3-17.94-20.48-22.45-25.91-1.5-1.79-6.24-6.24-12.48-13.22-4.93-5.52-11.52-12.43-12.73-13.45-17.91-14.94-20.09-14.24-34.63-21.72Z" transform="translate(-251.8 -251.8)"/><path class="cls-1" d="M1172.88,1179.28c1.32-15.39-3.41-44.5-5.46-60.71-2.16-17.14-9.92-35.43-15.77-51.54-5.51-15.2-43-67.74-54.55-83.59-10.83-14.8-43.48-70.46-48.45-89.33-10.67-40.53-15-76-15.37-120.17-12.82,28.54-6.55,90.1,2.07,120,24.1,83.79,79,118.79,101.55,181.25Z" transform="translate(-251.8 -251.8)"/><path class="cls-2" d="M1172.88,1179.28c1.32-15.39-3.41-44.5-5.46-60.71-2.16-17.14-9.92-35.43-15.77-51.54-5.51-15.2-43-67.74-54.55-83.59-10.83-14.8-43.48-70.46-48.45-89.33-10.67-40.53-15-76-15.37-120.17-12.82,28.54-6.55,90.1,2.07,120,24.1,83.79,79,118.79,101.55,181.25Z" transform="translate(-251.8 -251.8)"/><path class="cls-1" d="M925.3,706c3.61-4.8,2.3-12.8,4.16-19,15.72-7.67,12.88-.67,13-.28.55,1.84.19,4.8.41,6.89,1,9.95,5.84,9.85,12.73,16.87,10.15,10.34,9.79,26.69,21.94,34.58-1.31-8.74-9.76-28.63,8.82-25.4,5.26.92,16.31,10.34,27.36-11.54,10.48,1.93,10.5,6.59,12.55,17.54,1.91,10.22.22,17.75,1.68,26.8l2.93-26.6c-.81-18.08-5.58-14.3-8-23.84-2-7.94,1.65-18.75.72-27.5-.78-7.3-5.64-15.55-6.15-22.86-1.87,14.82,1.59,28.8-.8,45.8l-22.87-29.27c-4.06-4.54-9.08-8-12.71-13.24-9.06-13-18.86-14.4-38.13-5.67-8.77,4-9.23,4-11.79,14.17C928.36,674.47,918.89,696.63,925.3,706Z" transform="translate(-251.8 -251.8)"/><path class="cls-2" d="M925.3,706c3.61-4.8,2.3-12.8,4.16-19,15.72-7.67,12.88-.67,13-.28.55,1.84.19,4.8.41,6.89,1,9.95,5.84,9.85,12.73,16.87,10.15,10.34,9.79,26.69,21.94,34.58-1.31-8.74-9.76-28.63,8.82-25.4,5.26.92,16.31,10.34,27.36-11.54,10.48,1.93,10.5,6.59,12.55,17.54,1.91,10.22.22,17.75,1.68,26.8l2.93-26.6c-.81-18.08-5.58-14.3-8-23.84-2-7.94,1.65-18.75.72-27.5-.78-7.3-5.64-15.55-6.15-22.86-1.87,14.82,1.59,28.8-.8,45.8l-22.87-29.27c-4.06-4.54-9.08-8-12.71-13.24-9.06-13-18.86-14.4-38.13-5.67-8.77,4-9.23,4-11.79,14.17C928.36,674.47,918.89,696.63,925.3,706Z" transform="translate(-251.8 -251.8)"/><path class="cls-1" d="M960.18,827.25c-10.07,38.39-11.63,47.8-3.94,87.92,7.92,41.29,4.24,41.15,24.38,79.23,11.73,22.18,22.58,47.2,33.24,71.05l28.41,75.56c2.45-6.86-12-70.13-15.74-80-9.18-24.47-18-49-28.3-72.08-16.92-37.87-17.78-34.41-26.19-74-2.83-13.33-7.2-29.08-8.16-42.54S966.27,838.18,960.18,827.25Z" transform="translate(-251.8 -251.8)"/><path class="cls-2" d="M960.18,827.25c-10.07,38.39-11.63,47.8-3.94,87.92,7.92,41.29,4.24,41.15,24.38,79.23,11.73,22.18,22.58,47.2,33.24,71.05l28.41,75.56c2.45-6.86-12-70.13-15.74-80-9.18-24.47-18-49-28.3-72.08-16.92-37.87-17.78-34.41-26.19-74-2.83-13.33-7.2-29.08-8.16-42.54S966.27,838.18,960.18,827.25Z" transform="translate(-251.8 -251.8)"/><path class="cls-1" d="M1066.77,681.91c-34.17,7.24,15.69,60,72.19,45.64l-34.36-34.47c-7.33-8.32-21.56-23-37.19-27.09C1063.9,671.58,1065.73,675.25,1066.77,681.91Zm8,4.07c4.25,0,7.7,3.18,7.7,7.1s-3.45,7.09-7.7,7.09-7.7-3.18-7.7-7.09,3.44-7.08,7.69-7.08Z" transform="translate(-251.8 -251.8)"/><path class="cls-2" d="M1066.77,681.91c-34.17,7.24,14.43,59.77,72.19,45.64l-34.36-34.47c-7.41-9.55-27.75-25.94-37.19-27.09C1063.9,671.58,1065.73,675.25,1066.77,681.91Zm8,4.07c4.25,0,7.7,3.18,7.7,7.1s-3.45,7.09-7.7,7.09-7.7-3.18-7.7-7.09,3.44-7.08,7.69-7.08Z" transform="translate(-251.8 -251.8)"/><path class="cls-1" d="M1215,1203c6.8-13.49.43-32.13.91-47,1.2-36.58,27.32-85,35.26-123-6.08,4.34-4.72,6.53-9,17.11-2.43,6-4.48,11-6.9,16.82-4.64,11.11-9.12,22.53-13.8,33.68-20.89,49.74-12,23.45-21.23,75.06-3.7,1.84-7.57,3.6-11.32,5.5-.73,10.06,5,19.13,14.56,21.87Z" transform="translate(-251.8 -251.8)"/><path class="cls-2" d="M1215,1203c6.8-13.49.43-32.13.91-47,1.2-36.58,27.32-85,35.26-123-6.08,4.34-4.72,6.53-9,17.11-2.43,6-4.48,11-6.9,16.82-4.64,11.11-9.12,22.53-13.8,33.68-20.89,49.74-12,23.45-21.23,75.06-3.7,1.84-7.57,3.6-11.32,5.5-.73,10.06,5,19.13,14.56,21.87Z" transform="translate(-251.8 -251.8)"/><path class="cls-1" d="M1082.64,902.27c-1.83-3.64-3-6.28-4.84-9.83l-5.71-8.09c.81,7.75,27,66.84,32.47,78,6.18,12.57,14.68,21.62,22.83,32.44,5,6.67,16,26.7,24.46,29.14-1.58-11.1-10.92-16.85-11.56-30.27,13.61,0,41.62-3.42,55-8.18,5.38-1.91,2.6-.88,4.71-2.53-7.67-3.17-29.49,6.61-51.78-2-14.38-5.52-28-11.72-35.33-22.84Z" transform="translate(-251.8 -251.8)"/><path class="cls-2" d="M1082.64,902.27c-1.83-3.64-3-6.28-4.84-9.83l-5.71-8.09c.81,7.75,27,66.84,32.47,78,6.18,12.57,14.68,21.62,22.83,32.44,5,6.67,16,26.7,24.46,29.14-1.58-11.1-10.92-16.85-11.56-30.27,13.61,0,41.62-3.42,55-8.18,5.38-1.91,2.6-.88,4.71-2.53-7.67-3.17-29.49,6.61-51.78-2-14.38-5.52-28-11.72-35.33-22.84Z" transform="translate(-251.8 -251.8)"/><path class="cls-1" d="M1231.21,713.4c-3.71-19.63-58.54-70.86-65.71-82-2.51-3.91-5.54-12.57-9.3-9.07-2.22,2.07,9.55,20.83,12.06,26.17,16.22,34.54,6,11.76,41.16,44.19a100.15,100.15,0,0,1,9.87,10.52C1228.63,714.05,1225.72,712,1231.21,713.4Z" transform="translate(-251.8 -251.8)"/><path class="cls-2" d="M1231.21,713.4c-3.71-19.63-58.54-70.86-65.71-82-2.51-3.91-5.54-12.57-9.3-9.07-2.22,2.07,9.55,20.83,12.06,26.17,16.22,34.54,6,11.76,41.16,44.19a100.15,100.15,0,0,1,9.87,10.52C1228.63,714.05,1225.72,712,1231.21,713.4Z" transform="translate(-251.8 -251.8)"/><path class="cls-1" d="M1544.46,697c9-15.14-9.27-22.13-22-23.57,3,7.78,5.33,1.3,14.48,19.21C1540.7,699.94,1535.66,697.23,1544.46,697Z" transform="translate(-251.8 -251.8)"/><path class="cls-2" d="M1544.46,697c9-15.14-9.27-22.13-22-23.57,3,7.78,5.33,1.3,14.48,19.21C1540.7,699.94,1535.66,697.23,1544.46,697Z" transform="translate(-251.8 -251.8)"/><path class="cls-3" d="M1178.16,763.08c1.93,3.3,8.13,10.44,13.85,19.36a224.1,224.1,0,0,1,14.62,27.83c3.68,8.21,5.81,13.92,7,15.44s1.36-1.16.39-7.14-3.1-15.26-4.94-22-3.39-11.06-6.49-15.61A73.62,73.62,0,0,0,1191,768.21a40.45,40.45,0,0,0-9.68-6.6C1178.54,760.32,1176.22,759.78,1178.16,763.08Z" transform="translate(-251.8 -251.8)"/><path class="cls-2" d="M1178.16,763.08c1.93,3.3,8.13,10.44,13.85,19.36a224.1,224.1,0,0,1,14.62,27.83c3.68,8.21,5.81,13.92,7,15.44s1.36-1.16.39-7.14-3.1-15.26-4.94-22-3.39-11.06-6.49-15.61A73.62,73.62,0,0,0,1191,768.21a40.45,40.45,0,0,0-9.68-6.6C1178.54,760.32,1176.22,759.78,1178.16,763.08Z" transform="translate(-251.8 -251.8)"/><path class="cls-3" d="M1231.71,588.68c0,2.77,1.45,10,1.89,16s-.15,10.7.24,13.16,1.75,2.63,3,2.18,2.27-1.51,2.71-4.55a42.7,42.7,0,0,0-.68-12.71,48.38,48.38,0,0,0-4.12-12.09C1233.16,587.61,1231.71,585.91,1231.71,588.68Z" transform="translate(-251.8 -251.8)"/><path class="cls-2" d="M1231.71,588.68c0,2.77,1.45,10,1.89,16s-.15,10.7.24,13.16,1.75,2.63,3,2.18,2.27-1.51,2.71-4.55a42.7,42.7,0,0,0-.68-12.71,48.38,48.38,0,0,0-4.12-12.09C1233.16,587.61,1231.71,585.91,1231.71,588.68Z" transform="translate(-251.8 -251.8)"/><path class="cls-3" d="M938,712.46c.43,2.45,3,7.89,5.23,12.89s4.31,9.54,6.34,13.74,4.07,8,5.47,10.61,2.18,3.93,3,4.37,1.55,0,1.94-1.38a16.52,16.52,0,0,0,0-6.11,51.28,51.28,0,0,0-1.7-7.23,27.19,27.19,0,0,0-2.85-7c-1.5-2.49-3.83-5.35-5.91-8.16s-3.92-5.57-5.33-7.76-2.37-3.79-3.68-4.86S937.6,710,938,712.46Z" transform="translate(-251.8 -251.8)"/><path class="cls-2" d="M938,712.46c.43,2.45,3,7.89,5.23,12.89s4.31,9.54,6.34,13.74,4.07,8,5.47,10.61,2.18,3.93,3,4.37,1.55,0,1.94-1.38a16.52,16.52,0,0,0,0-6.11,51.28,51.28,0,0,0-1.7-7.23,27.19,27.19,0,0,0-2.85-7c-1.5-2.49-3.83-5.35-5.91-8.16s-3.92-5.57-5.33-7.76-2.37-3.79-3.68-4.86S937.6,710,938,712.46Z" transform="translate(-251.8 -251.8)"/><path d="M1528.76,1233.14a15.78,15.78,0,0,0,.24,3.22,3.48,3.48,0,0,0,2.59,2.83,13.3,13.3,0,0,0,2.87.59c1.15.13,2.67.23,4.56.28v3.34h-31.73v-3.34a51.53,51.53,0,0,0,5.82-.5,7,7,0,0,0,2.67-.94,3.56,3.56,0,0,0,1.34-1.76,11.7,11.7,0,0,0,.42-3.72v-26.58a3.29,3.29,0,0,0-.57-2.17,2,2,0,0,0-1.56-.66,6.24,6.24,0,0,0-2.59.85,55.05,55.05,0,0,0-5.5,3.45l-2.24-3.89,19.19-11.51H1529c-.15,2.35-.23,5.61-.22,9.78Z" transform="translate(-251.8 -251.8)"/><path d="M1557.66,1241.82v-2.65a20.35,20.35,0,0,0,4.19-.44,15.74,15.74,0,0,0,4-1.41,13.43,13.43,0,0,0,3.33-2.41,16.08,16.08,0,0,0,2.94-4A22,22,0,0,0,1574,1226a39.53,39.53,0,0,0,1-5.51l-.36-.15a19.29,19.29,0,0,1-12.14,3.72,13.79,13.79,0,0,1-7.37-1.86,11.59,11.59,0,0,1-4.54-5.18,18.74,18.74,0,0,1-1.51-7.78,16.71,16.71,0,0,1,2.3-8.73,15,15,0,0,1,6.6-5.9,23.23,23.23,0,0,1,10.19-2.06,19,19,0,0,1,10,2.44,14.79,14.79,0,0,1,6.06,7.12,28.45,28.45,0,0,1,2,11.28,36.64,36.64,0,0,1-3.13,15.85,23.73,23.73,0,0,1-9.1,10.33,31.29,31.29,0,0,1-14.43,4.34Zm9.12-22.72a12.1,12.1,0,0,0,2.54-.26,8.77,8.77,0,0,0,2.22-.79,9.76,9.76,0,0,0,2-1.29,5.55,5.55,0,0,0,1.19-1.23,4.54,4.54,0,0,0,.5-1.39,12.29,12.29,0,0,0,.2-2.5q0-7.22-1.93-11.05c-1.28-2.56-3.17-3.84-5.64-3.84a7.4,7.4,0,0,0-3.66.84,6.79,6.79,0,0,0-2.43,2.39,11.11,11.11,0,0,0-1.34,3.7,25.79,25.79,0,0,0-.4,4.72Q1560,1219.09,1566.78,1219.1Z" transform="translate(-251.8 -251.8)"/><path d="M1632.89,1195.64l-20.4,47.87H1605V1241l18.45-37.4v-.6H1607a10.91,10.91,0,0,0-2.61.26,3.65,3.65,0,0,0-1.61.83,4.17,4.17,0,0,0-1,1.49,19,19,0,0,0-.82,2.86h-4.27l1-15.25h35.22Z" transform="translate(-251.8 -251.8)"/><path d="M1644.26,1241.12v-9.19h6.65a12,12,0,0,0,2.94,6,7.18,7.18,0,0,0,5.22,2c2.67,0,4.65-.83,5.92-2.48s1.91-4.21,1.91-7.67-.82-6-2.46-7.79-4-2.68-7.13-2.68a25.19,25.19,0,0,0-3.88.33,29,29,0,0,0-3.7.81l-3.3-2.06v-25.11h21.72a7.46,7.46,0,0,0,2-.19,2.23,2.23,0,0,0,1-.62,5.93,5.93,0,0,0,.88-1.62h4l-.74,11.73h-22.57v13.23a30.14,30.14,0,0,1,4.5-1,42.56,42.56,0,0,1,5.64-.31,18,18,0,0,1,8,1.69,12.4,12.4,0,0,1,5.33,4.91,14.68,14.68,0,0,1,1.9,7.55,15.12,15.12,0,0,1-2.28,8.51,13.69,13.69,0,0,1-6.59,5.15A27.82,27.82,0,0,1,1659,1244a42.41,42.41,0,0,1-7.87-.77A30.52,30.52,0,0,1,1644.26,1241.12Z" transform="translate(-251.8 -251.8)"/><path d="M605.48,1185.91a45.87,45.87,0,0,1,10.25,1,22.87,22.87,0,0,1,7.32,3,18.16,18.16,0,0,1,5.17,4.9,20.45,20.45,0,0,1,2.92,6.62,34.87,34.87,0,0,1,1,8.51,36.2,36.2,0,0,1-1.34,10.3,21.71,21.71,0,0,1-4,7.79,19.51,19.51,0,0,1-5.87,4.78,26,26,0,0,1-8,2.65,59.73,59.73,0,0,1-9.82.66H586.36v-2.43a9.74,9.74,0,0,0,2.15-.79,2.75,2.75,0,0,0,1.17-1.17,5.1,5.1,0,0,0,.5-1.92c.07-.77.11-1.74.11-2.92V1195.2q0-1.73-.09-2.91a4.9,4.9,0,0,0-.48-1.91,2.94,2.94,0,0,0-1.18-1.19,9,9,0,0,0-2.18-.83v-2.43Zm-3.79,45.74a28.67,28.67,0,0,0,3.34.11,17.4,17.4,0,0,0,6.81-1.17,10.22,10.22,0,0,0,3.49-2.43,16.21,16.21,0,0,0,3.6-6.58,38,38,0,0,0,1.32-10.77,31,31,0,0,0-1.87-11.6,14,14,0,0,0-5.28-6.81,14.76,14.76,0,0,0-8.14-2.18c-1.52,0-2.61,0-3.27.07Z" transform="translate(-251.8 -251.8)"/><path d="M677.69,1185.91v11.7h-5a22.08,22.08,0,0,0-2.06-4.73,6.58,6.58,0,0,0-2-2,8.21,8.21,0,0,0-4-.71h-8v17.64h4.85a5.68,5.68,0,0,0,2.54-.46,3.6,3.6,0,0,0,1.52-1.52,13.43,13.43,0,0,0,1.16-3.31h4.16v14.93H666.7a13.43,13.43,0,0,0-1.14-3.26,4,4,0,0,0-1.49-1.6,5.61,5.61,0,0,0-2.59-.47h-4.85v19.63h8a12.14,12.14,0,0,0,2.17-.17,5,5,0,0,0,1.58-.57,5.92,5.92,0,0,0,1.34-1.1,9.8,9.8,0,0,0,1.14-1.51,16.53,16.53,0,0,0,1-2.13,36.09,36.09,0,0,0,1.21-3.64h5l-.7,13.42H641.22v-2.43a9.74,9.74,0,0,0,2.15-.79,2.75,2.75,0,0,0,1.17-1.17,5.1,5.1,0,0,0,.5-1.92c.07-.77.11-1.74.11-2.92v-31.69q0-1.73-.09-2.91a4.9,4.9,0,0,0-.48-1.91,2.94,2.94,0,0,0-1.18-1.19,9,9,0,0,0-2.18-.83v-2.43Z" transform="translate(-251.8 -251.8)"/><path d="M691.11,1223.71a12.82,12.82,0,0,0,3.07,6.53q2.16,2.15,6.31,2.15a9.84,9.84,0,0,0,3.9-.74,6.08,6.08,0,0,0,2.77-2.37,7.48,7.48,0,0,0,1.05-4.1,8.66,8.66,0,0,0-.85-4,9.79,9.79,0,0,0-2.72-3.18,30.69,30.69,0,0,0-5.22-3.2,46.79,46.79,0,0,1-5.18-3,20,20,0,0,1-4-3.4,13.58,13.58,0,0,1-1.2-16.71,13.81,13.81,0,0,1,6.49-4.8,27.27,27.27,0,0,1,9.84-1.63,52.14,52.14,0,0,1,6.25.35,62.49,62.49,0,0,1,6.8,1.23v10.66h-5a15.32,15.32,0,0,0-1.78-4.61,6.89,6.89,0,0,0-2.7-2.52,10.38,10.38,0,0,0-7.84-.08,6,6,0,0,0-2.61,2.19,6.34,6.34,0,0,0-1,3.51,7.69,7.69,0,0,0,.83,3.7,9.57,9.57,0,0,0,2.77,3,39.12,39.12,0,0,0,5.66,3.4,37.39,37.39,0,0,1,7.12,4.61A13.66,13.66,0,0,1,719,1222a14.43,14.43,0,0,1-2.09,7.84,13.39,13.39,0,0,1-6.11,5.12,22.8,22.8,0,0,1-9.26,1.78c-2.61,0-5.22-.15-7.81-.42a65.55,65.55,0,0,1-7.63-1.24v-11.32Z" transform="translate(-251.8 -251.8)"/><path d="M746.09,1185.91a45.87,45.87,0,0,1,10.25,1,22.87,22.87,0,0,1,7.32,3,18.16,18.16,0,0,1,5.17,4.9,20.45,20.45,0,0,1,2.92,6.62,34.33,34.33,0,0,1,1,8.51,36.2,36.2,0,0,1-1.34,10.3,21.71,21.71,0,0,1-4,7.79,19.51,19.51,0,0,1-5.87,4.78,26,26,0,0,1-8,2.65,59.73,59.73,0,0,1-9.82.66H727v-2.43a9.74,9.74,0,0,0,2.15-.79,2.75,2.75,0,0,0,1.17-1.17,5.1,5.1,0,0,0,.5-1.92c.07-.77.11-1.74.11-2.92V1195.2q0-1.73-.09-2.91a4.9,4.9,0,0,0-.48-1.91,2.94,2.94,0,0,0-1.18-1.19,9,9,0,0,0-2.18-.83v-2.43Zm-3.79,45.74a28.67,28.67,0,0,0,3.34.11,17.4,17.4,0,0,0,6.81-1.17,10.22,10.22,0,0,0,3.49-2.43,16.21,16.21,0,0,0,3.6-6.58,38,38,0,0,0,1.33-10.77,31,31,0,0,0-1.88-11.6,14,14,0,0,0-5.28-6.81,14.76,14.76,0,0,0-8.14-2.18c-1.52,0-2.61,0-3.27.07Z" transform="translate(-251.8 -251.8)"/><path d="M818.3,1185.91v11.7h-5a22.08,22.08,0,0,0-2.06-4.73,6.58,6.58,0,0,0-2-2,8.21,8.21,0,0,0-4-.71h-8v17.64H802a5.68,5.68,0,0,0,2.54-.46,3.6,3.6,0,0,0,1.52-1.52,13.43,13.43,0,0,0,1.16-3.31h4.16v14.93h-4.16a13.43,13.43,0,0,0-1.14-3.26,4,4,0,0,0-1.49-1.6,5.61,5.61,0,0,0-2.59-.47h-4.85v19.63h8a12.14,12.14,0,0,0,2.17-.17,4.91,4.91,0,0,0,1.58-.57,5.92,5.92,0,0,0,1.34-1.1,9.8,9.8,0,0,0,1.14-1.51,16.53,16.53,0,0,0,1-2.13,36.09,36.09,0,0,0,1.21-3.64h5l-.7,13.42H781.83v-2.43a9.74,9.74,0,0,0,2.15-.79,2.75,2.75,0,0,0,1.17-1.17,5.1,5.1,0,0,0,.5-1.92c.07-.77.11-1.74.11-2.92v-31.69q0-1.73-.09-2.91a4.9,4.9,0,0,0-.48-1.91,2.94,2.94,0,0,0-1.18-1.19,9,9,0,0,0-2.18-.83v-2.43Z" transform="translate(-251.8 -251.8)"/><path d="M612.47,1640.86v-6.25a24.51,24.51,0,0,0,6.29-1.75,7.45,7.45,0,0,0,3.46-3.08,12.46,12.46,0,0,0,1.42-5.06c.19-2,.28-4.6.28-7.63v-94.4h-7.67a22.47,22.47,0,0,0-8.71,1.32,13.54,13.54,0,0,0-5.25,4.17,25.31,25.31,0,0,0-3.84,7.62c-1.07,3.19-2,6.2-2.65,9h-13v-33.23H694.28v33.23h-13q-1.8-6.43-2.84-9.47a28.78,28.78,0,0,0-2.32-5.16,18.28,18.28,0,0,0-2.7-3.55,13,13,0,0,0-3-2.27,13.75,13.75,0,0,0-4-1.28,39,39,0,0,0-6.29-.42h-6.82v94.4q0,3.83.28,7.63a13.56,13.56,0,0,0,1,4.21,8.23,8.23,0,0,0,1.85,2.6,10.07,10.07,0,0,0,3,1.8,22.09,22.09,0,0,0,5.26,1.28v6.25Z" transform="translate(-251.8 -251.8)"/><path d="M764.64,1640.86H714.92v-6.25a27.37,27.37,0,0,0,5.54-2,7,7,0,0,0,3-3,13.63,13.63,0,0,0,1.28-4.93q.28-3,.29-7.53v-81.62c0-3-.08-5.47-.24-7.48a13,13,0,0,0-1.23-4.93,7.7,7.7,0,0,0-3-3.07,23.31,23.31,0,0,0-5.64-2.13v-6.25h55.21a98.4,98.4,0,0,1,19,1.56A48.1,48.1,0,0,1,802.8,1518a28.51,28.51,0,0,1,8.33,6.68,29,29,0,0,1,5.26,9.37,38.12,38.12,0,0,1,1.84,12.45,35.77,35.77,0,0,1-3.26,15.91,31.84,31.84,0,0,1-8.81,11,62.88,62.88,0,0,1-14.82,8.29v1a33.17,33.17,0,0,1,11.6,8.09,53.18,53.18,0,0,1,8.29,12.83l6,12.88q4,8.63,7.91,12.93a16.14,16.14,0,0,0,9.32,5.25v6.25H798q-5.49-7.58-12.41-22.54l-7.38-16.19a56.41,56.41,0,0,0-5.68-10.22,13.55,13.55,0,0,0-4.88-4.17c-1.67-.76-4.25-1.14-7.72-1.14h-5.49v30.49a50.71,50.71,0,0,0,.66,10,8.53,8.53,0,0,0,2.56,4.54q1.89,1.71,7,3Zm-10.23-118v52.64h9.37a32.86,32.86,0,0,0,12.5-2,19,19,0,0,0,7.82-5.68,20.84,20.84,0,0,0,4-8.57,49.61,49.61,0,0,0,1.09-10.8q0-12.87-6.06-19.32t-18-6.43q-8.13,0-10.72.18Z" transform="translate(-251.8 -251.8)"/><path d="M889.32,1617.09c0,2.21.06,4.27.19,6.16a20.25,20.25,0,0,0,.75,4.64,8.19,8.19,0,0,0,1.66,3,9.18,9.18,0,0,0,3,2.13,23.67,23.67,0,0,0,4.64,1.56v6.25H849.83v-6.25a28,28,0,0,0,5.54-2,7,7,0,0,0,3-3,13.83,13.83,0,0,0,1.28-4.93c.19-2,.29-4.51.28-7.53V1535.4c0-3-.08-5.53-.23-7.48a12.88,12.88,0,0,0-1.24-4.87,7.25,7.25,0,0,0-3-3.08,24.58,24.58,0,0,0-5.63-2.08v-6.25h49.71v6.25a21.36,21.36,0,0,0-5.73,2.22A8.1,8.1,0,0,0,891,1523a12.87,12.87,0,0,0-1.33,4.45,64.83,64.83,0,0,0-.37,8Z" transform="translate(-251.8 -251.8)"/><path d="M992.2,1600.81H951.77l-3.13,9a75.28,75.28,0,0,0-2.17,7.34,32.34,32.34,0,0,0-.86,7.53q0,9.28,9.85,9.94v6.25H915v-6.25a11.75,11.75,0,0,0,6.15-2.46,20.73,20.73,0,0,0,4.83-5.68,62,62,0,0,0,4.64-10.32L970.11,1511h25.28l31.28,106a76,76,0,0,0,3.5,10.08,13.58,13.58,0,0,0,3.7,4.83,14.75,14.75,0,0,0,6.34,2.7v6.25H987.94v-6.25q4.92-.57,7.29-2.74a8,8,0,0,0,2.37-6.16,35.79,35.79,0,0,0-.66-6.53c-.45-2.4-1.17-5.43-2.18-9.09Zm-1-129,21.4,23.76-6.72,6.35-22.54-15.82h-1L959.53,1502l-6.53-6.4,21.68-23.76ZM955.41,1589.7H989.5l-15.15-53.31Z" transform="translate(-251.8 -251.8)"/><path d="M1172,1511.61v6.25a34.05,34.05,0,0,0-5.35,2.08,8.39,8.39,0,0,0-2.65,2.27,10.53,10.53,0,0,0-1.66,4.31,50.43,50.43,0,0,0-.57,8.85v105.49h-24l-42.61-73.67q-8.62-15-12.69-23.48h-.85q.95,20.36.94,43v30.49a47.3,47.3,0,0,0,.71,9.94,8.76,8.76,0,0,0,2.56,4.5c1.23,1.1,3.55,2.1,7,3v6.25H1057v-6.25a25,25,0,0,0,5.54-2.08,7.42,7.42,0,0,0,3-3.08,13.36,13.36,0,0,0,1.27-4.88q.29-2.92.29-7.38v-81.91a51,51,0,0,0-.62-9.8,8.6,8.6,0,0,0-2.55-4.5c-1.33-1.2-3.67-2.24-7-3.12v-6.25h38.35l33.52,58.23q3.12,5.49,8.14,14.87t8.9,17.71h1.52q-1-22.64-1-49.43V1535.4a57.6,57.6,0,0,0-.48-8.9,10.31,10.31,0,0,0-1.46-4.16,8.06,8.06,0,0,0-2.66-2.37,27.4,27.4,0,0,0-5.54-2.08v-6.25Z" transform="translate(-251.8 -251.8)"/><path d="M1289.05,1515.11V1542h-13a44.69,44.69,0,0,0-5-12.26,17.56,17.56,0,0,0-7.2-6.44,28.33,28.33,0,0,0-27.88,3.6q-7.2,5.73-11.37,18.27t-4.16,31.77a129.71,129.71,0,0,0,2.79,28.74q2.79,12.18,8.52,18.89a17.88,17.88,0,0,0,14.16,6.73q8.33,0,12.31-5t4-15.86v-3.6a76.76,76.76,0,0,0-.48-10.28,11.82,11.82,0,0,0-1.46-4.59,7.88,7.88,0,0,0-2.61-2.46,29.61,29.61,0,0,0-5.68-2.18v-6.25h48.48v6.25q-4.73,1.43-6.44,3.22a9.58,9.58,0,0,0-2.32,4.78,44.37,44.37,0,0,0-.61,8.38v35.7l-13.64,2.84-6.44-6.82a48.39,48.39,0,0,1-25.85,6.92q-27.64,0-41.24-16.15t-13.58-48.91q0-17.24,4.82-30.3t13.4-21.26a53.19,53.19,0,0,1,19.32-11.93,69.82,69.82,0,0,1,23.06-3.74A136.67,136.67,0,0,1,1289.05,1515.11Z" transform="translate(-251.8 -251.8)"/><path d="M1403.82,1535.37a53.65,53.65,0,0,0-.61-9.89,8.68,8.68,0,0,0-2.42-4.5c-1.2-1.13-3.53-2.18-7-3.12v-6.25h41.67v6.25a26.53,26.53,0,0,0-5.4,2,7.47,7.47,0,0,0-3,3,13,13,0,0,0-1.32,4.93q-.29,3-.29,7.52v59.19a86.51,86.51,0,0,1-1.89,19.65,36.61,36.61,0,0,1-5.87,13.3,30.89,30.89,0,0,1-9.9,8.71,44.33,44.33,0,0,1-13.3,4.74,88.51,88.51,0,0,1-16.57,1.42q-13.45,0-22.73-2.8a36.3,36.3,0,0,1-15.1-8.42,34.37,34.37,0,0,1-8.62-13.69q-2.79-8-2.79-20.73v-61.27c0-3-.08-5.47-.24-7.48a13,13,0,0,0-1.23-4.93,7.7,7.7,0,0,0-3-3.07,23.31,23.31,0,0,0-5.64-2.13v-6.25h49.72v6.25a21.36,21.36,0,0,0-5.73,2.22,8.24,8.24,0,0,0-2.8,2.89,12.86,12.86,0,0,0-1.32,4.45,64.83,64.83,0,0,0-.38,8V1598a90.12,90.12,0,0,0,1,13.63,30.79,30.79,0,0,0,3.45,10.56,17.16,17.16,0,0,0,7,6.77q4.46,2.37,11.46,2.37,9.66,0,14.39-3.88a20.73,20.73,0,0,0,6.68-10.85q1.93-7,1.94-20.78Z" transform="translate(-251.8 -251.8)"/><path d="M1508.51,1511.61v6.25a26,26,0,0,0-5.4,2,7.73,7.73,0,0,0-3.08,3,12.62,12.62,0,0,0-1.42,4.87,72.83,72.83,0,0,0-.33,7.53v94.31h18.37a19.35,19.35,0,0,0,8.81-1.7,15.64,15.64,0,0,0,5.73-5.26,34.73,34.73,0,0,0,4.16-9.28q1.76-5.73,2.8-10.74h13l-2.09,38.25h-90.24v-6.25a25,25,0,0,0,5.54-2.08,7.25,7.25,0,0,0,3-3.08,13.33,13.33,0,0,0,1.28-4.92c.19-2,.28-4.51.29-7.53v-81.53c0-3-.08-5.47-.24-7.48a13,13,0,0,0-1.23-4.93,7.7,7.7,0,0,0-3-3.07,23.31,23.31,0,0,0-5.64-2.13v-6.25Z" transform="translate(-251.8 -251.8)"/><path d="M1625.9,1642.38q-27.84,0-41.81-16.29t-14-48.77q0-21.3,6.77-36.41t19.93-23q13.17-7.86,31.35-7.86,28.3,0,42.51,16.24t14.21,48.25q0,17.89-4.22,30.73t-12,21.06a46.73,46.73,0,0,1-18.61,12.12A71.27,71.27,0,0,1,1625.9,1642.38Zm-25.67-67.61q0,28.59,6.87,42.56t21,14a19.78,19.78,0,0,0,12.41-3.93,27.9,27.9,0,0,0,8.28-11,62.09,62.09,0,0,0,4.55-16.71,152,152,0,0,0,1.37-21.21q0-18.84-3-31.58t-9-19.22a20,20,0,0,0-15.38-6.49q-13.74,0-20.41,13.12T1600.23,1574.77Z" transform="translate(-251.8 -251.8)"/><path d="M835.09,1343.75v24.76H824.43q-2.58-7.4-4.36-10a14.09,14.09,0,0,0-4.29-4.13q-2.49-1.52-8.48-1.52h-17v37.37h10.3a12.1,12.1,0,0,0,5.38-1,7.74,7.74,0,0,0,3.23-3.23,29.39,29.39,0,0,0,2.45-7h8.8v31.6h-8.8a29.06,29.06,0,0,0-2.41-6.89,8.43,8.43,0,0,0-3.16-3.38,11.65,11.65,0,0,0-5.49-1H790.33v41.57h16.89a26.14,26.14,0,0,0,4.59-.35,10.52,10.52,0,0,0,3.35-1.21A12.06,12.06,0,0,0,818,1437a20.37,20.37,0,0,0,2.42-3.2,34.29,34.29,0,0,0,2.22-4.51,74.86,74.86,0,0,0,2.56-7.71h10.67L834.39,1450H757.86v-5.14a21.7,21.7,0,0,0,4.56-1.68,5.76,5.76,0,0,0,2.49-2.49,11.13,11.13,0,0,0,1.05-4c.16-1.64.23-3.7.23-6.19v-67.11q0-3.66-.19-6.15a10.67,10.67,0,0,0-1-4,6.38,6.38,0,0,0-2.49-2.53,19.11,19.11,0,0,0-4.64-1.75v-5.14Z" transform="translate(-251.8 -251.8)"/><path d="M866.11,1423.78q1.95,9.27,6.5,13.82t13.35,4.55a20.83,20.83,0,0,0,8.25-1.55,12.8,12.8,0,0,0,5.88-5,15.84,15.84,0,0,0,2.22-8.68,18.35,18.35,0,0,0-1.79-8.37,21,21,0,0,0-5.76-6.74A64.7,64.7,0,0,0,883.7,1405a101.55,101.55,0,0,1-11-6.31,42.65,42.65,0,0,1-8.37-7.2,30.12,30.12,0,0,1-5.37-8.6,27.38,27.38,0,0,1-1.91-10.51q0-9.57,4.75-16.27A29,29,0,0,1,875.57,1346a57.72,57.72,0,0,1,20.82-3.46,112.63,112.63,0,0,1,13.24.74,135.35,135.35,0,0,1,14.4,2.6v22.58H913.36a32.38,32.38,0,0,0-3.77-9.77,14.46,14.46,0,0,0-5.72-5.33,21.93,21.93,0,0,0-16.58-.16,12.54,12.54,0,0,0-5.53,4.63,13.21,13.21,0,0,0-2,7.44,16.45,16.45,0,0,0,1.76,7.82,20.39,20.39,0,0,0,5.87,6.46,82.42,82.42,0,0,0,12,7.21,77.33,77.33,0,0,1,15.07,9.77,31.34,31.34,0,0,1,8.09,10.43,33.73,33.73,0,0,1-1.83,29.74,28.48,28.48,0,0,1-12.92,10.82,48,48,0,0,1-19.62,3.77,160.33,160.33,0,0,1-16.54-.89,137.85,137.85,0,0,1-16.15-2.61v-24Z" transform="translate(-251.8 -251.8)"/><path d="M964.7,1450v-5.14a20.25,20.25,0,0,0,5.18-1.44,6.17,6.17,0,0,0,2.84-2.53,10.3,10.3,0,0,0,1.17-4.17q.23-2.52.23-6.26v-77.62h-6.3a18.6,18.6,0,0,0-7.17,1.09,11.12,11.12,0,0,0-4.32,3.43,20.71,20.71,0,0,0-3.15,6.26q-1.32,3.93-2.18,7.44H940.34v-27.33H1032v27.33h-10.7q-1.49-5.3-2.34-7.79a22.42,22.42,0,0,0-1.9-4.24,15,15,0,0,0-2.22-2.92,10.62,10.62,0,0,0-2.49-1.87,11.31,11.31,0,0,0-3.31-1,31,31,0,0,0-5.18-.35h-5.6v77.62a62.26,62.26,0,0,0,.23,6.26,10.66,10.66,0,0,0,.86,3.47,6.82,6.82,0,0,0,1.51,2.14,8.6,8.6,0,0,0,2.49,1.48,19,19,0,0,0,4.33,1.05V1450Z" transform="translate(-251.8 -251.8)"/><path d="M1090.54,1417.09H1057.3l-2.57,7.39c-.73,2.08-1.32,4.09-1.79,6a26.36,26.36,0,0,0-.7,6.19q0,7.63,8.09,8.18V1450h-33.24v-5.14a9.67,9.67,0,0,0,5.06-2,16.74,16.74,0,0,0,4-4.67,50.46,50.46,0,0,0,3.82-8.48l32.46-86.49h20.79l25.69,87.19a62,62,0,0,0,2.88,8.29,11.25,11.25,0,0,0,3,4,12.2,12.2,0,0,0,5.22,2.22V1450h-43v-5.14a10.48,10.48,0,0,0,6-2.26,6.53,6.53,0,0,0,2-5.06,29.38,29.38,0,0,0-.55-5.37q-.54-3-1.79-7.47Zm-.86-106,17.6,19.54-5.53,5.21-18.53-13h-.85l-18.69,13-5.37-5.21,17.83-19.54ZM1060.26,1408h28l-12.45-43.83Z" transform="translate(-251.8 -251.8)"/><path d="M1239.89,1343.75v5.14a30.12,30.12,0,0,0-4.4,1.71,7,7,0,0,0-2.18,1.87A8.64,8.64,0,0,0,1232,1356a41.24,41.24,0,0,0-.47,7.28V1450h-19.77l-35-60.57q-7.1-12.3-10.44-19.31h-.7q.78,16.74.78,35.35v25.06a38.67,38.67,0,0,0,.59,8.18,7.14,7.14,0,0,0,2.1,3.7q1.52,1.35,5.72,2.45V1450H1145.3v-5.14a20.73,20.73,0,0,0,4.56-1.71,6.13,6.13,0,0,0,2.49-2.53,11.34,11.34,0,0,0,1.05-4c.16-1.61.23-3.64.23-6.08V1363.2a43.72,43.72,0,0,0-.5-8,7.14,7.14,0,0,0-2.1-3.7c-1.07-1-3-1.84-5.73-2.57v-5.14h31.53l27.56,47.88q2.56,4.51,6.7,12.22t7.31,14.56h1.25q-.86-18.6-.86-40.64v-14.48a47.14,47.14,0,0,0-.39-7.32,8.54,8.54,0,0,0-1.2-3.42,6.73,6.73,0,0,0-2.18-2,23,23,0,0,0-4.56-1.71v-5.14Z" transform="translate(-251.8 -251.8)"/><path d="M1335.6,1346.17v22.57H1325q-1.87-8.79-5.92-13a14.12,14.12,0,0,0-10.59-4.16q-12.3,0-18.6,11.79t-6.31,35q0,21.57,5.76,32.66t16.89,11.09a19.65,19.65,0,0,0,9.27-1.9,14.15,14.15,0,0,0,5.72-5.73,40.8,40.8,0,0,0,3.7-10.74h10.66v23.59q-7.74,1.89-15.64,3a113.2,113.2,0,0,1-14.72.93q-16.18,0-26.43-5.84a34.85,34.85,0,0,1-15.1-17.63q-4.86-11.79-4.87-29.85,0-16.9,5.73-29.39a42.74,42.74,0,0,1,16.85-19.27q11.13-6.78,26.62-6.77a107.83,107.83,0,0,1,14.25.85A96.26,96.26,0,0,1,1335.6,1346.17Z" transform="translate(-251.8 -251.8)"/><path d="M1387.93,1430.48c0,1.81,0,3.5.15,5.06a17,17,0,0,0,.63,3.81,6.59,6.59,0,0,0,1.36,2.49,7.34,7.34,0,0,0,2.45,1.75,18.88,18.88,0,0,0,3.82,1.29V1450h-40.88v-5.14a21.7,21.7,0,0,0,4.56-1.68,5.76,5.76,0,0,0,2.49-2.49,11.12,11.12,0,0,0,1-4c.16-1.64.23-3.7.23-6.19v-67.19q0-3.74-.19-6.15a10.67,10.67,0,0,0-1-4,6.13,6.13,0,0,0-2.49-2.53,20.68,20.68,0,0,0-4.64-1.71v-5.14h40.88v5.14a17.32,17.32,0,0,0-4.71,1.83,6.7,6.7,0,0,0-2.3,2.37,10.62,10.62,0,0,0-1.09,3.66,52.31,52.31,0,0,0-.31,6.62Z" transform="translate(-251.8 -251.8)"/><path d="M1470.38,1417.09h-33.24l-2.57,7.39c-.73,2.08-1.32,4.09-1.79,6a26.36,26.36,0,0,0-.7,6.19q0,7.63,8.1,8.18V1450h-33.24v-5.14a9.75,9.75,0,0,0,5.06-2,17.08,17.08,0,0,0,4-4.67,50.77,50.77,0,0,0,3.81-8.48l32.46-86.49H1473l25.69,87.19a62,62,0,0,0,2.88,8.29,11.25,11.25,0,0,0,3,4,12.16,12.16,0,0,0,5.21,2.22V1450h-43v-5.14a10.35,10.35,0,0,0,6-2.26,6.53,6.53,0,0,0,2-5.06,29.38,29.38,0,0,0-.55-5.37q-.54-3-1.79-7.47ZM1440.1,1408h28l-12.45-43.83Z" transform="translate(-251.8 -251.8)"/><rect class="cls-4" x="264.38" y="1015.94" width="1235.35" height="14.3"/><path d="M733.56,1772.65a22.5,22.5,0,0,1-4.14,4.78,11.74,11.74,0,0,1-4.57,2.26,20.69,20.69,0,0,1-7.1.48,51.18,51.18,0,0,1-10.88-2.31c.19-1.58.39-3.16.59-4.73a21.77,21.77,0,0,0,4.62.62,7,7,0,0,0,2.75-.5,7.83,7.83,0,0,0,2.18-1.56,25.13,25.13,0,0,0,2.72-3.36q11.26-15.84,22.74-31.63c.66-.91,1.18-1.69,1.57-2.34a3.89,3.89,0,0,0,.63-1.78,2.77,2.77,0,0,0-.47-1.63,10.46,10.46,0,0,0-1.66-1.92l1.41-1.9q9.4,5.61,18.92,10.92l-1.33,2a10.59,10.59,0,0,0-2.73-.55,3.91,3.91,0,0,0-1.69.31,5,5,0,0,0-1.43,1.07,21.94,21.94,0,0,0-1.88,2.41Q743.6,1757.93,733.56,1772.65Z" transform="translate(-251.8 -251.8)"/><path d="M769.52,1756.75q7.26,3.84,14.56,7.54-5.13,8.39-10.19,16.78a38.6,38.6,0,0,0-2.5,4.66,6.77,6.77,0,0,0-.66,3,4.11,4.11,0,0,0,.81,2.21,6,6,0,0,0,2.2,1.66,8.75,8.75,0,0,0,3.49.82,9.47,9.47,0,0,0,3.87-.64,5,5,0,0,0,2.68-2.16q3.39-5.89,6.81-11.79c.86-1.49,1.46-2.61,1.81-3.37a5.36,5.36,0,0,0,.54-1.91,2.68,2.68,0,0,0-.4-1.51,8.54,8.54,0,0,0-1.78-1.87l1.19-2q7.35,3.61,14.74,7l-12,21.58c-.86,1.56-1.45,2.71-1.78,3.46a5.05,5.05,0,0,0-.49,1.94,2.75,2.75,0,0,0,.58,1.6,9.67,9.67,0,0,0,2.28,2l-1.11,2.07q-5.53-2.35-11-4.79l-4.83-2.31,2.87-4.23-.42-.32a32.54,32.54,0,0,1-8.7.45,19.16,19.16,0,0,1-6.45-1.88,16.13,16.13,0,0,1-6-4.6,7.44,7.44,0,0,1-1.45-5.35,16.29,16.29,0,0,1,2.62-6.49l6.92-11c.71-1.12,1.24-2,1.58-2.6a13.62,13.62,0,0,0,.72-1.49,4.81,4.81,0,0,0,.25-1.06,2.8,2.8,0,0,0-.1-1,3.6,3.6,0,0,0-.59-1.11,8.75,8.75,0,0,0-1.36-1.36Z" transform="translate(-251.8 -251.8)"/><path d="M853.48,1832.31q-9.88-3.64-19.72-7.56l1-2.1a5.87,5.87,0,0,0,3,0,4.16,4.16,0,0,0,1.83-1.46,24.11,24.11,0,0,0,2.16-4.08c1.28-2.84,2.58-5.67,3.87-8.51.69-1.5,1.22-2.76,1.58-3.75a15.75,15.75,0,0,0,.72-2.52,4.73,4.73,0,0,0-.52-3.23,3.82,3.82,0,0,0-1-1.08,7.29,7.29,0,0,0-1.7-.9,7.93,7.93,0,0,0-3.41-.49,9.06,9.06,0,0,0-3.67,1,5.09,5.09,0,0,0-2.43,2.35q-2.94,6.09-5.84,12.17a26.41,26.41,0,0,0-1.75,4.27,3.47,3.47,0,0,0,.1,2.25,5.45,5.45,0,0,0,2.16,2.1c-.33.7-.65,1.4-1,2.09q-9.78-4-19.51-8.18l1-2.06a6.92,6.92,0,0,0,3.2.09,4,4,0,0,0,1.9-1.36,25.65,25.65,0,0,0,2.31-4q3.23-6.43,6.49-12.88c.78-1.55,1.32-2.7,1.64-3.47a5.11,5.11,0,0,0,.44-2,2.76,2.76,0,0,0-.55-1.57,8.62,8.62,0,0,0-2.22-1.86c.37-.71.74-1.42,1.1-2.13q5.31,2.16,10.61,4.23l4.83,2-2.79,4.31.42.29a51.48,51.48,0,0,1,5.52-1,23.07,23.07,0,0,1,4.55-.06,18.08,18.08,0,0,1,9.35,3.85,8.2,8.2,0,0,1,2.41,3.48,8.92,8.92,0,0,1,.31,4.23,20.28,20.28,0,0,1-1.54,5.06q-2.57,5.87-5.1,11.74-.6,1.41-1.08,2.67a8.35,8.35,0,0,0-.54,2.09,3.25,3.25,0,0,0,.15,1.45,3.3,3.3,0,0,0,.86,1.23,10.31,10.31,0,0,0,1.63,1.24C854.07,1830.9,853.78,1831.61,853.48,1832.31Z" transform="translate(-251.8 -251.8)"/><path d="M898.32,1842.6a33.57,33.57,0,0,1-5,1.44,20.88,20.88,0,0,1-4.6.33,18.29,18.29,0,0,1-4.86-.9c-4.85-1.59-8-4.19-9.35-7.74s-1-8,1.17-13.44a20.87,20.87,0,0,1,5.87-8.53,15.89,15.89,0,0,1,8.62-3.61,25.84,25.84,0,0,1,10.79,1.33,35.3,35.3,0,0,1,3.59,1.36,29.25,29.25,0,0,1,3.16,1.6c1,.57,2.12,1.34,3.49,2.31l3.55-1,4.81,2.08q-6.46,19.35-12.75,38.7a12.83,12.83,0,0,0-.8,3.62,3,3,0,0,0,.6,1.9,8,8,0,0,0,2.42,1.83l-.69,2.19q-10.5-3-21-6.34c.25-.72.51-1.44.76-2.17a9.26,9.26,0,0,0,3.32,0,3.31,3.31,0,0,0,1.75-1.18,13.44,13.44,0,0,0,1.58-3.47Q896.56,1847.77,898.32,1842.6Zm6.09-17.44q1.41-4,.49-6.46c-.62-1.63-2-2.79-4.26-3.5a6.9,6.9,0,0,0-4.72.11,10.23,10.23,0,0,0-4.21,3.35,23.38,23.38,0,0,0-3.34,6.2q-2.42,6.44-1.85,10.17a5.8,5.8,0,0,0,4.3,4.92,10.06,10.06,0,0,0,3.89.43,7.32,7.32,0,0,0,3.61-1.28,6,6,0,0,0,2.28-3Z" transform="translate(-251.8 -251.8)"/><path d="M937.39,1822.76q7.64,2.06,15.32,3.94-2.58,9.33-5.14,18.66a42.61,42.61,0,0,0-1.13,5.1,7,7,0,0,0,.17,3.11,4.16,4.16,0,0,0,1.29,2,6,6,0,0,0,2.44,1.11,7.6,7.6,0,0,0,3.42,0,8.43,8.43,0,0,0,3.41-1.5,4.85,4.85,0,0,0,1.93-2.72q1.65-6.53,3.31-13c.42-1.65.69-2.88.82-3.69a5.6,5.6,0,0,0,0-2,2.83,2.83,0,0,0-.76-1.37,8.34,8.34,0,0,0-2.12-1.41c.2-.74.39-1.48.59-2.22q7.69,1.8,15.42,3.46-2.83,11.88-5.61,23.75c-.4,1.72-.66,3-.78,3.79a5.18,5.18,0,0,0,0,2,2.84,2.84,0,0,0,.93,1.42,9.58,9.58,0,0,0,2.6,1.39l-.51,2.28q-5.7-1-11.39-2.16-2.52-.56-5-1.14l1.59-4.78-.47-.22a29.09,29.09,0,0,1-7.9,2.44,17.51,17.51,0,0,1-6.41-.35,15.47,15.47,0,0,1-6.65-3.1,7.77,7.77,0,0,1-2.67-4.86,16.52,16.52,0,0,1,.77-6.91q1.78-6.12,3.59-12.24c.36-1.25.63-2.21.78-2.89a10.94,10.94,0,0,0,.28-1.6,4.05,4.05,0,0,0,0-1.1,2.78,2.78,0,0,0-.35-1,3.39,3.39,0,0,0-.83-.94,8.18,8.18,0,0,0-1.59-1C936.94,1824.23,937.16,1823.5,937.39,1822.76Z" transform="translate(-251.8 -251.8)"/><path d="M1027.53,1869.93a24.41,24.41,0,0,1-19.09,4.06c-6.5-1.07-11.11-3.41-13.79-6.91s-3.41-8.13-2.24-13.84a18.9,18.9,0,0,1,4.39-9.1,16.44,16.44,0,0,1,8.06-4.86,25,25,0,0,1,10.65-.35,26.24,26.24,0,0,1,6.22,1.73,15.8,15.8,0,0,1,4.36,2.72,11.9,11.9,0,0,1,2.75,3.59,15.85,15.85,0,0,1,1.54,5.3,27.9,27.9,0,0,1-.18,7.07q-13-1.81-25.88-4-1.11,6.21,1,9.6c1.39,2.25,3.9,3.68,7.49,4.26a15.56,15.56,0,0,0,5.85-.09,20,20,0,0,0,6-2.65Zm-8.8-16.1c.48-3.53.37-6.23-.29-8.1a5,5,0,0,0-4.2-3.32,5.85,5.85,0,0,0-5.39,1.86,16.42,16.42,0,0,0-3.63,7.35q6.78,1.17,13.51,2.21Z" transform="translate(-251.8 -251.8)"/><path d="M1044.14,1876.2a6,6,0,0,0,3-.84,3.73,3.73,0,0,0,1.28-1.86,24.81,24.81,0,0,0,.81-4.51q1-8.09,1.94-16.15a18.3,18.3,0,0,0,.15-2.77,3.67,3.67,0,0,0-.48-1.74,3.11,3.11,0,0,0-1.25-1.11,12,12,0,0,0-2.15-.84l.3-2.36c3.67.35,7.34.66,11,1l5,.5q-1.29,12.38-2.56,24.76c-.13,1.3-.22,2.3-.25,3a11.5,11.5,0,0,0,0,1.66,4.81,4.81,0,0,0,.25,1.06,3.13,3.13,0,0,0,1.54,1.7,10,10,0,0,0,1.83.74c-.08.76-.15,1.53-.23,2.3q-10.23-1-20.44-2.22C1044,1877.73,1044.05,1877,1044.14,1876.2Zm20.67-44.36-.9,8.53q-5.43-.54-10.85-1.15c.34-2.84.69-5.67,1-8.51Q1059.46,1831.31,1064.81,1831.84Z" transform="translate(-251.8 -251.8)"/><path d="M1097.83,1853.39l.52.13a19.37,19.37,0,0,1,6.24-4,16.8,16.8,0,0,1,6.73-1.06,31.29,31.29,0,0,1,5.11.62l-.27,9.69c-2.45-.07-4.89-.16-7.34-.25a8,8,0,0,0-1.68-3.2,4.1,4.1,0,0,0-2.92-1.22,4.89,4.89,0,0,0-2,.39,7.1,7.1,0,0,0-2,1.23,5.38,5.38,0,0,0-1.38,1.69,7,7,0,0,0-.61,1.77,22.72,22.72,0,0,0-.26,2.73q-.3,5.58-.59,11.18a24.29,24.29,0,0,0,0,4.67,3.76,3.76,0,0,0,1.06,2.15,6.06,6.06,0,0,0,2.92,1.22c0,.77-.07,1.54-.11,2.31q-10.35-.51-20.69-1.29c.06-.77.12-1.54.17-2.31a6,6,0,0,0,2.87-1,3.74,3.74,0,0,0,1.18-1.92,26,26,0,0,0,.58-4.56q.49-7.18,1-14.37c.12-1.73.17-3,.16-3.84a5.47,5.47,0,0,0-.34-2,3,3,0,0,0-1.08-1.3,9,9,0,0,0-2.65-1c.06-.79.13-1.58.18-2.38q5.49.27,11,.45l5,.29Q1098.25,1850.76,1097.83,1853.39Z" transform="translate(-251.8 -251.8)"/><path d="M1149.1,1884.91a27.31,27.31,0,0,1-10.66-1.78,14.35,14.35,0,0,1-7-5.86,18.72,18.72,0,0,1-2.4-10.17,20.32,20.32,0,0,1,1.57-8.14,15.46,15.46,0,0,1,4.19-5.67,17.23,17.23,0,0,1,6.31-3.31,29.57,29.57,0,0,1,7.93-1.14c6.45-.09,11.36,1.27,14.78,4.16s5.29,7.21,5.56,13a19.07,19.07,0,0,1-2.06,10.36,14.86,14.86,0,0,1-7,6.36A27.72,27.72,0,0,1,1149.1,1884.91Zm-7.54-18.51q0,7.45,2.06,11.17a6.41,6.41,0,0,0,6,3.67,6.16,6.16,0,0,0,6-3.79,14.22,14.22,0,0,0,1.15-4.34,39.62,39.62,0,0,0,.2-5.66c-.14-5-.9-8.81-2.25-11.29a6.19,6.19,0,0,0-5.75-3.66,6.33,6.33,0,0,0-4.36,1.56,9.07,9.07,0,0,0-2.38,4.56,32.28,32.28,0,0,0-.67,7.78Zm17.8-34.23c0,.77.05,1.55.08,2.32q-6.6,5.87-13.43,11.6l-3.21-2.3q4.28-5.68,8.4-11.43C1153.91,1832.31,1156.64,1832.25,1159.36,1832.17Z" transform="translate(-251.8 -251.8)"/><path d="M1203.66,1888.29a14.19,14.19,0,0,0,.67,3.71,3.31,3.31,0,0,0,1.37,1.63,8.17,8.17,0,0,0,3.18.81c.08.77.15,1.55.22,2.32q-10.65.88-21.31,1.48c-.06-.77-.1-1.55-.16-2.32a7.86,7.86,0,0,0,2.72-1.26,3.24,3.24,0,0,0,1-1.74,14.49,14.49,0,0,0,.07-3.78q-1.12-15.42-2.27-30.84c-.13-1.67-.24-2.85-.33-3.56a7.69,7.69,0,0,0-.42-1.78,3,3,0,0,0-2-1.93,11,11,0,0,0-2.35-.49c0-.8-.11-1.6-.17-2.4q5.53-.47,11.06-1c1.64-.12,3.28-.24,4.91-.38,0,1.72-.09,3.44-.13,5.16l.49.07a27.59,27.59,0,0,1,6-4.76,15.49,15.49,0,0,1,6-1.85c4.73-.46,8.45.62,11.2,3.3s4.53,6.94,5.29,12.8a21.48,21.48,0,0,1-.88,10.43,13.51,13.51,0,0,1-5.78,6.86,24.12,24.12,0,0,1-10.5,3.09,38.38,38.38,0,0,1-8.57-.21Zm-1.6-17.87c.26,2.89,1,5,2.34,6.26s3.21,1.81,5.69,1.6a6.32,6.32,0,0,0,5.5-3.94q1.65-3.58.94-9.89c-.52-4.68-1.5-8.08-2.91-10.22a5.93,5.93,0,0,0-5.83-2.87,8.08,8.08,0,0,0-3.44,1.12,7.41,7.41,0,0,0-2.59,2.54,5.6,5.6,0,0,0-.78,3.46Z" transform="translate(-251.8 -251.8)"/><path d="M1268.77,1874.66a27.83,27.83,0,0,1-10.91-.15,14.58,14.58,0,0,1-7.85-4.79,19.26,19.26,0,0,1-4-9.79,20.79,20.79,0,0,1,.25-8.35,15.39,15.39,0,0,1,3.24-6.28,17.11,17.11,0,0,1,5.74-4.27,29.25,29.25,0,0,1,7.71-2.34c6.41-1.06,11.53-.46,15.42,1.89s6.47,6.38,7.68,12.1a19.2,19.2,0,0,1-.39,10.65,14.72,14.72,0,0,1-6,7.42A28,28,0,0,1,1268.77,1874.66Zm-10.49-17.32q1.26,7.44,3.85,10.83a6.53,6.53,0,0,0,6.61,2.75,6.72,6.72,0,0,0,3.51-1.56,6.58,6.58,0,0,0,1.85-3.14,14.25,14.25,0,0,0,.45-4.5,38.67,38.67,0,0,0-.71-5.68c-1-5-2.33-8.65-4.08-10.91s-3.85-3.18-6.33-2.77a6.22,6.22,0,0,0-4.09,2.22,9,9,0,0,0-1.62,4.9,32.4,32.4,0,0,0,.56,7.86Z" transform="translate(-251.8 -251.8)"/><path d="M1319.75,1853.42a28.5,28.5,0,0,0,1.41,4.49,4,4,0,0,0,1.52,1.75,6.24,6.24,0,0,0,3.19.51c.2.76.39,1.52.6,2.28q-10.18,2.46-20.39,4.63c-.18-.77-.36-1.53-.53-2.3a8.42,8.42,0,0,0,1.81-1,3.2,3.2,0,0,0,1.34-2.27,5.84,5.84,0,0,0-.07-2c-.14-.82-.38-2-.74-3.45q-3.24-13.55-6.55-27.09c-.48-2-.86-3.45-1.13-4.38a17.13,17.13,0,0,0-.82-2.31,4,4,0,0,0-1-1.39,2.94,2.94,0,0,0-1.37-.67,10.63,10.63,0,0,0-2.52-.11c-.19-.76-.37-1.53-.55-2.29q5.31-1.41,10.6-2.89l4.83-1.14Q1314.68,1833.62,1319.75,1853.42Z" transform="translate(-251.8 -251.8)"/><path d="M1341.91,1856.12a6,6,0,0,0,2.45-1.91,3.79,3.79,0,0,0,.46-2.24,24.75,24.75,0,0,0-1.06-4.58q-2.34-8-4.72-16a17.84,17.84,0,0,0-1-2.67,3.77,3.77,0,0,0-1.16-1.46,3.29,3.29,0,0,0-1.63-.59,13.29,13.29,0,0,0-2.36,0l-.69-2.34q5.38-1.57,10.76-3.24l4.91-1.4q3.87,12.16,7.67,24.36c.4,1.28.73,2.27,1,3a12.69,12.69,0,0,0,.68,1.56,4.28,4.28,0,0,0,.67.91,3.41,3.41,0,0,0,.85.66,3.61,3.61,0,0,0,1.29.37,9.55,9.55,0,0,0,2,0l.72,2.26q-10.1,3-20.22,5.61C1342.34,1857.64,1342.12,1856.88,1341.91,1856.12Zm1.38-49.7c.9,2.79,1.79,5.59,2.69,8.38q-5.36,1.54-10.7,3l-2.55-8.42Q1338,1808,1343.29,1806.42Z" transform="translate(-251.8 -251.8)"/><path d="M1380.91,1837.05a9.7,9.7,0,0,0,4.74,3.63,10,10,0,0,0,6.25-.35,8,8,0,0,0,4.22-2.73,4,4,0,0,0,.32-3.88,4.33,4.33,0,0,0-1.6-2.12,7.67,7.67,0,0,0-3-1.07,51.7,51.7,0,0,0-6.46-.47,38.7,38.7,0,0,1-4.81-.42,17.81,17.81,0,0,1-4.18-1.12,10.93,10.93,0,0,1-3.26-2,7.58,7.58,0,0,1-2-3.13,8,8,0,0,1,.19-6,13.38,13.38,0,0,1,4.61-5.34,31,31,0,0,1,8.07-4q2.85-1,5.66-1.75c1.87-.5,4.34-1,7.39-1.66l3.15,7.82-5.21,1.88a13.05,13.05,0,0,0-3.29-2.63,6.55,6.55,0,0,0-3-.8,9.88,9.88,0,0,0-3.27.62,7.62,7.62,0,0,0-3.75,2.42,3.35,3.35,0,0,0-.48,3.36,4.45,4.45,0,0,0,1.36,2,6.24,6.24,0,0,0,2.64,1.11,36.22,36.22,0,0,0,6.41.42,37.36,37.36,0,0,1,7.16.6,12.46,12.46,0,0,1,4.9,2,8.5,8.5,0,0,1,3,3.9,9.11,9.11,0,0,1,.63,5.13,9.81,9.81,0,0,1-2.16,4.48,17.72,17.72,0,0,1-4.59,3.77,34.92,34.92,0,0,1-6.62,3,76.84,76.84,0,0,1-15.67,3.32l-2.79-8.14C1377.28,1838.24,1379.1,1837.64,1380.91,1837.05Z" transform="translate(-251.8 -251.8)"/><path d="M1440.46,1808.34q-9.42,4-18.89,7.66l-3-7q9.36-3.66,18.67-7.59Q1438.86,1804.88,1440.46,1808.34Z" transform="translate(-251.8 -251.8)"/><path d="M1462,1803.06a12.42,12.42,0,0,0,6.24,4.26q3.3.84,7.85-1.29a13.54,13.54,0,0,0,3.91-2.66,6.71,6.71,0,0,0,1.91-3.53,6.19,6.19,0,0,0-.79-4.14,7.66,7.66,0,0,0-2.76-3,11.4,11.4,0,0,0-4.4-1.39,40.92,40.92,0,0,0-7-.17,58.33,58.33,0,0,1-6.87-.07,23.64,23.64,0,0,1-5.71-1.1,14.66,14.66,0,0,1-4.48-2.39,11.57,11.57,0,0,1-3.14-4,11.41,11.41,0,0,1-1.11-7.86,15,15,0,0,1,4.48-7.3,35.07,35.07,0,0,1,9.23-6.19c2.21-1.08,4.38-2,6.5-2.81s4.62-1.59,7.49-2.39q2.65,4.6,5.29,9.23-2.58,1.32-5.18,2.62a15.13,15.13,0,0,0-4.08-3.11,8,8,0,0,0-4-.83,12.06,12.06,0,0,0-4.55,1.32,11.66,11.66,0,0,0-3.49,2.49,6.31,6.31,0,0,0-1.66,3.19,5.49,5.49,0,0,0,.64,3.55,7.14,7.14,0,0,0,2.57,2.85,10.68,10.68,0,0,0,4.3,1.32,47.2,47.2,0,0,0,7.52.14,50.4,50.4,0,0,1,9.67.36,16.79,16.79,0,0,1,6.43,2.27,13.05,13.05,0,0,1,4.34,4.73,12,12,0,0,1,1.55,8,14.65,14.65,0,0,1-4.19,7.75,31.23,31.23,0,0,1-9.32,6.44q-4.11,1.94-8.77,3.61a86.67,86.67,0,0,1-8.94,2.68q-2.43-5.06-4.9-10.09Z" transform="translate(-251.8 -251.8)"/><path d="M1525.63,1774.31a18.58,18.58,0,0,0,2,2.81,3.57,3.57,0,0,0,3.36,1.12,13.65,13.65,0,0,0,3-.9c.43.69.87,1.37,1.31,2.06q-10.63,6.09-21.37,11.79c-.41-.69-.83-1.39-1.23-2.09a13.33,13.33,0,0,0,1.91-1.92,2.86,2.86,0,0,0,.67-1.69,4.44,4.44,0,0,0-.45-1.93,25.49,25.49,0,0,0-1.39-2.57q-8.2-13.59-16.54-27.11c-.61-1-1.16-1.79-1.63-2.43a4.62,4.62,0,0,0-1.49-1.36,3.44,3.44,0,0,0-1.81-.38,11.82,11.82,0,0,0-2.64.49l-1.27-2.08q10.71-5.77,21.32-12c6.15-3.6,11.37-5.46,15.72-5.5a12.25,12.25,0,0,1,10.59,5.62,13.53,13.53,0,0,1,2.73,8.38,14.29,14.29,0,0,1-3.33,8.46,32.92,32.92,0,0,1-9.64,7.85q-3.72,2.14-6.17,3.37Q1522.48,1769.31,1525.63,1774.31Zm-8.57-13.5,3.28-1.87a17.87,17.87,0,0,0,5.46-4.39,6.69,6.69,0,0,0,1.45-4.73,12.45,12.45,0,0,0-2.4-5.77,13.45,13.45,0,0,0-4.49-4.45,7.58,7.58,0,0,0-4.89-.87,16.6,16.6,0,0,0-5.72,2.23q-2.58,1.49-3.94,2.34Q1511.47,1752,1517.06,1760.81Z" transform="translate(-251.8 -251.8)"/><path d="M1133.86,290.5c-465.78,0-843.36,377.58-843.36,843.36s377.58,843.36,843.36,843.36,843.36-377.59,843.36-843.36S1599.63,290.5,1133.86,290.5Zm0,1648c-444.41,0-804.67-360.26-804.67-804.66s360.26-804.67,804.67-804.67,804.66,360.26,804.66,804.67-360.26,804.68-804.66,804.68Z" transform="translate(-251.8 -251.8)"/><path d="M1133.86,251.8c-487.15,0-882.06,394.91-882.06,882.06s394.91,882.06,882.06,882.06,882.06-394.91,882.06-882.06S1621,251.8,1133.86,251.8Zm0,1751.18c-480,0-869.12-389.12-869.12-869.12s389.12-869.12,869.12-869.12S2003,653.86,2003,1133.86,1613.86,2003,1133.86,2003Z" transform="translate(-251.8 -251.8)"/></g></svg>