<svg xmlns="http://www.w3.org/2000/svg" viewBox="0 0 2267.72 2267.72"><defs><style>.cls-1{fill:#000001;}.cls-1,.cls-3{fill-rule:evenodd;}.cls-2{fill:none;stroke:#1f191a;stroke-miterlimit:22.93;stroke-width:0.57px;}.cls-3{fill:#1f191a;}.cls-4{stroke:#fff;stroke-miterlimit:10;}</style></defs><title>Prancheta 1</title><g id="Logo"><path class="cls-1" d="M1268.65,888.35c5-4.74,6.48-5.63,15.71-6,1.62,10.51,5.88,19.75-2.68,26.75C1275.61,905,1270.5,895.28,1268.65,888.35Zm117.67,7.74c-.14-2.94,1.5-7.14,3-9.28s2.71-2.23,5.13-.26a31.71,31.71,0,0,1,8.33,11.24c2.32,5.26,3.39,11.77,3.82,19.62a93.61,93.61,0,0,1-1.74,25.65,61.37,61.37,0,0,1-9.69,21.9c-3.92,5.26-8,7.76-11.13,8.21s-5.38-1.16-5.14-2.68,3-2.94,5.91-5.22a30.22,30.22,0,0,0,8.48-9.77c2.32-4.37,3.77-10,5.18-15.21s2.76-10,2.9-15.61a75,75,0,0,0-1.79-16.1c-.87-4.19-1.55-6.24-2.66-7.4a3.84,3.84,0,0,0-3.83-1.07c-1.16.35-1.94,1.33-3.29,1A5.32,5.32,0,0,1,1386.32,896.09Zm-19.51-144.8c13.53-5.44,17.39-13,28.7-18.34.79-.38,1.79-.67,3.44-1.54l36.64-20.81c18.1-9.52,19.75-16.48,36.31-3l14.33,23.3c-6.69,6.38-34.67,14.57-49.87,15.17C1420.5,746.67,1377.72,755.67,1366.81,751.29Zm15.46-28.52c-6.76,6.8-37.36,32.43-49.47,15C1315.3,712.58,1371.09,722,1382.27,722.77Zm-10.2-17.86c10.37-10.37,34.39-12.61,51.7-14-2.3,6.2-14.29,14.73-21.13,18.33-6.24,3.28-7.9.7-15.48-.65Zm-40.38-57.42c11.22-7.27,51.39-7.78,65.72-10.56,12.4-2.42,47.68,0,59.37,1.05,17.29,1.64,37.4,8.27,53.72,13.08,45.17,13.31,68.32,37,23.73,57.22-39.56,18-33.12,9.22-41.62-.57-3.88-4.47-31.94-19.72-41.22-23.1-15.08-5.5-44.41-3.43-61-1.77,2.57-8.94,10.92-14.44,17.47-18.69,24.24-15.68,72.27-4.74,93.1-3.7-14.3-13.18-63.63-15.33-80.26-14.89C1373,646.82,1346.05,659,1331,660Zm-92-92.16c-9.45-4.86-30.91-16.19-35.39-16.7-12.89-1.5-15.55-3.48-24.53-3.28-12,.27-8.22,1-16.65,3.27l-40.08,3.74c-6-.63-10.11-4.17-15.28-5.71-7.73-2.3-33-.35-40.45,1.34a21.31,21.31,0,0,0-6.3,2.62,33.38,33.38,0,0,0-3.14,2.6c-10.82,7-35.74,18.37-65.65,56.45-.32.15-8.18,8.3-12.37,11.17C978.09,612.06,977,613,977,613c-3.14,2.7-1.53,2.91-8.19,2.54-30.48-1.69-26-8-42.65,7.8-33,31.42-8,14.07-29.09,60.62-5.61,12.4-13.77,18.08-14.38,20.67.56,17.2,24.54,35.93,32.87,48.17-2.23,3.56-14.34,15.22-18.34,18.75C877.44,789,891.51,780.4,875.69,782c-4.65,6.92-2.9,13-11.58,16.17-25.08,9.08-8-.32-23.62,16.24-41.13-23.88-22.77-14.27-66.58-34.66-16.06-7.47-19.31-8.55-38.55-12.66-13.66-2.91-27.48-5.52-40.54-8.49,0,7.23,132.38,43.43,145.83,91.76,2.37,8.52,11.5,56.63,13,59l1.1-2.38c.11-.36.32-.9.41-1.32s.19-1,.25-1.45a38.55,38.55,0,0,0-.22-6.32c-3.93-40.65-7.12-41.49,9.28-75.37,1.61,10.56.14,23.32,3.88,31.19,6.21-16.47,5.69-42.88,20.17-49.87,4,11.47,5.18,30,7,44.22,1.29,10.14,2.38,31.45,6.34,38.76a11.08,11.08,0,0,0,2.56,3.53c-1.89-40.81-11.54-39.22-.1-85.66,2.76-11.2,2.21-14,11-19.41L918,847.76c4.56-11.54,4.89-27.55,5.81-41.14,1.2-17.64,6.17-24.25,9-38,7.41,3.23,13.26,8,21.23,11.13,10.08,3.92,22,4.76,26.34,6.9-6.08,92.89-11.37,80.57,22.1,173.36,5.73,15.89,14.16,30.49,20.57,47,12.84,33.08,23.23,67.34,36.53,100.26,16.28,40.32,13.15,41.89,35.07,83.69,4.17,7.93,1.48,6.61,9.21,7.71,2-5.42-13.49-43.19-16-55.11-2.22-10.31-3-22.09-5.89-31.88-15.88-54.74-22.84-82.57-53.71-132.65-30.12-48.88-40.88-128.25-31.17-186.92,7.38-44.63,12.46-39,16.6-56.52-7.87,2.56-26.58,29.26-31.25,36.75-31.36.1-29.95-2.72-43.76-21.22-40.42-54.14-36.64-35.2-20.58-78.2,7.21-19.28,8.75-26.45,18.74-41.28,24.54.43,25-1,43,10.21,6.36,4,7.42,9,12.25,13.77l13.29,12.26c-1-8.2-3-16-4.63-23.91-7.29-35,8.53-20.42,17.25-18.81l-7-12.94c5.75-3,15.55-10,20.64-13.71l21.55-19A255.47,255.47,0,0,1,1074.72,564c13.22-8.07,63.3-2.44,89.19,20.77,16.62,14.89,20.47,35.7,29,43.38-10.61-58.44-48.08-56.6-55.14-73.24,21.15-10.78,74.5,1.65,92.17,11.84,5.67,3.27,11.82,7.72,17,11.09,14.26,9.22,32.68,25.86,44.38,37.6,4.74,4.76,7.44,9.86,12.43,15.3,26.83,29.25,21.58,31.14,15.25,54.82-16.87,63.06,3.62,61,7.93,87.55-15-3.51-26.06-32.44-32.92-45-1.65,21.75,29.54,77.47,41.13,93.22l29,37.76c17,25.12-57.69-5.25-79.06.45-46.38,12.36-22.69,35.63-16,47.5,4,7.09,15.65,19.7,13.3,28.34-3.38,12.41-13.79,14-24.37,20.54-7.81,4.81-20.06,15.25-27.38,17.81-13,4.54-17.15-3.4-21-8.16l-6.37-6c7.59,38.72,43,18.74,67.64,10,29-10.36,59.22-4.73,86.6,4.53-3.57,7.56-14.25,15-25.56,16.28l-2.7-12c-13.94,4.21-7.55,16-30.15,17.43-13.3.87-33.18-8.49-40-5,3.27,7.7,18.83,9.82,25.74,15.37-12.74,20.35-14.15,10-27.71,39.93s-18.67,73.26-23.33,107c-2.51,18.16-6.76,32.85-10.24,49.89H1242c5.2-19.33,11.73-41.84,15.71-61.82,8.47-42.57,12.71-89.9,47.07-120.89,13.83-12.47,39.87-4.36,62.13-23.1,18.84-15.87,16.16-3,32.2-11.35,33.65-17.5,25.78-63.94,16.86-92.66-8.62-27.71-18.46-33.15-33.91-50.85-13.11-15-48.72-57.62-5-73.16,32.71-11.64,74.46-6.64,109.2-16.65,17.94-5.17,45.63-21,56.4-28.43,36.91-25.5,37.53-41.61,15.49-68.67-4.68-5.74-15.47-10.55-23.72-15.06-22.91-12.52-28.41-14.84-58.24-18.52-18.44-2.27-59.2-5.23-77.87-2-10.22,1.79-27.79,3.61-38.09,5.23-12.55,2-28.19,3.23-38.21,4.56-12.84-17.3-17.94-20.48-22.45-25.91-1.5-1.79-6.24-6.24-12.48-13.22-4.93-5.52-11.52-12.43-12.73-13.45C1256.45,562.11,1254.27,562.81,1239.73,555.33Z"/><path class="cls-1" d="M1172.88,1179.28c1.32-15.39-3.41-44.5-5.46-60.71-2.16-17.14-9.92-35.43-15.77-51.54-5.51-15.2-43-67.74-54.55-83.59-10.83-14.8-43.48-70.46-48.45-89.33-10.67-40.53-15-76-15.37-120.17-12.82,28.54-6.55,90.1,2.07,120,24.1,83.79,79,118.79,101.55,181.25Z"/><path class="cls-2" d="M1172.88,1179.28c1.32-15.39-3.41-44.5-5.46-60.71-2.16-17.14-9.92-35.43-15.77-51.54-5.51-15.2-43-67.74-54.55-83.59-10.83-14.8-43.48-70.46-48.45-89.33-10.67-40.53-15-76-15.37-120.17-12.82,28.54-6.55,90.1,2.07,120,24.1,83.79,79,118.79,101.55,181.25Z"/><path class="cls-1" d="M925.3,706c3.61-4.8,2.3-12.8,4.16-19,15.72-7.67,12.88-.67,13-.28.55,1.84.19,4.8.41,6.89,1,9.95,5.84,9.85,12.73,16.87,10.15,10.34,9.79,26.69,21.94,34.58-1.31-8.74-9.76-28.63,8.82-25.4,5.26.92,16.31,10.34,27.36-11.54,10.48,1.93,10.5,6.59,12.55,17.54,1.91,10.22.22,17.75,1.68,26.8l2.93-26.6c-.81-18.08-5.58-14.3-8-23.84-2-7.94,1.65-18.75.72-27.5-.78-7.3-5.64-15.55-6.15-22.86-1.87,14.82,1.59,28.8-.8,45.8l-22.87-29.27c-4.06-4.54-9.08-8-12.71-13.24-9.06-13-18.86-14.4-38.13-5.67-8.77,4-9.23,4-11.79,14.17C928.36,674.47,918.89,696.63,925.3,706Z"/><path class="cls-2" d="M925.3,706c3.61-4.8,2.3-12.8,4.16-19,15.72-7.67,12.88-.67,13-.28.55,1.84.19,4.8.41,6.89,1,9.95,5.84,9.85,12.73,16.87,10.15,10.34,9.79,26.69,21.94,34.58-1.31-8.74-9.76-28.63,8.82-25.4,5.26.92,16.31,10.34,27.36-11.54,10.48,1.93,10.5,6.59,12.55,17.54,1.91,10.22.22,17.75,1.68,26.8l2.93-26.6c-.81-18.08-5.58-14.3-8-23.84-2-7.94,1.65-18.75.72-27.5-.78-7.3-5.64-15.55-6.15-22.86-1.87,14.82,1.59,28.8-.8,45.8l-22.87-29.27c-4.06-4.54-9.08-8-12.71-13.24-9.06-13-18.86-14.4-38.13-5.67-8.77,4-9.23,4-11.79,14.17C928.36,674.47,918.89,696.63,925.3,706Z"/><path class="cls-1" d="M960.18,827.25c-10.07,38.39-11.63,47.8-3.94,87.92,7.92,41.29,4.24,41.15,24.38,79.23,11.73,22.18,22.58,47.2,33.24,71.05l28.41,75.56c2.45-6.86-12-70.13-15.74-80-9.18-24.47-18-49-28.3-72.08-16.92-37.87-17.78-34.41-26.19-74-2.83-13.33-7.2-29.08-8.16-42.54S966.27,838.18,960.18,827.25Z"/><path class="cls-2" d="M960.18,827.25c-10.07,38.39-11.63,47.8-3.94,87.92,7.92,41.29,4.24,41.15,24.38,79.23,11.73,22.18,22.58,47.2,33.24,71.05l28.41,75.56c2.45-6.86-12-70.13-15.74-80-9.18-24.47-18-49-28.3-72.08-16.92-37.87-17.78-34.41-26.19-74-2.83-13.33-7.2-29.08-8.16-42.54S966.27,838.18,960.18,827.25Z"/><path class="cls-1" d="M1066.77,681.91c-34.17,7.24,15.69,60,72.19,45.64l-34.36-34.47c-7.33-8.32-21.56-23-37.19-27.09C1063.9,671.58,1065.73,675.25,1066.77,681.91Zm8,4.07c4.25,0,7.7,3.18,7.7,7.1s-3.45,7.09-7.7,7.09-7.7-3.18-7.7-7.09S1070.51,686,1074.76,686Z"/><path class="cls-2" d="M1066.77,681.91c-34.17,7.24,14.43,59.77,72.19,45.64l-34.36-34.47c-7.41-9.55-27.75-25.94-37.19-27.09C1063.9,671.58,1065.73,675.25,1066.77,681.91Zm8,4.07c4.25,0,7.7,3.18,7.7,7.1s-3.45,7.09-7.7,7.09-7.7-3.18-7.7-7.09S1070.51,686,1074.76,686Z"/><path class="cls-1" d="M1215,1203c6.8-13.49.43-32.13.91-47,1.2-36.58,27.32-85,35.26-123-6.08,4.34-4.72,6.53-9,17.11-2.43,6-4.48,11-6.9,16.82-4.64,11.11-9.12,22.53-13.8,33.68-20.89,49.74-12,23.45-21.23,75.06-3.7,1.84-7.57,3.6-11.32,5.5-.73,10.06,5,19.13,14.56,21.87Z"/><path class="cls-2" d="M1215,1203c6.8-13.49.43-32.13.91-47,1.2-36.58,27.32-85,35.26-123-6.08,4.34-4.72,6.53-9,17.11-2.43,6-4.48,11-6.9,16.82-4.64,11.11-9.12,22.53-13.8,33.68-20.89,49.74-12,23.45-21.23,75.06-3.7,1.84-7.57,3.6-11.32,5.5-.73,10.06,5,19.13,14.56,21.87Z"/><path class="cls-1" d="M1082.64,902.27c-1.83-3.64-3-6.28-4.84-9.83l-5.71-8.09c.81,7.75,27,66.84,32.47,78,6.18,12.57,14.68,21.62,22.83,32.44,5,6.67,16,26.7,24.46,29.14-1.58-11.1-10.92-16.85-11.56-30.27,13.61,0,41.62-3.42,55-8.18,5.38-1.91,2.6-.88,4.71-2.53-7.67-3.17-29.49,6.61-51.78-1.95-14.38-5.52-28-11.72-35.33-22.84Z"/><path class="cls-2" d="M1082.64,902.27c-1.83-3.64-3-6.28-4.84-9.83l-5.71-8.09c.81,7.75,27,66.84,32.47,78,6.18,12.57,14.68,21.62,22.83,32.44,5,6.67,16,26.7,24.46,29.14-1.58-11.1-10.92-16.85-11.56-30.27,13.61,0,41.62-3.42,55-8.18,5.38-1.91,2.6-.88,4.71-2.53-7.67-3.17-29.49,6.61-51.78-1.95-14.38-5.52-28-11.72-35.33-22.84Z"/><path class="cls-1" d="M1231.21,713.4c-3.71-19.63-58.54-70.86-65.71-82-2.51-3.91-5.54-12.57-9.3-9.07-2.22,2.07,9.55,20.83,12.06,26.17,16.22,34.54,6,11.76,41.16,44.19a100.37,100.37,0,0,1,9.87,10.52C1228.63,714.05,1225.72,712,1231.21,713.4Z"/><path class="cls-2" d="M1231.21,713.4c-3.71-19.63-58.54-70.86-65.71-82-2.51-3.91-5.54-12.57-9.3-9.07-2.22,2.07,9.55,20.83,12.06,26.17,16.22,34.54,6,11.76,41.16,44.19a100.37,100.37,0,0,1,9.87,10.52C1228.63,714.05,1225.72,712,1231.21,713.4Z"/><path class="cls-1" d="M1544.46,697c9-15.14-9.27-22.13-22-23.57,3,7.78,5.33,1.3,14.48,19.21C1540.7,699.94,1535.66,697.23,1544.46,697Z"/><path class="cls-2" d="M1544.46,697c9-15.14-9.27-22.13-22-23.57,3,7.78,5.33,1.3,14.48,19.21C1540.7,699.94,1535.66,697.23,1544.46,697Z"/><path class="cls-3" d="M1178.16,763.08c1.93,3.3,8.13,10.44,13.85,19.36a225.23,225.23,0,0,1,14.62,27.83c3.68,8.21,5.81,13.92,7,15.44s1.36-1.16.39-7.14-3.1-15.26-4.94-22-3.39-11.06-6.49-15.61a73.69,73.69,0,0,0-11.62-12.75,40.18,40.18,0,0,0-9.68-6.6C1178.54,760.32,1176.22,759.78,1178.16,763.08Z"/><path class="cls-2" d="M1178.16,763.08c1.93,3.3,8.13,10.44,13.85,19.36a225.23,225.23,0,0,1,14.62,27.83c3.68,8.21,5.81,13.92,7,15.44s1.36-1.16.39-7.14-3.1-15.26-4.94-22-3.39-11.06-6.49-15.61a73.69,73.69,0,0,0-11.62-12.75,40.18,40.18,0,0,0-9.68-6.6C1178.54,760.32,1176.22,759.78,1178.16,763.08Z"/><path class="cls-3" d="M1231.71,588.68c0,2.77,1.45,10,1.89,16s-.15,10.7.24,13.16,1.75,2.63,3,2.18,2.27-1.51,2.71-4.55a42.66,42.66,0,0,0-.68-12.71,48.23,48.23,0,0,0-4.12-12.09C1233.16,587.61,1231.71,585.91,1231.71,588.68Z"/><path class="cls-2" d="M1231.71,588.68c0,2.77,1.45,10,1.89,16s-.15,10.7.24,13.16,1.75,2.63,3,2.18,2.27-1.51,2.71-4.55a42.66,42.66,0,0,0-.68-12.71,48.23,48.23,0,0,0-4.12-12.09C1233.16,587.61,1231.71,585.91,1231.71,588.68Z"/><path class="cls-3" d="M938,712.46c.43,2.45,3,7.89,5.23,12.89s4.31,9.54,6.34,13.74,4.07,8,5.47,10.61,2.18,3.93,2.95,4.37,1.55,0,1.94-1.38a16.73,16.73,0,0,0,0-6.11,52.37,52.37,0,0,0-1.7-7.23,27,27,0,0,0-2.85-7c-1.5-2.49-3.83-5.35-5.91-8.16s-3.92-5.57-5.33-7.76-2.37-3.79-3.68-4.86S937.6,710,938,712.46Z"/><path class="cls-2" d="M938,712.46c.43,2.45,3,7.89,5.23,12.89s4.31,9.54,6.34,13.74,4.07,8,5.47,10.61,2.18,3.93,2.95,4.37,1.55,0,1.94-1.38a16.73,16.73,0,0,0,0-6.11,52.37,52.37,0,0,0-1.7-7.23,27,27,0,0,0-2.85-7c-1.5-2.49-3.83-5.35-5.91-8.16s-3.92-5.57-5.33-7.76-2.37-3.79-3.68-4.86S937.6,710,938,712.46Z"/><path d="M1528.76,1233.14a16,16,0,0,0,.24,3.22,4,4,0,0,0,.84,1.77,4.1,4.1,0,0,0,1.75,1.06,13.68,13.68,0,0,0,2.87.59c1.15.13,2.67.23,4.56.28v3.34h-31.73v-3.34a51.28,51.28,0,0,0,5.82-.5,6.93,6.93,0,0,0,2.67-.94,3.52,3.52,0,0,0,1.34-1.76,11.77,11.77,0,0,0,.42-3.72v-26.58a3.32,3.32,0,0,0-.57-2.17,2,2,0,0,0-1.56-.66,6.29,6.29,0,0,0-2.59.85,56,56,0,0,0-5.5,3.45l-2.24-3.89,19.19-11.51H1529q-.23,3.52-.22,9.78Z"/><path d="M1557.66,1241.82v-2.65a20.42,20.42,0,0,0,4.19-.44,15.55,15.55,0,0,0,4-1.41,13.52,13.52,0,0,0,3.33-2.41,16.2,16.2,0,0,0,2.94-4,22.33,22.33,0,0,0,1.85-4.88,39.8,39.8,0,0,0,1-5.51l-.36-.15a19.29,19.29,0,0,1-12.14,3.72,13.84,13.84,0,0,1-7.37-1.86,11.57,11.57,0,0,1-4.54-5.18,18.78,18.78,0,0,1-1.51-7.78,16.69,16.69,0,0,1,2.3-8.73,15,15,0,0,1,6.6-5.9,23.28,23.28,0,0,1,10.19-2.06,19,19,0,0,1,10,2.44,14.82,14.82,0,0,1,6.06,7.12,28.44,28.44,0,0,1,2,11.28,36.73,36.73,0,0,1-3.13,15.85,23.77,23.77,0,0,1-9.1,10.33,31.27,31.27,0,0,1-14.43,4.34Zm9.12-22.72a12.08,12.08,0,0,0,2.54-.26,9,9,0,0,0,2.22-.79,9.7,9.7,0,0,0,2-1.29,5.6,5.6,0,0,0,1.19-1.23,4.4,4.4,0,0,0,.5-1.39,12.63,12.63,0,0,0,.2-2.5q0-7.22-1.93-11.05c-1.28-2.56-3.17-3.84-5.64-3.84a7.34,7.34,0,0,0-3.66.84,6.78,6.78,0,0,0-2.43,2.39,11.07,11.07,0,0,0-1.34,3.7,25.57,25.57,0,0,0-.4,4.72Q1560,1219.09,1566.78,1219.1Z"/><path d="M1632.89,1195.64l-20.4,47.87H1605V1241l18.45-37.4V1203H1607a10.89,10.89,0,0,0-2.61.26,3.68,3.68,0,0,0-1.61.83,4.1,4.1,0,0,0-1,1.49,19.28,19.28,0,0,0-.82,2.86h-4.27l1-15.25h35.22Z"/><path d="M1644.26,1241.12v-9.19h6.65a11.87,11.87,0,0,0,2.94,6,7.18,7.18,0,0,0,5.22,2c2.67,0,4.65-.83,5.92-2.48s1.91-4.21,1.91-7.67-.82-6-2.46-7.79-4-2.68-7.13-2.68a24.78,24.78,0,0,0-3.88.33,29.1,29.1,0,0,0-3.7.81l-3.3-2.06v-25.11h21.72a7.36,7.36,0,0,0,2-.19,2.2,2.2,0,0,0,1-.62,6,6,0,0,0,.88-1.62h4l-.74,11.73h-22.57v13.23a29.79,29.79,0,0,1,4.5-1,42.56,42.56,0,0,1,5.64-.31,17.88,17.88,0,0,1,8,1.69,12.36,12.36,0,0,1,5.33,4.91,14.62,14.62,0,0,1,1.9,7.55,15.15,15.15,0,0,1-2.28,8.51,13.67,13.67,0,0,1-6.59,5.15A27.81,27.81,0,0,1,1659,1244a42,42,0,0,1-7.87-.77A30.35,30.35,0,0,1,1644.26,1241.12Z"/><path d="M605.48,1185.91a46,46,0,0,1,10.25,1,22.86,22.86,0,0,1,7.32,3,18.12,18.12,0,0,1,5.17,4.9,20.45,20.45,0,0,1,2.92,6.62,35,35,0,0,1,1,8.51,36.27,36.27,0,0,1-1.34,10.3,21.57,21.57,0,0,1-4,7.79,19.48,19.48,0,0,1-5.87,4.78,26,26,0,0,1-8,2.65,60.55,60.55,0,0,1-9.82.66H586.36v-2.43a9.94,9.94,0,0,0,2.15-.79,2.7,2.7,0,0,0,1.17-1.17,5.22,5.22,0,0,0,.5-1.92c.07-.77.11-1.74.11-2.92v-31.69q0-1.73-.09-2.91a4.9,4.9,0,0,0-.48-1.91,2.94,2.94,0,0,0-1.18-1.19,8.9,8.9,0,0,0-2.18-.83v-2.43Zm-3.79,45.74a29.59,29.59,0,0,0,3.34.11,17.47,17.47,0,0,0,6.81-1.17,10.23,10.23,0,0,0,3.49-2.43,16.29,16.29,0,0,0,3.6-6.58,38,38,0,0,0,1.32-10.77,31,31,0,0,0-1.87-11.6,14.06,14.06,0,0,0-5.28-6.81,14.77,14.77,0,0,0-8.14-2.18c-1.52,0-2.61,0-3.27.07Z"/><path d="M677.69,1185.91v11.7h-5a22.18,22.18,0,0,0-2.06-4.73,6.57,6.57,0,0,0-2-2,8.26,8.26,0,0,0-4-.71h-8v17.64h4.85a5.71,5.71,0,0,0,2.54-.46,3.59,3.59,0,0,0,1.52-1.52,13.59,13.59,0,0,0,1.16-3.31h4.16v14.93h-4.16a13.23,13.23,0,0,0-1.14-3.26,3.94,3.94,0,0,0-1.49-1.6,5.61,5.61,0,0,0-2.59-.47h-4.85v19.63h8a12.09,12.09,0,0,0,2.17-.17,5,5,0,0,0,1.58-.57,5.79,5.79,0,0,0,1.34-1.1,9.8,9.8,0,0,0,1.14-1.51,16.28,16.28,0,0,0,1-2.13,36.5,36.5,0,0,0,1.21-3.64h5l-.7,13.42H641.22v-2.43a9.94,9.94,0,0,0,2.15-.79,2.7,2.7,0,0,0,1.17-1.17,5.22,5.22,0,0,0,.5-1.92c.07-.77.11-1.74.11-2.92v-31.69q0-1.73-.09-2.91a4.9,4.9,0,0,0-.48-1.91,2.94,2.94,0,0,0-1.18-1.19,8.9,8.9,0,0,0-2.18-.83v-2.43Z"/><path d="M691.11,1223.71a12.86,12.86,0,0,0,3.07,6.53q2.16,2.15,6.31,2.15a9.9,9.9,0,0,0,3.9-.74,6.06,6.06,0,0,0,2.77-2.37,7.45,7.45,0,0,0,1.05-4.1,8.55,8.55,0,0,0-.85-4,9.76,9.76,0,0,0-2.72-3.18,30.2,30.2,0,0,0-5.22-3.2,48.54,48.54,0,0,1-5.18-3,20.07,20.07,0,0,1-4-3.4,14.33,14.33,0,0,1-2.54-4.06,14.24,14.24,0,0,1,1.34-12.65,13.76,13.76,0,0,1,6.49-4.8,27.28,27.28,0,0,1,9.84-1.63,52.22,52.22,0,0,1,6.25.35,62.72,62.72,0,0,1,6.8,1.23v10.66h-5a15.56,15.56,0,0,0-1.78-4.61,6.9,6.9,0,0,0-2.7-2.52,10.37,10.37,0,0,0-7.84-.08,6,6,0,0,0-2.61,2.19,6.31,6.31,0,0,0-1,3.51,7.71,7.71,0,0,0,.83,3.7,9.65,9.65,0,0,0,2.77,3,39.48,39.48,0,0,0,5.66,3.4,37.09,37.09,0,0,1,7.12,4.61A13.67,13.67,0,0,1,719,1222a14.44,14.44,0,0,1-2.09,7.84,13.43,13.43,0,0,1-6.11,5.12,22.73,22.73,0,0,1-9.26,1.78,75.86,75.86,0,0,1-7.81-.42,66.11,66.11,0,0,1-7.63-1.24v-11.32Z"/><path d="M746.09,1185.91a46,46,0,0,1,10.25,1,22.86,22.86,0,0,1,7.32,3,18.12,18.12,0,0,1,5.17,4.9,20.45,20.45,0,0,1,2.92,6.62,34.56,34.56,0,0,1,1,8.51,36.27,36.27,0,0,1-1.34,10.3,21.57,21.57,0,0,1-4,7.79,19.48,19.48,0,0,1-5.87,4.78,26,26,0,0,1-8,2.65,60.55,60.55,0,0,1-9.82.66H727v-2.43a9.94,9.94,0,0,0,2.15-.79,2.7,2.7,0,0,0,1.17-1.17,5.22,5.22,0,0,0,.5-1.92c.07-.77.11-1.74.11-2.92v-31.69q0-1.73-.09-2.91a4.9,4.9,0,0,0-.48-1.91,2.94,2.94,0,0,0-1.18-1.19,8.9,8.9,0,0,0-2.18-.83v-2.43Zm-3.79,45.74a29.59,29.59,0,0,0,3.34.11,17.47,17.47,0,0,0,6.81-1.17,10.23,10.23,0,0,0,3.49-2.43,16.29,16.29,0,0,0,3.6-6.58,38,38,0,0,0,1.33-10.77,31,31,0,0,0-1.88-11.6,14.06,14.06,0,0,0-5.28-6.81,14.77,14.77,0,0,0-8.14-2.18c-1.52,0-2.61,0-3.27.07Z"/><path d="M818.3,1185.91v11.7h-5a22.18,22.18,0,0,0-2.06-4.73,6.57,6.57,0,0,0-2-2,8.26,8.26,0,0,0-4-.71h-8v17.64H802a5.71,5.71,0,0,0,2.54-.46,3.59,3.59,0,0,0,1.52-1.52,13.18,13.18,0,0,0,1.16-3.31h4.16v14.93h-4.16a13.23,13.23,0,0,0-1.14-3.26,3.94,3.94,0,0,0-1.49-1.6,5.61,5.61,0,0,0-2.59-.47h-4.85v19.63h8a12.09,12.09,0,0,0,2.17-.17,5,5,0,0,0,1.58-.57,5.79,5.79,0,0,0,1.34-1.1,9.8,9.8,0,0,0,1.14-1.51,16.28,16.28,0,0,0,1-2.13,36.5,36.5,0,0,0,1.21-3.64h5l-.7,13.42H781.83v-2.43a9.94,9.94,0,0,0,2.15-.79,2.7,2.7,0,0,0,1.17-1.17,5.22,5.22,0,0,0,.5-1.92c.07-.77.11-1.74.11-2.92v-31.69q0-1.73-.09-2.91a4.9,4.9,0,0,0-.48-1.91,2.94,2.94,0,0,0-1.18-1.19,8.9,8.9,0,0,0-2.18-.83v-2.43Z"/><path d="M612.47,1640.86v-6.25a24.42,24.42,0,0,0,6.29-1.75,7.47,7.47,0,0,0,3.46-3.08,12.41,12.41,0,0,0,1.42-5.06c.19-2,.28-4.6.28-7.63v-94.4h-7.67a22.61,22.61,0,0,0-8.71,1.32,13.5,13.5,0,0,0-5.25,4.17,25.28,25.28,0,0,0-3.84,7.62c-1.07,3.19-2,6.2-2.65,9h-13v-33.23H694.28v33.23h-13q-1.8-6.43-2.84-9.47a28.13,28.13,0,0,0-2.32-5.16,18.23,18.23,0,0,0-2.7-3.55,13,13,0,0,0-3-2.27,14,14,0,0,0-4-1.28,38.08,38.08,0,0,0-6.29-.42h-6.82v94.4a76.18,76.18,0,0,0,.28,7.63,13.61,13.61,0,0,0,1,4.21,8.2,8.2,0,0,0,1.85,2.6,10.19,10.19,0,0,0,3,1.8,21.94,21.94,0,0,0,5.26,1.28v6.25Z"/><path d="M764.64,1640.86H714.92v-6.25a27.25,27.25,0,0,0,5.54-2,7,7,0,0,0,3-3,13.59,13.59,0,0,0,1.28-4.93q.29-3,.29-7.53v-81.62q0-4.46-.24-7.48a12.93,12.93,0,0,0-1.23-4.93,7.7,7.7,0,0,0-3-3.07,23.22,23.22,0,0,0-5.64-2.13v-6.25h55.21a98.54,98.54,0,0,1,19,1.56A48.06,48.06,0,0,1,802.8,1518a28.41,28.41,0,0,1,8.33,6.68,29,29,0,0,1,5.26,9.37,38.22,38.22,0,0,1,1.84,12.45,35.78,35.78,0,0,1-3.26,15.91,31.88,31.88,0,0,1-8.81,11,62.78,62.78,0,0,1-14.82,8.29v1a33.22,33.22,0,0,1,11.6,8.09,53.12,53.12,0,0,1,8.29,12.83l6,12.88q4,8.63,7.91,12.93a16.16,16.16,0,0,0,9.32,5.25v6.25H798q-5.49-7.58-12.41-22.54l-7.38-16.19a56.34,56.34,0,0,0-5.68-10.22,13.6,13.6,0,0,0-4.88-4.17c-1.67-.76-4.25-1.14-7.72-1.14h-5.49v30.49a50.64,50.64,0,0,0,.66,10,8.52,8.52,0,0,0,2.56,4.54q1.89,1.71,7,3Zm-10.23-118v52.64h9.37a32.91,32.91,0,0,0,12.5-2,19,19,0,0,0,7.82-5.68,20.82,20.82,0,0,0,4-8.57,49.75,49.75,0,0,0,1.09-10.8q0-12.87-6.06-19.32t-18-6.43Q757,1522.69,754.41,1522.88Z"/><path d="M889.32,1617.09c0,2.21.06,4.27.19,6.16a19.94,19.94,0,0,0,.75,4.64,8.21,8.21,0,0,0,1.66,3,9.13,9.13,0,0,0,3,2.13,23.89,23.89,0,0,0,4.64,1.56v6.25H849.83v-6.25a27.48,27.48,0,0,0,5.54-2,7,7,0,0,0,3-3,13.79,13.79,0,0,0,1.28-4.93q.29-3,.28-7.53v-81.72q0-4.55-.23-7.48a12.86,12.86,0,0,0-1.24-4.87,7.25,7.25,0,0,0-3-3.08,24.47,24.47,0,0,0-5.63-2.08v-6.25h49.71v6.25a21.16,21.16,0,0,0-5.73,2.22A8.09,8.09,0,0,0,891,1523a13,13,0,0,0-1.33,4.45,64.37,64.37,0,0,0-.37,8Z"/><path d="M992.2,1600.81H951.77l-3.13,9a74.68,74.68,0,0,0-2.17,7.34,32.11,32.11,0,0,0-.86,7.53q0,9.28,9.85,9.94v6.25H915v-6.25a11.78,11.78,0,0,0,6.15-2.46,20.74,20.74,0,0,0,4.83-5.68,61.85,61.85,0,0,0,4.64-10.32l39.49-105.21h25.28L1026.67,1617a76.71,76.71,0,0,0,3.5,10.08,13.65,13.65,0,0,0,3.7,4.83,14.77,14.77,0,0,0,6.34,2.7v6.25H987.94v-6.25q4.92-.57,7.29-2.74a8,8,0,0,0,2.37-6.16,36.45,36.45,0,0,0-.66-6.53c-.45-2.4-1.17-5.43-2.18-9.09Zm-1-129,21.4,23.76-6.72,6.35-22.54-15.82h-1L959.53,1502,953,1495.6l21.68-23.76Zm-35.79,117.89h34.09l-15.15-53.31Z"/><path d="M1172,1511.61v6.25a34.51,34.51,0,0,0-5.35,2.08,8.39,8.39,0,0,0-2.65,2.27,10.49,10.49,0,0,0-1.66,4.31,50,50,0,0,0-.57,8.85v105.49h-24l-42.61-73.67q-8.62-15-12.69-23.48h-.85q.95,20.36.94,43v30.49a47.27,47.27,0,0,0,.71,9.94,8.71,8.71,0,0,0,2.56,4.5c1.23,1.1,3.55,2.1,7,3v6.25H1057v-6.25a25,25,0,0,0,5.54-2.08,7.37,7.37,0,0,0,3-3.08,13.42,13.42,0,0,0,1.27-4.88q.29-2.92.29-7.38v-81.91a51.57,51.57,0,0,0-.62-9.8,8.6,8.6,0,0,0-2.55-4.5q-2-1.8-7-3.12v-6.25h38.35l33.52,58.23q3.12,5.49,8.14,14.87t8.9,17.71h1.52q-1-22.64-1-49.43v-17.62a58,58,0,0,0-.48-8.9,10.33,10.33,0,0,0-1.46-4.16,8.05,8.05,0,0,0-2.66-2.37,27.52,27.52,0,0,0-5.54-2.08v-6.25Z"/><path d="M1289.05,1515.11V1542h-13a44.73,44.73,0,0,0-5-12.26,17.61,17.61,0,0,0-7.2-6.44,28.33,28.33,0,0,0-27.88,3.6q-7.2,5.73-11.37,18.27t-4.16,31.77a129.89,129.89,0,0,0,2.79,28.74q2.79,12.18,8.52,18.89a17.87,17.87,0,0,0,14.16,6.73q8.33,0,12.31-5t4-15.86v-3.6a75.88,75.88,0,0,0-.48-10.28,11.82,11.82,0,0,0-1.46-4.59,7.89,7.89,0,0,0-2.61-2.46,29,29,0,0,0-5.68-2.18v-6.25h48.48v6.25q-4.73,1.42-6.44,3.22a9.64,9.64,0,0,0-2.32,4.78,44,44,0,0,0-.61,8.38v35.7l-13.64,2.84-6.44-6.82a48.42,48.42,0,0,1-25.85,6.92q-27.64,0-41.24-16.15t-13.58-48.91q0-17.23,4.82-30.3t13.4-21.26a53.08,53.08,0,0,1,19.32-11.93,69.74,69.74,0,0,1,23.06-3.74A136.66,136.66,0,0,1,1289.05,1515.11Z"/><path d="M1403.82,1535.37a53.4,53.4,0,0,0-.61-9.89,8.65,8.65,0,0,0-2.42-4.5c-1.2-1.13-3.53-2.18-7-3.12v-6.25h41.67v6.25a26.49,26.49,0,0,0-5.4,2,7.43,7.43,0,0,0-3,3,13,13,0,0,0-1.32,4.93q-.29,3-.29,7.52v59.19a86.19,86.19,0,0,1-1.89,19.65,36.65,36.65,0,0,1-5.87,13.3,30.82,30.82,0,0,1-9.9,8.71,44.09,44.09,0,0,1-13.3,4.74,88.78,88.78,0,0,1-16.57,1.42q-13.45,0-22.73-2.8a36.34,36.34,0,0,1-15.1-8.42,34.35,34.35,0,0,1-8.62-13.69q-2.79-8-2.79-20.73v-61.27q0-4.46-.24-7.48a12.93,12.93,0,0,0-1.23-4.93,7.7,7.7,0,0,0-3-3.07,23.22,23.22,0,0,0-5.64-2.13v-6.25h49.72v6.25a21.16,21.16,0,0,0-5.73,2.22,8.21,8.21,0,0,0-2.8,2.89,12.82,12.82,0,0,0-1.32,4.45,64,64,0,0,0-.38,8V1598a90.17,90.17,0,0,0,1,13.63,30.6,30.6,0,0,0,3.45,10.56,17.18,17.18,0,0,0,7,6.77q4.45,2.37,11.46,2.37,9.66,0,14.39-3.88a20.75,20.75,0,0,0,6.68-10.85q1.93-7,1.94-20.78Z"/><path d="M1508.51,1511.61v6.25a26,26,0,0,0-5.4,2,7.78,7.78,0,0,0-3.08,3,12.58,12.58,0,0,0-1.42,4.87,70.67,70.67,0,0,0-.33,7.53v94.31h18.37a19.32,19.32,0,0,0,8.81-1.7,15.6,15.6,0,0,0,5.73-5.26,34.77,34.77,0,0,0,4.16-9.28q1.76-5.73,2.8-10.74h13l-2.09,38.25h-90.24v-6.25a24.82,24.82,0,0,0,5.54-2.08,7.25,7.25,0,0,0,3-3.08,13.48,13.48,0,0,0,1.28-4.92q.28-3,.29-7.53v-81.53q0-4.46-.24-7.48a12.93,12.93,0,0,0-1.23-4.93,7.7,7.7,0,0,0-3-3.07,23.22,23.22,0,0,0-5.64-2.13v-6.25Z"/><path d="M1625.9,1642.38q-27.84,0-41.81-16.29t-14-48.77q0-21.3,6.77-36.41t19.93-23q13.17-7.86,31.35-7.86,28.3,0,42.51,16.24t14.21,48.25q0,17.89-4.22,30.73t-12,21.06a46.78,46.78,0,0,1-18.61,12.12A71.33,71.33,0,0,1,1625.9,1642.38Zm-25.67-67.61q0,28.59,6.87,42.56t21,14a19.77,19.77,0,0,0,12.41-3.93,27.86,27.86,0,0,0,8.28-11,62,62,0,0,0,4.55-16.71,152.12,152.12,0,0,0,1.37-21.21q0-18.84-3-31.58t-9-19.22a20,20,0,0,0-15.38-6.49q-13.74,0-20.41,13.12T1600.23,1574.77Z"/><path d="M835.09,1343.75v24.76H824.43q-2.58-7.4-4.36-10a14.14,14.14,0,0,0-4.29-4.13q-2.49-1.52-8.48-1.52h-17v37.37H800.6a12.19,12.19,0,0,0,5.38-1,7.72,7.72,0,0,0,3.23-3.23,29.23,29.23,0,0,0,2.45-7h8.8v31.6h-8.8a28.86,28.86,0,0,0-2.41-6.89,8.4,8.4,0,0,0-3.16-3.38,11.61,11.61,0,0,0-5.49-1H790.33v41.57h16.89a25.67,25.67,0,0,0,4.59-.35,10.58,10.58,0,0,0,3.35-1.21A12.28,12.28,0,0,0,818,1437a20.37,20.37,0,0,0,2.42-3.2,33.3,33.3,0,0,0,2.22-4.51,74.86,74.86,0,0,0,2.56-7.71h10.67L834.39,1450H757.86v-5.14a22.18,22.18,0,0,0,4.56-1.68,5.71,5.71,0,0,0,2.49-2.49,11.18,11.18,0,0,0,1.05-4c.16-1.64.23-3.7.23-6.19v-67.11q0-3.66-.19-6.15a10.62,10.62,0,0,0-1-4,6.37,6.37,0,0,0-2.49-2.53,19.11,19.11,0,0,0-4.64-1.75v-5.14Z"/><path d="M866.11,1423.78q1.95,9.27,6.5,13.82t13.35,4.55a20.85,20.85,0,0,0,8.25-1.55,12.83,12.83,0,0,0,5.88-5,15.81,15.81,0,0,0,2.22-8.68,18.38,18.38,0,0,0-1.79-8.37,21,21,0,0,0-5.76-6.74A64.87,64.87,0,0,0,883.7,1405a102.12,102.12,0,0,1-11-6.31,42.48,42.48,0,0,1-8.37-7.2,30.22,30.22,0,0,1-5.37-8.6,27.42,27.42,0,0,1-1.91-10.51q0-9.57,4.75-16.27A29.07,29.07,0,0,1,875.57,1346a57.65,57.65,0,0,1,20.82-3.46,112.31,112.31,0,0,1,13.24.74,135.47,135.47,0,0,1,14.4,2.6v22.58H913.36a32.49,32.49,0,0,0-3.77-9.77,14.4,14.4,0,0,0-5.72-5.33,21.9,21.9,0,0,0-16.58-.16,12.56,12.56,0,0,0-5.53,4.63,13.25,13.25,0,0,0-2,7.44,16.44,16.44,0,0,0,1.76,7.82,20.4,20.4,0,0,0,5.87,6.46,82.63,82.63,0,0,0,12,7.21,77.18,77.18,0,0,1,15.07,9.77,31.32,31.32,0,0,1,8.09,10.43,30.92,30.92,0,0,1,2.61,13.11,30.54,30.54,0,0,1-4.44,16.63,28.48,28.48,0,0,1-12.92,10.82,48,48,0,0,1-19.62,3.77,161.75,161.75,0,0,1-16.54-.89,138,138,0,0,1-16.15-2.61v-24Z"/><path d="M964.7,1450v-5.14a20.12,20.12,0,0,0,5.18-1.44,6.18,6.18,0,0,0,2.84-2.53,10.39,10.39,0,0,0,1.17-4.17q.23-2.52.23-6.26v-77.62h-6.3a18.46,18.46,0,0,0-7.17,1.09,11.15,11.15,0,0,0-4.32,3.43,20.86,20.86,0,0,0-3.15,6.26q-1.32,3.93-2.18,7.44H940.34v-27.33H1032v27.33H1021.3q-1.49-5.3-2.34-7.79a22.53,22.53,0,0,0-1.9-4.24,15,15,0,0,0-2.22-2.92,10.55,10.55,0,0,0-2.49-1.87,11.21,11.21,0,0,0-3.31-1,31.35,31.35,0,0,0-5.18-.35h-5.6v77.62a61.14,61.14,0,0,0,.23,6.26,10.77,10.77,0,0,0,.86,3.47,6.83,6.83,0,0,0,1.51,2.14,8.7,8.7,0,0,0,2.49,1.48,18.63,18.63,0,0,0,4.33,1.05V1450Z"/><path d="M1090.54,1417.09H1057.3l-2.57,7.39c-.73,2.08-1.32,4.09-1.79,6a26.33,26.33,0,0,0-.7,6.19q0,7.63,8.09,8.18V1450h-33.24v-5.14a9.65,9.65,0,0,0,5.06-2,16.79,16.79,0,0,0,4-4.67,50.22,50.22,0,0,0,3.82-8.48l32.46-86.49h20.79l25.69,87.19a62.16,62.16,0,0,0,2.88,8.29,11.34,11.34,0,0,0,3,4,12.25,12.25,0,0,0,5.22,2.22V1450h-43v-5.14a10.44,10.44,0,0,0,6-2.26,6.52,6.52,0,0,0,2-5.06,29.28,29.28,0,0,0-.55-5.37q-.54-3-1.79-7.47Zm-.86-106,17.6,19.54-5.53,5.21-18.53-13h-.85l-18.69,13-5.37-5.21,17.83-19.54ZM1060.26,1408h28l-12.45-43.83Z"/><path d="M1239.89,1343.75v5.14a30.23,30.23,0,0,0-4.4,1.71,7,7,0,0,0-2.18,1.87A8.57,8.57,0,0,0,1232,1356a41.33,41.33,0,0,0-.47,7.28V1450h-19.77l-35-60.57q-7.1-12.3-10.44-19.31h-.7q.78,16.74.78,35.35v25.06a38.55,38.55,0,0,0,.59,8.18,7.16,7.16,0,0,0,2.1,3.7q1.52,1.35,5.72,2.45V1450H1145.3v-5.14a20.93,20.93,0,0,0,4.56-1.71,6.12,6.12,0,0,0,2.49-2.53,11.38,11.38,0,0,0,1.05-4c.16-1.61.23-3.64.23-6.08v-67.34a43.16,43.16,0,0,0-.5-8,7.11,7.11,0,0,0-2.1-3.7c-1.07-1-3-1.84-5.73-2.57v-5.14h31.53l27.56,47.88q2.56,4.51,6.7,12.22t7.31,14.56h1.25q-.86-18.6-.86-40.64v-14.48a48.24,48.24,0,0,0-.39-7.32,8.68,8.68,0,0,0-1.2-3.42,6.75,6.75,0,0,0-2.18-2,22.91,22.91,0,0,0-4.56-1.71v-5.14Z"/><path d="M1335.6,1346.17v22.57H1325q-1.87-8.79-5.92-13a14.09,14.09,0,0,0-10.59-4.16q-12.3,0-18.6,11.79t-6.31,35q0,21.57,5.76,32.66t16.89,11.09a19.71,19.71,0,0,0,9.27-1.9,14.15,14.15,0,0,0,5.72-5.73,40.71,40.71,0,0,0,3.7-10.74h10.66v23.59a158.07,158.07,0,0,1-15.64,3,113.14,113.14,0,0,1-14.72.93q-16.18,0-26.43-5.84a34.86,34.86,0,0,1-15.1-17.63q-4.86-11.79-4.87-29.85,0-16.9,5.73-29.39a42.72,42.72,0,0,1,16.85-19.27q11.13-6.78,26.62-6.77a108,108,0,0,1,14.25.85A96.44,96.44,0,0,1,1335.6,1346.17Z"/><path d="M1387.93,1430.48c0,1.81,0,3.5.15,5.06a17,17,0,0,0,.63,3.81,6.65,6.65,0,0,0,1.36,2.49,7.31,7.31,0,0,0,2.45,1.75,19.09,19.09,0,0,0,3.82,1.29V1450h-40.88v-5.14a22.18,22.18,0,0,0,4.56-1.68,5.76,5.76,0,0,0,2.49-2.49,11.18,11.18,0,0,0,1-4c.16-1.64.23-3.7.23-6.19v-67.19q0-3.74-.19-6.15a10.8,10.8,0,0,0-1-4,6.12,6.12,0,0,0-2.49-2.53,20.63,20.63,0,0,0-4.64-1.71v-5.14h40.88v5.14a17.42,17.42,0,0,0-4.71,1.83,6.66,6.66,0,0,0-2.3,2.37,10.64,10.64,0,0,0-1.09,3.66,51.93,51.93,0,0,0-.31,6.62Z"/><path d="M1470.38,1417.09h-33.24l-2.57,7.39c-.73,2.08-1.32,4.09-1.79,6a26.33,26.33,0,0,0-.7,6.19q0,7.63,8.1,8.18V1450h-33.24v-5.14a9.72,9.72,0,0,0,5.06-2,17.13,17.13,0,0,0,4-4.67,51.14,51.14,0,0,0,3.81-8.48l32.46-86.49H1473l25.69,87.19a62.16,62.16,0,0,0,2.88,8.29,11.24,11.24,0,0,0,3,4,12.15,12.15,0,0,0,5.21,2.22V1450h-43v-5.14a10.38,10.38,0,0,0,6-2.26,6.52,6.52,0,0,0,2-5.06,29.28,29.28,0,0,0-.55-5.37q-.54-3-1.79-7.47ZM1440.1,1408h28l-12.45-43.83Z"/><rect class="cls-4" x="516.18" y="1267.74" width="1235.35" height="14.3"/><path d="M733.56,1772.65a22.46,22.46,0,0,1-4.14,4.78,11.88,11.88,0,0,1-4.57,2.26,20.63,20.63,0,0,1-7.1.48,51.48,51.48,0,0,1-10.88-2.31c.19-1.58.39-3.16.59-4.73a22.09,22.09,0,0,0,4.62.62,7,7,0,0,0,2.75-.5,7.64,7.64,0,0,0,2.18-1.56,25,25,0,0,0,2.72-3.36q11.26-15.84,22.74-31.63c.66-.91,1.18-1.69,1.57-2.34a4,4,0,0,0,.63-1.78,2.78,2.78,0,0,0-.47-1.63,10.62,10.62,0,0,0-1.66-1.92l1.41-1.9q9.4,5.61,18.92,10.92l-1.33,2a10.54,10.54,0,0,0-2.73-.55,3.87,3.87,0,0,0-1.69.31,5.07,5.07,0,0,0-1.43,1.07,21,21,0,0,0-1.88,2.41Q743.6,1757.93,733.56,1772.65Z"/><path d="M769.52,1756.75q7.26,3.84,14.56,7.54-5.13,8.39-10.19,16.78a38.88,38.88,0,0,0-2.5,4.66,6.72,6.72,0,0,0-.66,3,4.08,4.08,0,0,0,.81,2.21,6,6,0,0,0,2.2,1.66,8.71,8.71,0,0,0,3.49.82,9.39,9.39,0,0,0,3.87-.64,5,5,0,0,0,2.68-2.16q3.39-5.9,6.81-11.79c.86-1.49,1.46-2.61,1.81-3.37a5.44,5.44,0,0,0,.54-1.91,2.64,2.64,0,0,0-.4-1.51,8.51,8.51,0,0,0-1.78-1.87l1.19-2q7.35,3.61,14.74,7-6,10.79-12,21.58c-.86,1.56-1.45,2.71-1.78,3.46a5,5,0,0,0-.49,1.94,2.76,2.76,0,0,0,.58,1.6,9.58,9.58,0,0,0,2.28,2l-1.11,2.07q-5.54-2.35-11-4.79l-4.83-2.31,2.87-4.23-.42-.32a32.63,32.63,0,0,1-8.7.45,19,19,0,0,1-6.45-1.88,16.09,16.09,0,0,1-6-4.6,7.43,7.43,0,0,1-1.45-5.35,16.26,16.26,0,0,1,2.62-6.49q3.45-5.49,6.92-11c.71-1.12,1.24-2,1.58-2.6a12.56,12.56,0,0,0,.72-1.49,4.78,4.78,0,0,0,.25-1.06,2.78,2.78,0,0,0-.1-1,3.54,3.54,0,0,0-.59-1.11,8.63,8.63,0,0,0-1.36-1.36Z"/><path d="M853.48,1832.31q-9.88-3.64-19.72-7.56l1-2.1a5.78,5.78,0,0,0,3,0,4.12,4.12,0,0,0,1.83-1.46,24.07,24.07,0,0,0,2.16-4.08c1.28-2.84,2.58-5.67,3.87-8.51.69-1.5,1.22-2.76,1.58-3.75a15.87,15.87,0,0,0,.72-2.52,5.06,5.06,0,0,0,0-1.82,4.91,4.91,0,0,0-.52-1.41,3.81,3.81,0,0,0-1-1.08,7.32,7.32,0,0,0-1.7-.9,7.84,7.84,0,0,0-3.41-.49,9.13,9.13,0,0,0-3.67,1,5.1,5.1,0,0,0-2.43,2.35q-2.94,6.09-5.84,12.17a26.26,26.26,0,0,0-1.75,4.27,3.48,3.48,0,0,0,.1,2.25,5.46,5.46,0,0,0,2.16,2.1c-.33.7-.65,1.4-1,2.09q-9.78-4-19.51-8.18l1.05-2.06a6.87,6.87,0,0,0,3.2.09,4,4,0,0,0,1.9-1.36,26.39,26.39,0,0,0,2.31-4q3.23-6.43,6.49-12.88c.78-1.55,1.32-2.7,1.64-3.47a5,5,0,0,0,.44-2,2.77,2.77,0,0,0-.55-1.57,8.92,8.92,0,0,0-2.22-1.86c.37-.71.74-1.42,1.1-2.13q5.31,2.16,10.61,4.23l4.83,2-2.79,4.31.42.29a52.54,52.54,0,0,1,5.52-1,22.34,22.34,0,0,1,4.55-.06,18.06,18.06,0,0,1,9.35,3.85,8.2,8.2,0,0,1,2.41,3.48,8.86,8.86,0,0,1,.31,4.23,20.49,20.49,0,0,1-1.54,5.06q-2.57,5.87-5.1,11.74-.6,1.41-1.08,2.67a8.47,8.47,0,0,0-.54,2.09,3.37,3.37,0,0,0,.15,1.45,3.25,3.25,0,0,0,.86,1.23,10.15,10.15,0,0,0,1.63,1.24C854.07,1830.9,853.78,1831.61,853.48,1832.31Z"/><path d="M898.32,1842.6a34.23,34.23,0,0,1-5,1.44,20.41,20.41,0,0,1-4.6.33,18.52,18.52,0,0,1-4.86-.9c-4.85-1.59-8-4.19-9.35-7.74s-1-8,1.17-13.44a20.81,20.81,0,0,1,5.87-8.53,15.9,15.9,0,0,1,8.62-3.61,25.89,25.89,0,0,1,10.79,1.33,36.48,36.48,0,0,1,3.59,1.36,29.06,29.06,0,0,1,3.16,1.6c1,.57,2.12,1.34,3.49,2.31l3.55-1,4.81,2.08q-6.46,19.35-12.75,38.7a13.17,13.17,0,0,0-.8,3.62,3.06,3.06,0,0,0,.6,1.9,8.15,8.15,0,0,0,2.42,1.83l-.69,2.19q-10.5-3-20.95-6.34c.25-.72.51-1.44.76-2.17a9.13,9.13,0,0,0,3.32,0,3.31,3.31,0,0,0,1.75-1.18,13.46,13.46,0,0,0,1.58-3.47Q896.55,1847.76,898.32,1842.6Zm6.09-17.44q1.41-4,.49-6.46c-.62-1.63-2-2.79-4.26-3.5a6.89,6.89,0,0,0-4.72.11,10.16,10.16,0,0,0-4.21,3.35,23.26,23.26,0,0,0-3.34,6.2q-2.42,6.44-1.85,10.17a5.82,5.82,0,0,0,4.3,4.92,10,10,0,0,0,3.89.43,7.28,7.28,0,0,0,3.61-1.28,6,6,0,0,0,2.28-3Z"/><path d="M937.39,1822.76q7.64,2.06,15.32,3.94-2.58,9.33-5.14,18.66a43.43,43.43,0,0,0-1.13,5.1,7,7,0,0,0,.17,3.11,4.17,4.17,0,0,0,1.29,2,6,6,0,0,0,2.44,1.11,7.73,7.73,0,0,0,3.42,0,8.39,8.39,0,0,0,3.41-1.5,4.86,4.86,0,0,0,1.93-2.72q1.65-6.53,3.31-13c.42-1.65.69-2.88.82-3.69a5.78,5.78,0,0,0,0-2,2.81,2.81,0,0,0-.76-1.37,8.38,8.38,0,0,0-2.12-1.41c.2-.74.39-1.48.59-2.22q7.69,1.8,15.42,3.46-2.83,11.88-5.61,23.75c-.4,1.72-.66,3-.78,3.79a5.29,5.29,0,0,0,0,2,2.89,2.89,0,0,0,.93,1.42,9.52,9.52,0,0,0,2.6,1.39l-.51,2.28q-5.7-1-11.39-2.16c-1.68-.37-3.35-.75-5-1.14l1.59-4.78-.47-.22a29.16,29.16,0,0,1-7.9,2.44,17.36,17.36,0,0,1-6.41-.35,15.44,15.44,0,0,1-6.65-3.1,7.76,7.76,0,0,1-2.67-4.86,16.54,16.54,0,0,1,.77-6.91q1.79-6.12,3.59-12.24c.36-1.25.63-2.21.78-2.89a11.05,11.05,0,0,0,.28-1.6,4.41,4.41,0,0,0,0-1.1,2.77,2.77,0,0,0-.35-1,3.34,3.34,0,0,0-.83-.94,8,8,0,0,0-1.59-1C936.94,1824.23,937.16,1823.5,937.39,1822.76Z"/><path d="M1027.53,1869.93a24.43,24.43,0,0,1-19.09,4.06c-6.5-1.07-11.11-3.41-13.79-6.91s-3.41-8.13-2.24-13.84a18.9,18.9,0,0,1,4.39-9.1,16.36,16.36,0,0,1,8.06-4.86,25.12,25.12,0,0,1,10.65-.35,25.92,25.92,0,0,1,6.22,1.73,15.89,15.89,0,0,1,4.36,2.72,12,12,0,0,1,2.75,3.59,16,16,0,0,1,1.54,5.3,27.67,27.67,0,0,1-.18,7.07q-13-1.81-25.88-4-1.11,6.21,1,9.6c1.39,2.25,3.9,3.68,7.49,4.26a15.44,15.44,0,0,0,5.85-.09,20,20,0,0,0,6-2.65C1025.59,1867.59,1026.56,1868.76,1027.53,1869.93Zm-8.8-16.1c.48-3.53.37-6.23-.29-8.1a4.94,4.94,0,0,0-4.2-3.32,5.85,5.85,0,0,0-5.39,1.86,16.38,16.38,0,0,0-3.63,7.35Q1012,1852.79,1018.73,1853.83Z"/><path d="M1044.14,1876.2a6,6,0,0,0,3-.84,3.77,3.77,0,0,0,1.28-1.86,25.3,25.3,0,0,0,.81-4.51q1-8.09,1.94-16.15a18.55,18.55,0,0,0,.15-2.77,3.68,3.68,0,0,0-.48-1.74,3.09,3.09,0,0,0-1.25-1.11,12.06,12.06,0,0,0-2.15-.84l.3-2.36c3.67.35,7.34.66,11,1l5,.5q-1.29,12.38-2.56,24.76c-.13,1.3-.22,2.3-.25,3a12.16,12.16,0,0,0,0,1.66,4.71,4.71,0,0,0,.25,1.06,3.08,3.08,0,0,0,1.54,1.7,10,10,0,0,0,1.83.74c-.08.76-.15,1.53-.23,2.3q-10.23-1-20.44-2.22C1044,1877.73,1044.05,1877,1044.14,1876.2Zm20.67-44.36-.9,8.53q-5.43-.54-10.85-1.15c.34-2.84.69-5.67,1-8.51Q1059.46,1831.31,1064.81,1831.84Z"/><path d="M1097.83,1853.39l.52.13a19.41,19.41,0,0,1,6.24-4,16.85,16.85,0,0,1,6.73-1.06,31.6,31.6,0,0,1,5.11.62l-.27,9.69c-2.45-.07-4.89-.16-7.34-.25a7.91,7.91,0,0,0-1.68-3.2,4.12,4.12,0,0,0-2.92-1.22,4.93,4.93,0,0,0-2,.39,7.08,7.08,0,0,0-2,1.23,5.28,5.28,0,0,0-1.38,1.69,7,7,0,0,0-.61,1.77,22.68,22.68,0,0,0-.26,2.73q-.3,5.58-.59,11.18a24.53,24.53,0,0,0,.05,4.67,3.73,3.73,0,0,0,1.06,2.15,6,6,0,0,0,2.92,1.22c0,.77-.07,1.54-.11,2.31q-10.35-.51-20.69-1.29c.06-.77.12-1.54.17-2.31a6.07,6.07,0,0,0,2.87-1,3.73,3.73,0,0,0,1.18-1.92,25.48,25.48,0,0,0,.58-4.56q.49-7.18,1-14.37c.12-1.73.17-3,.16-3.84a5.46,5.46,0,0,0-.34-2,3,3,0,0,0-1.08-1.3,8.84,8.84,0,0,0-2.65-1c.06-.79.13-1.58.18-2.38q5.49.27,11,.45l5,.29Q1098.25,1850.76,1097.83,1853.39Z"/><path d="M1149.1,1884.91a27.38,27.38,0,0,1-10.66-1.78,14.33,14.33,0,0,1-7-5.86,18.75,18.75,0,0,1-2.4-10.17,20.29,20.29,0,0,1,1.57-8.14,15.56,15.56,0,0,1,4.19-5.67,17.22,17.22,0,0,1,6.31-3.31,29.36,29.36,0,0,1,7.93-1.14c6.45-.09,11.36,1.27,14.78,4.16s5.29,7.21,5.56,13a19.07,19.07,0,0,1-2.06,10.36,14.85,14.85,0,0,1-7,6.36A27.75,27.75,0,0,1,1149.1,1884.91Zm-7.54-18.51q0,7.45,2.06,11.17a6.41,6.41,0,0,0,6,3.67,6.15,6.15,0,0,0,6-3.79,14.38,14.38,0,0,0,1.15-4.34,38.92,38.92,0,0,0,.2-5.66c-.14-5-.9-8.81-2.25-11.29a6.18,6.18,0,0,0-5.75-3.66,6.32,6.32,0,0,0-4.36,1.56,9.06,9.06,0,0,0-2.38,4.56A32.51,32.51,0,0,0,1141.56,1866.4Zm17.8-34.23c0,.77.05,1.55.08,2.32q-6.6,5.87-13.43,11.6l-3.21-2.3q4.28-5.68,8.4-11.43C1153.91,1832.31,1156.64,1832.25,1159.36,1832.17Z"/><path d="M1203.66,1888.29a14.08,14.08,0,0,0,.67,3.71,3.29,3.29,0,0,0,1.37,1.63,8.1,8.1,0,0,0,3.18.81c.08.77.15,1.55.22,2.32q-10.65.88-21.31,1.48c-.06-.77-.1-1.55-.16-2.32a8,8,0,0,0,2.72-1.26,3.17,3.17,0,0,0,1-1.74,14.32,14.32,0,0,0,.07-3.78q-1.12-15.42-2.27-30.84c-.13-1.67-.24-2.85-.33-3.56a7.65,7.65,0,0,0-.42-1.78,3.36,3.36,0,0,0-.71-1.17,3.46,3.46,0,0,0-1.25-.76,11,11,0,0,0-2.35-.49c0-.8-.11-1.6-.17-2.4q5.53-.47,11.06-1c1.64-.12,3.28-.24,4.91-.38,0,1.72-.09,3.44-.13,5.16l.49.07a27.26,27.26,0,0,1,6-4.76,15.58,15.58,0,0,1,6-1.85c4.73-.46,8.45.62,11.2,3.3s4.53,6.94,5.29,12.8a21.41,21.41,0,0,1-.88,10.43,13.49,13.49,0,0,1-5.78,6.86,24.18,24.18,0,0,1-10.5,3.09,38.32,38.32,0,0,1-8.57-.21Zm-1.6-17.87q.39,4.33,2.34,6.26c1.31,1.27,3.21,1.81,5.69,1.6a6.33,6.33,0,0,0,5.5-3.94q1.65-3.58.94-9.89c-.52-4.68-1.5-8.08-2.91-10.22a5.94,5.94,0,0,0-5.83-2.87,8.16,8.16,0,0,0-3.44,1.12,7.33,7.33,0,0,0-2.59,2.54,5.63,5.63,0,0,0-.78,3.46Z"/><path d="M1268.77,1874.66a27.67,27.67,0,0,1-10.91-.15,14.57,14.57,0,0,1-7.85-4.79,19.27,19.27,0,0,1-4-9.79,20.71,20.71,0,0,1,.25-8.35,15.35,15.35,0,0,1,3.24-6.28,17.09,17.09,0,0,1,5.74-4.27,29.33,29.33,0,0,1,7.71-2.34c6.41-1.06,11.53-.46,15.42,1.89s6.47,6.38,7.68,12.1a19.18,19.18,0,0,1-.39,10.65,14.77,14.77,0,0,1-6,7.42A27.81,27.81,0,0,1,1268.77,1874.66Zm-10.49-17.32q1.26,7.44,3.85,10.83a6.55,6.55,0,0,0,6.61,2.75,6.7,6.7,0,0,0,3.51-1.56,6.51,6.51,0,0,0,1.85-3.14,14,14,0,0,0,.45-4.5,38.73,38.73,0,0,0-.71-5.68c-1-5-2.33-8.65-4.08-10.91s-3.85-3.18-6.33-2.77a6.23,6.23,0,0,0-4.09,2.22,8.93,8.93,0,0,0-1.62,4.9A32.46,32.46,0,0,0,1258.28,1857.34Z"/><path d="M1319.75,1853.42a28.39,28.39,0,0,0,1.41,4.49,4,4,0,0,0,1.52,1.75,6.24,6.24,0,0,0,3.19.51c.2.76.39,1.52.6,2.28q-10.18,2.46-20.39,4.63c-.18-.77-.36-1.53-.53-2.3a8.51,8.51,0,0,0,1.81-1,3.38,3.38,0,0,0,.92-1,3.72,3.72,0,0,0,.42-1.27,6,6,0,0,0-.07-2c-.14-.82-.38-2-.74-3.45q-3.24-13.55-6.55-27.09c-.48-2-.86-3.45-1.13-4.38a17.59,17.59,0,0,0-.82-2.31,3.87,3.87,0,0,0-1-1.39,3,3,0,0,0-1.37-.67,10.59,10.59,0,0,0-2.52-.11c-.19-.76-.37-1.53-.55-2.29q5.31-1.41,10.6-2.89l4.83-1.14Q1314.67,1833.62,1319.75,1853.42Z"/><path d="M1341.91,1856.12a6.06,6.06,0,0,0,2.45-1.91,3.74,3.74,0,0,0,.46-2.24,25.09,25.09,0,0,0-1.06-4.58q-2.34-8-4.72-16a17.75,17.75,0,0,0-1-2.67,3.81,3.81,0,0,0-1.16-1.46,3.33,3.33,0,0,0-1.63-.59,13.41,13.41,0,0,0-2.36,0l-.69-2.34q5.38-1.57,10.76-3.24l4.91-1.4q3.87,12.16,7.67,24.36c.4,1.28.73,2.27,1,3a13.18,13.18,0,0,0,.68,1.56,4.38,4.38,0,0,0,.67.91,3.46,3.46,0,0,0,.85.66,3.67,3.67,0,0,0,1.29.37,9.53,9.53,0,0,0,2,0l.72,2.26q-10.1,3-20.22,5.61C1342.34,1857.64,1342.12,1856.88,1341.91,1856.12Zm1.38-49.7c.9,2.79,1.79,5.59,2.69,8.38q-5.36,1.54-10.7,3l-2.55-8.42Q1338,1808,1343.29,1806.42Z"/><path d="M1380.91,1837.05a9.64,9.64,0,0,0,4.74,3.63,10,10,0,0,0,6.25-.35,8,8,0,0,0,4.22-2.73,4,4,0,0,0,.32-3.88,4.3,4.3,0,0,0-1.6-2.12,7.73,7.73,0,0,0-3-1.07,51.53,51.53,0,0,0-6.46-.47,40.6,40.6,0,0,1-4.81-.42,18.11,18.11,0,0,1-4.18-1.12,11,11,0,0,1-3.26-2,7.57,7.57,0,0,1-2-3.13,8,8,0,0,1,.19-6,13.39,13.39,0,0,1,4.61-5.34A31,31,0,0,1,1384,1808q2.85-1,5.66-1.75t7.39-1.66l3.15,7.82-5.21,1.88a13,13,0,0,0-3.29-2.63,6.56,6.56,0,0,0-3-.8,10,10,0,0,0-3.27.62,7.63,7.63,0,0,0-3.75,2.42,3.34,3.34,0,0,0-.48,3.36,4.41,4.41,0,0,0,1.36,2,6.25,6.25,0,0,0,2.64,1.11,36.73,36.73,0,0,0,6.41.42,37,37,0,0,1,7.16.6,12.51,12.51,0,0,1,4.9,2,8.51,8.51,0,0,1,3,3.9,9.18,9.18,0,0,1,.63,5.13,9.78,9.78,0,0,1-2.16,4.48,17.72,17.72,0,0,1-4.59,3.77,34.7,34.7,0,0,1-6.62,3,76.51,76.51,0,0,1-15.67,3.32l-2.79-8.14Q1378.19,1837.94,1380.91,1837.05Z"/><path d="M1440.46,1808.34q-9.42,4-18.89,7.66c-1-2.34-2-4.67-3-7q9.36-3.66,18.67-7.59Q1438.86,1804.88,1440.46,1808.34Z"/><path d="M1462,1803.06a12.39,12.39,0,0,0,6.24,4.26q3.3.84,7.85-1.29a13.79,13.79,0,0,0,3.91-2.66,6.67,6.67,0,0,0,1.91-3.53,6.21,6.21,0,0,0-.79-4.14,7.69,7.69,0,0,0-2.76-3,11.29,11.29,0,0,0-4.4-1.39,41.24,41.24,0,0,0-7-.17,59.61,59.61,0,0,1-6.87-.07,23.24,23.24,0,0,1-5.71-1.1,14.67,14.67,0,0,1-4.48-2.39,11.6,11.6,0,0,1-3.14-4,11.43,11.43,0,0,1-1.11-7.86,15,15,0,0,1,4.48-7.3,35,35,0,0,1,9.23-6.19c2.21-1.08,4.38-2,6.5-2.81s4.62-1.59,7.49-2.39q2.65,4.61,5.29,9.23-2.58,1.32-5.18,2.62a15.08,15.08,0,0,0-4.08-3.11,8,8,0,0,0-4-.83,12.08,12.08,0,0,0-4.55,1.32,11.64,11.64,0,0,0-3.49,2.49,6.25,6.25,0,0,0-1.66,3.19,5.51,5.51,0,0,0,.64,3.55,7.15,7.15,0,0,0,2.57,2.85,10.76,10.76,0,0,0,4.3,1.32,46.85,46.85,0,0,0,7.52.14,49.9,49.9,0,0,1,9.67.36,16.79,16.79,0,0,1,6.43,2.27,13,13,0,0,1,4.34,4.73,12,12,0,0,1,1.55,8,14.67,14.67,0,0,1-4.19,7.75,31.12,31.12,0,0,1-9.32,6.44q-4.11,1.93-8.77,3.61a86.09,86.09,0,0,1-8.94,2.68q-2.43-5.05-4.9-10.09Z"/><path d="M1525.63,1774.31a18.4,18.4,0,0,0,2,2.81,3.58,3.58,0,0,0,3.36,1.12,13.56,13.56,0,0,0,3-.9c.43.69.87,1.37,1.31,2.06q-10.63,6.09-21.37,11.79c-.41-.69-.83-1.39-1.23-2.09a13.58,13.58,0,0,0,1.91-1.92,2.88,2.88,0,0,0,.67-1.69,4.51,4.51,0,0,0-.45-1.93,25.08,25.08,0,0,0-1.39-2.57q-8.21-13.59-16.54-27.11c-.61-1-1.16-1.79-1.63-2.43a4.56,4.56,0,0,0-1.49-1.36,3.53,3.53,0,0,0-1.81-.38,12,12,0,0,0-2.64.49l-1.27-2.08q10.71-5.77,21.32-12c6.15-3.6,11.37-5.46,15.72-5.5a12.27,12.27,0,0,1,10.59,5.62,13.52,13.52,0,0,1,2.73,8.38,14.33,14.33,0,0,1-3.33,8.46,32.93,32.93,0,0,1-9.64,7.85q-3.72,2.14-6.17,3.37Q1522.48,1769.31,1525.63,1774.31Zm-8.57-13.5,3.28-1.87a18,18,0,0,0,5.46-4.39,6.7,6.7,0,0,0,1.45-4.73,12.49,12.49,0,0,0-2.4-5.77,13.47,13.47,0,0,0-4.49-4.45,7.57,7.57,0,0,0-4.89-.87,16.51,16.51,0,0,0-5.72,2.23q-2.58,1.49-3.94,2.34Q1511.47,1752,1517.06,1760.81Z"/><path d="M1133.86,290.5c-465.78,0-843.36,377.58-843.36,843.36s377.58,843.36,843.36,843.36,843.36-377.59,843.36-843.36S1599.63,290.5,1133.86,290.5Zm0,1648c-444.41,0-804.67-360.26-804.67-804.66s360.26-804.67,804.67-804.67,804.66,360.26,804.66,804.67S1578.26,1938.52,1133.86,1938.52Z"/><path d="M1133.86,251.8c-487.15,0-882.06,394.91-882.06,882.06s394.91,882.06,882.06,882.06,882.06-394.91,882.06-882.06S1621,251.8,1133.86,251.8Zm0,1751.18c-480,0-869.12-389.12-869.12-869.12s389.12-869.12,869.12-869.12S2003,653.86,2003,1133.86,1613.86,2003,1133.86,2003Z"/></g></svg>