<svg id="Logo" xmlns="http://www.w3.org/2000/svg" viewBox="0 0 2267.72 2267.72"><defs><style>.cls-1{fill:#fff;stroke:#000;stroke-miterlimit:10;}.cls-2{fill:#000001;}.cls-2,.cls-4{fill-rule:evenodd;}.cls-3{fill:none;stroke:#1f191a;stroke-miterlimit:22.93;stroke-width:0.57px;}.cls-4{fill:#1f191a;}</style></defs><title>Logo_mono_svg</title><g id="Mono"><circle id="Fundo" class="cls-1" cx="1133.85" cy="1133.86" r="882.06"/><path class="cls-2" d="M1268.64,888.35c5.06-4.74,6.49-5.63,15.72-6,1.61,10.51,5.87,19.75-2.68,26.75C1275.61,905,1270.5,895.28,1268.64,888.35Zm117.67,7.74c-.14-2.94,1.51-7.14,3-9.28s2.71-2.23,5.13-.26a31.59,31.59,0,0,1,8.33,11.24c2.32,5.26,3.39,11.77,3.82,19.62a93.22,93.22,0,0,1-1.74,25.65,61.36,61.36,0,0,1-9.68,21.9c-3.92,5.26-8,7.76-11.14,8.21s-5.37-1.16-5.13-2.68,3-2.94,5.91-5.22a30.32,30.32,0,0,0,8.47-9.77c2.32-4.37,3.78-10,5.18-15.21s2.76-10,2.91-15.61a74.93,74.93,0,0,0-1.8-16.1c-.87-4.19-1.55-6.24-2.66-7.4a3.81,3.81,0,0,0-3.82-1.07c-1.17.35-1.94,1.33-3.3,1A5.34,5.34,0,0,1,1386.31,896.09Zm-19.5-144.8c13.53-5.44,17.39-13,28.69-18.34.79-.38,1.8-.67,3.44-1.54l36.64-20.81c18.1-9.52,19.76-16.48,36.31-3l14.34,23.3c-6.69,6.38-34.68,14.57-49.88,15.17C1420.49,746.67,1377.72,755.67,1366.81,751.29Zm15.46-28.52c-6.77,6.8-37.36,32.43-49.48,15C1315.29,712.58,1371.08,722,1382.27,722.77Zm-10.21-17.86c10.38-10.37,34.39-12.61,51.7-14-2.3,6.2-14.28,14.73-21.13,18.33-6.24,3.28-7.9.7-15.47-.65Zm-40.37-57.42c11.22-7.27,51.38-7.78,65.71-10.56,12.41-2.42,47.69,0,59.37,1.05,17.3,1.64,37.41,8.27,53.72,13.08,45.18,13.31,68.33,37,23.73,57.22-39.56,18-33.12,9.22-41.61-.57-3.89-4.47-31.94-19.72-41.23-23.1-15.07-5.5-44.41-3.43-61-1.77,2.56-8.94,10.91-14.44,17.47-18.69,24.23-15.68,72.26-4.74,93.1-3.7-14.31-13.18-63.63-15.33-80.27-14.89C1373,646.82,1346.05,659,1331,660Zm-92-92.16c-9.44-4.86-30.91-16.19-35.38-16.7-12.9-1.5-15.56-3.48-24.54-3.28-12,.27-8.22,1-16.65,3.27l-40.07,3.74c-6-.63-10.11-4.17-15.29-5.71-7.73-2.3-33-.35-40.44,1.34a21.44,21.44,0,0,0-6.31,2.62,31.46,31.46,0,0,0-3.13,2.6c-10.83,7-35.75,18.37-65.66,56.45-.31.15-8.18,8.3-12.36,11.17-1.8,1.23-2.9,2.13-2.9,2.13-3.14,2.7-1.53,2.91-8.19,2.54-30.48-1.69-26-8-42.64,7.8-33,31.42-8,14.07-29.09,60.62-5.62,12.4-13.78,18.08-14.39,20.67.56,17.2,24.54,35.93,32.87,48.17-2.23,3.56-14.34,15.22-18.33,18.75C877.43,789,891.51,780.4,875.68,782c-4.64,6.92-2.9,13-11.57,16.17-25.09,9.08-8-.32-23.63,16.24-41.13-23.88-22.77-14.27-66.58-34.66-16.06-7.47-19.3-8.55-38.55-12.66-13.65-2.91-27.48-5.52-40.54-8.49,0,7.23,132.38,43.43,145.84,91.76,2.37,8.52,11.49,56.63,13,59l1.1-2.38c.1-.36.31-.9.4-1.32s.19-1,.25-1.45a38.53,38.53,0,0,0-.21-6.32c-3.94-40.65-7.13-41.49,9.27-75.37,1.61,10.56.15,23.32,3.88,31.19,6.22-16.47,5.7-42.88,20.17-49.87,4,11.47,5.19,30,7,44.22,1.29,10.14,2.38,31.45,6.35,38.76a10.93,10.93,0,0,0,2.56,3.53c-1.9-40.81-11.54-39.22-.11-85.66,2.76-11.2,2.21-14,11-19.41L918,847.76c4.55-11.54,4.88-27.55,5.8-41.14,1.2-17.64,6.17-24.25,9-38,7.4,3.23,13.25,8,21.22,11.13,10.09,3.92,22,4.76,26.34,6.9C974.3,879.55,969,867.23,1002.48,960c5.73,15.89,14.16,30.49,20.57,47,12.84,33.08,23.23,67.34,36.53,100.26,16.29,40.32,13.15,41.89,35.08,83.69,4.16,7.93,1.47,6.61,9.2,7.71,2-5.42-13.49-43.19-16-55.11-2.21-10.31-3-22.09-5.89-31.88-15.88-54.74-22.84-82.57-53.7-132.65C998.09,930.17,987.34,850.8,997,792.13c7.38-44.63,12.46-39,16.6-56.52-7.87,2.56-26.58,29.26-31.25,36.75-31.35.1-29.95-2.72-43.76-21.22-40.42-54.14-36.63-35.2-20.57-78.2,7.2-19.28,8.74-26.45,18.74-41.28,24.53.43,25-1,43,10.21,6.36,4,7.43,9,12.26,13.77l13.28,12.26c-1-8.2-3-16-4.63-23.91-7.29-35,8.53-20.42,17.25-18.81l-7-12.94c5.75-3,15.56-10,20.64-13.71l21.55-19A257.09,257.09,0,0,1,1074.71,564c13.22-8.07,63.3-2.44,89.2,20.77,16.62,14.89,20.46,35.7,29,43.38-10.61-58.44-48.08-56.6-55.14-73.24,21.16-10.78,74.5,1.65,92.18,11.84,5.66,3.27,11.81,7.72,17,11.09,14.26,9.22,32.68,25.86,44.38,37.6,4.74,4.76,7.45,9.86,12.44,15.3,26.82,29.25,21.57,31.14,15.24,54.82-16.87,63.06,3.62,61,7.94,87.55-15-3.51-26.06-32.44-32.93-45-1.65,21.75,29.54,77.47,41.13,93.22l29,37.76c17,25.12-57.68-5.25-79.06.45-46.37,12.36-22.69,35.63-16,47.5,4,7.09,15.66,19.7,13.3,28.34-3.38,12.41-13.79,14-24.37,20.54-7.81,4.81-20.06,15.25-27.37,17.81-13,4.54-17.15-3.4-21-8.16l-6.36-6c7.59,38.72,43,18.74,67.63,10,29-10.36,59.22-4.73,86.6,4.53-3.57,7.56-14.25,15-25.55,16.28l-2.71-12c-13.94,4.21-7.54,16-30.15,17.43-13.3.87-33.18-8.49-40-5,3.27,7.7,18.83,9.82,25.75,15.37-12.75,20.35-14.15,10-27.72,39.93s-18.67,73.26-23.33,107c-2.5,18.16-6.75,32.85-10.23,49.89H1242c5.2-19.33,11.73-41.84,15.71-61.82,8.47-42.57,12.71-89.9,47.08-120.89,13.82-12.47,39.86-4.36,62.12-23.1,18.85-15.87,16.17-3,32.2-11.35,33.65-17.5,25.79-63.94,16.86-92.66-8.61-27.71-18.46-33.15-33.9-50.85-13.12-15-48.73-57.62-5-73.16,32.72-11.64,74.47-6.64,109.21-16.65,17.93-5.17,45.63-21,56.4-28.43,36.9-25.5,37.52-41.61,15.48-68.67-4.68-5.74-15.46-10.55-23.72-15.06-22.91-12.52-28.41-14.84-58.23-18.52-18.45-2.27-59.2-5.23-77.88-2-10.22,1.79-27.79,3.61-38.09,5.23-12.55,2-28.19,3.23-38.2,4.56-12.85-17.3-17.94-20.48-22.46-25.91-1.49-1.79-6.23-6.24-12.47-13.22-4.94-5.52-11.52-12.43-12.74-13.45C1256.45,562.11,1254.26,562.81,1239.72,555.33Z"/><path class="cls-2" d="M1172.87,1179.28c1.33-15.39-3.4-44.5-5.45-60.71-2.17-17.14-9.92-35.43-15.77-51.54-5.52-15.2-43-67.74-54.56-83.59-10.83-14.8-43.47-70.46-48.44-89.33-10.68-40.53-15-76-15.38-120.17-12.82,28.54-6.54,90.1,2.07,120,24.1,83.79,79,118.79,101.55,181.25Z"/><path class="cls-3" d="M1172.87,1179.28c1.33-15.39-3.4-44.5-5.45-60.71-2.17-17.14-9.92-35.43-15.77-51.54-5.52-15.2-43-67.74-54.56-83.59-10.83-14.8-43.47-70.46-48.44-89.33-10.68-40.53-15-76-15.38-120.17-12.82,28.54-6.54,90.1,2.07,120,24.1,83.79,79,118.79,101.55,181.25Z"/><path class="cls-2" d="M925.3,706c3.6-4.8,2.29-12.8,4.15-19,15.72-7.67,12.88-.67,13-.28.55,1.84.19,4.8.41,6.89,1,9.95,5.85,9.85,12.73,16.87,10.16,10.34,9.8,26.69,21.94,34.58-1.31-8.74-9.75-28.63,8.82-25.4,5.26.92,16.31,10.34,27.37-11.54,10.47,1.93,10.49,6.59,12.54,17.54,1.91,10.22.23,17.75,1.68,26.8l2.93-26.6c-.81-18.08-5.57-14.3-8-23.84-2-7.94,1.64-18.75.71-27.5-.78-7.3-5.64-15.55-6.14-22.86-1.88,14.82,1.58,28.8-.8,45.8l-22.88-29.27c-4.06-4.54-9.07-8-12.71-13.24-9-13-18.86-14.4-38.13-5.67-8.77,4-9.22,4-11.79,14.17C928.35,674.47,918.88,696.63,925.3,706Z"/><path class="cls-3" d="M925.3,706c3.6-4.8,2.29-12.8,4.15-19,15.72-7.67,12.88-.67,13-.28.55,1.84.19,4.8.41,6.89,1,9.95,5.85,9.85,12.73,16.87,10.16,10.34,9.8,26.69,21.94,34.58-1.31-8.74-9.75-28.63,8.82-25.4,5.26.92,16.31,10.34,27.37-11.54,10.47,1.93,10.49,6.59,12.54,17.54,1.91,10.22.23,17.75,1.68,26.8l2.93-26.6c-.81-18.08-5.57-14.3-8-23.84-2-7.94,1.64-18.75.71-27.5-.78-7.3-5.64-15.55-6.14-22.86-1.88,14.82,1.58,28.8-.8,45.8l-22.88-29.27c-4.06-4.54-9.07-8-12.71-13.24-9-13-18.86-14.4-38.13-5.67-8.77,4-9.22,4-11.79,14.17C928.35,674.47,918.88,696.63,925.3,706Z"/><path class="cls-2" d="M960.17,827.25c-10.07,38.39-11.62,47.8-3.93,87.92,7.91,41.29,4.23,41.15,24.38,79.23,11.73,22.18,22.58,47.2,33.23,71.05l28.41,75.56c2.46-6.86-12-70.13-15.74-80-9.18-24.47-18-49-28.3-72.08-16.92-37.87-17.77-34.41-26.18-74-2.84-13.33-7.2-29.08-8.16-42.54S966.26,838.18,960.17,827.25Z"/><path class="cls-3" d="M960.17,827.25c-10.07,38.39-11.62,47.8-3.93,87.92,7.91,41.29,4.23,41.15,24.38,79.23,11.73,22.18,22.58,47.2,33.23,71.05l28.41,75.56c2.46-6.86-12-70.13-15.74-80-9.18-24.47-18-49-28.3-72.08-16.92-37.87-17.77-34.41-26.18-74-2.84-13.33-7.2-29.08-8.16-42.54S966.26,838.18,960.17,827.25Z"/><path class="cls-2" d="M1066.77,681.91c-34.18,7.24,15.68,60,72.18,45.64l-34.36-34.47c-7.33-8.32-21.56-23-37.19-27.09C1063.89,671.58,1065.72,675.25,1066.77,681.91Zm8,4.07c4.25,0,7.7,3.18,7.7,7.1s-3.45,7.09-7.7,7.09-7.7-3.18-7.7-7.09S1070.5,686,1074.75,686Z"/><path class="cls-3" d="M1066.77,681.91c-34.18,7.24,14.42,59.77,72.18,45.64l-34.36-34.47c-7.4-9.55-27.75-25.94-37.19-27.09C1063.89,671.58,1065.72,675.25,1066.77,681.91Zm8,4.07c4.25,0,7.7,3.18,7.7,7.1s-3.45,7.09-7.7,7.09-7.7-3.18-7.7-7.09S1070.5,686,1074.75,686Z"/><path class="cls-2" d="M1215,1203c6.79-13.49.42-32.13.91-47,1.19-36.58,27.31-85,35.26-123-6.08,4.34-4.72,6.53-9,17.11-2.44,6-4.49,11-6.91,16.82-4.64,11.11-9.12,22.53-13.8,33.68-20.89,49.74-12,23.45-21.22,75.06-3.7,1.84-7.57,3.6-11.33,5.5-.72,10.06,5,19.13,14.56,21.87Z"/><path class="cls-3" d="M1215,1203c6.79-13.49.42-32.13.91-47,1.19-36.58,27.31-85,35.26-123-6.08,4.34-4.72,6.53-9,17.11-2.44,6-4.49,11-6.91,16.82-4.64,11.11-9.12,22.53-13.8,33.68-20.89,49.74-12,23.45-21.22,75.06-3.7,1.84-7.57,3.6-11.33,5.5-.72,10.06,5,19.13,14.56,21.87Z"/><path class="cls-2" d="M1082.63,902.27c-1.83-3.64-3-6.28-4.84-9.83l-5.71-8.09c.81,7.75,27,66.84,32.48,78,6.17,12.57,14.67,21.62,22.82,32.44,5,6.67,16,26.7,24.47,29.14-1.59-11.1-10.92-16.85-11.56-30.27,13.6,0,41.61-3.42,55-8.18,5.37-1.91,2.6-.88,4.7-2.53-7.67-3.17-29.49,6.61-51.77-1.95-14.38-5.52-28-11.72-35.33-22.84Z"/><path class="cls-3" d="M1082.63,902.27c-1.83-3.64-3-6.28-4.84-9.83l-5.71-8.09c.81,7.75,27,66.84,32.48,78,6.17,12.57,14.67,21.62,22.82,32.44,5,6.67,16,26.7,24.47,29.14-1.59-11.1-10.92-16.85-11.56-30.27,13.6,0,41.61-3.42,55-8.18,5.37-1.91,2.6-.88,4.7-2.53-7.67-3.17-29.49,6.61-51.77-1.95-14.38-5.52-28-11.72-35.33-22.84Z"/><path class="cls-2" d="M1231.21,713.4c-3.72-19.63-58.54-70.86-65.72-82-2.51-3.91-5.54-12.57-9.29-9.07-2.23,2.07,9.55,20.83,12.06,26.17,16.21,34.54,6,11.76,41.15,44.19a99.33,99.33,0,0,1,9.87,10.52C1228.63,714.05,1225.71,712,1231.21,713.4Z"/><path class="cls-3" d="M1231.21,713.4c-3.72-19.63-58.54-70.86-65.72-82-2.51-3.91-5.54-12.57-9.29-9.07-2.23,2.07,9.55,20.83,12.06,26.17,16.21,34.54,6,11.76,41.15,44.19a99.33,99.33,0,0,1,9.87,10.52C1228.63,714.05,1225.71,712,1231.21,713.4Z"/><path class="cls-2" d="M1544.46,697c9-15.14-9.27-22.13-22-23.57,3,7.78,5.32,1.3,14.48,19.21C1540.69,699.94,1535.65,697.23,1544.46,697Z"/><path class="cls-3" d="M1544.46,697c9-15.14-9.27-22.13-22-23.57,3,7.78,5.32,1.3,14.48,19.21C1540.69,699.94,1535.65,697.23,1544.46,697Z"/><path class="cls-4" d="M1178.15,763.08c1.94,3.3,8.14,10.44,13.85,19.36a225.23,225.23,0,0,1,14.62,27.83c3.68,8.21,5.81,13.92,7,15.44s1.36-1.16.39-7.14-3.1-15.26-4.94-22-3.39-11.06-6.49-15.61a72.9,72.9,0,0,0-11.62-12.75,40.18,40.18,0,0,0-9.68-6.6C1178.54,760.32,1176.21,759.78,1178.15,763.08Z"/><path class="cls-3" d="M1178.15,763.08c1.94,3.3,8.14,10.44,13.85,19.36a225.23,225.23,0,0,1,14.62,27.83c3.68,8.21,5.81,13.92,7,15.44s1.36-1.16.39-7.14-3.1-15.26-4.94-22-3.39-11.06-6.49-15.61a72.9,72.9,0,0,0-11.62-12.75,40.18,40.18,0,0,0-9.68-6.6C1178.54,760.32,1176.21,759.78,1178.15,763.08Z"/><path class="cls-4" d="M1231.7,588.68c0,2.77,1.46,10,1.89,16s-.14,10.7.24,13.16,1.75,2.63,3,2.18,2.28-1.51,2.71-4.55a42.33,42.33,0,0,0-.68-12.71,48.25,48.25,0,0,0-4.11-12.09C1233.16,587.61,1231.7,585.91,1231.7,588.68Z"/><path class="cls-3" d="M1231.7,588.68c0,2.77,1.46,10,1.89,16s-.14,10.7.24,13.16,1.75,2.63,3,2.18,2.28-1.51,2.71-4.55a42.33,42.33,0,0,0-.68-12.71,48.25,48.25,0,0,0-4.11-12.09C1233.16,587.61,1231.7,585.91,1231.7,588.68Z"/><path class="cls-4" d="M938,712.46c.44,2.45,3,7.89,5.23,12.89s4.31,9.54,6.34,13.74,4.07,8,5.47,10.61,2.18,3.93,3,4.37,1.55,0,1.93-1.38a16.73,16.73,0,0,0,0-6.11,52.34,52.34,0,0,0-1.69-7.23,27.42,27.42,0,0,0-2.86-7c-1.5-2.49-3.82-5.35-5.91-8.16s-3.92-5.57-5.32-7.76-2.37-3.79-3.68-4.86S937.59,710,938,712.46Z"/><path class="cls-3" d="M938,712.46c.44,2.45,3,7.89,5.23,12.89s4.31,9.54,6.34,13.74,4.07,8,5.47,10.61,2.18,3.93,3,4.37,1.55,0,1.93-1.38a16.73,16.73,0,0,0,0-6.11,52.34,52.34,0,0,0-1.69-7.23,27.42,27.42,0,0,0-2.86-7c-1.5-2.49-3.82-5.35-5.91-8.16s-3.92-5.57-5.32-7.76-2.37-3.79-3.68-4.86S937.59,710,938,712.46Z"/><path d="M1528.75,1233.14a16,16,0,0,0,.24,3.22,3.86,3.86,0,0,0,.85,1.77,4,4,0,0,0,1.74,1.06,13.82,13.82,0,0,0,2.87.59c1.15.13,2.67.23,4.56.28v3.34h-31.73v-3.34a51.75,51.75,0,0,0,5.83-.5,6.93,6.93,0,0,0,2.66-.94,3.52,3.52,0,0,0,1.34-1.76,11.42,11.42,0,0,0,.43-3.72v-26.58a3.32,3.32,0,0,0-.57-2.17,2,2,0,0,0-1.57-.66,6.34,6.34,0,0,0-2.59.85,57.47,57.47,0,0,0-5.49,3.45l-2.25-3.89,19.2-11.51h4.7q-.23,3.52-.22,9.78Z"/><path d="M1557.65,1241.82v-2.65a20.52,20.52,0,0,0,4.2-.44,15.48,15.48,0,0,0,4-1.41,13.52,13.52,0,0,0,3.33-2.41,15.7,15.7,0,0,0,2.94-4,22.86,22.86,0,0,0,1.86-4.88,41.34,41.34,0,0,0,1-5.51l-.37-.15a21.24,21.24,0,0,1-5.57,2.83,21.46,21.46,0,0,1-6.56.89,13.84,13.84,0,0,1-7.37-1.86,11.45,11.45,0,0,1-4.54-5.18,18.62,18.62,0,0,1-1.51-7.78,16.6,16.6,0,0,1,2.3-8.73,15,15,0,0,1,6.6-5.9,23.23,23.23,0,0,1,10.18-2.06,19,19,0,0,1,10,2.44,14.89,14.89,0,0,1,6.07,7.12,28.63,28.63,0,0,1,2,11.28,36.88,36.88,0,0,1-3.12,15.85,23.9,23.9,0,0,1-9.1,10.33,31.34,31.34,0,0,1-14.43,4.34Zm9.12-22.72a12,12,0,0,0,2.54-.26,9,9,0,0,0,2.22-.79,9.7,9.7,0,0,0,2-1.29,6,6,0,0,0,1.2-1.23,4.68,4.68,0,0,0,.49-1.39,11.8,11.8,0,0,0,.21-2.5q0-7.22-1.93-11.05t-5.65-3.84a7.39,7.39,0,0,0-3.66.84,6.68,6.68,0,0,0-2.42,2.39,10.65,10.65,0,0,0-1.34,3.7,24.7,24.7,0,0,0-.41,4.72Q1560,1219.09,1566.77,1219.1Z"/><path d="M1632.88,1195.64l-20.4,47.87h-7.54V1241l18.46-37.4V1203H1607a10.78,10.78,0,0,0-2.61.26,3.77,3.77,0,0,0-1.62.83,4.09,4.09,0,0,0-1,1.49,19,19,0,0,0-.83,2.86h-4.26l1-15.25h35.22Z"/><path d="M1644.25,1241.12v-9.19h6.66a11.87,11.87,0,0,0,2.94,6,7.15,7.15,0,0,0,5.22,2q4,0,5.92-2.48t1.91-7.67q0-5.1-2.47-7.79t-7.13-2.68a24.88,24.88,0,0,0-3.88.33,29.31,29.31,0,0,0-3.69.81l-3.31-2.06v-25.11h21.73a7.28,7.28,0,0,0,2-.19,2.2,2.2,0,0,0,1-.62,5.69,5.69,0,0,0,.88-1.62h4l-.74,11.73h-22.57v13.23a29.79,29.79,0,0,1,4.5-1,42.82,42.82,0,0,1,5.65-.31,17.83,17.83,0,0,1,8,1.69,12.39,12.39,0,0,1,5.34,4.91,14.62,14.62,0,0,1,1.89,7.55,15.07,15.07,0,0,1-2.28,8.51,13.65,13.65,0,0,1-6.58,5.15A27.87,27.87,0,0,1,1659,1244a41.85,41.85,0,0,1-7.86-.77A30.28,30.28,0,0,1,1644.25,1241.12Z"/><path d="M605.47,1185.91a46.19,46.19,0,0,1,10.26,1,22.9,22.9,0,0,1,7.31,3,17.87,17.87,0,0,1,5.17,4.9,20.45,20.45,0,0,1,2.92,6.62,34.54,34.54,0,0,1,1,8.51,36.25,36.25,0,0,1-1.35,10.3,21.41,21.41,0,0,1-4,7.79,19.44,19.44,0,0,1-5.86,4.78,26.15,26.15,0,0,1-8,2.65,60.46,60.46,0,0,1-9.82.66H586.35v-2.43a9.74,9.74,0,0,0,2.15-.79,2.72,2.72,0,0,0,1.18-1.17,5.23,5.23,0,0,0,.49-1.92c.08-.77.11-1.74.11-2.92v-31.69q0-1.73-.09-2.91a4.9,4.9,0,0,0-.48-1.91,2.91,2.91,0,0,0-1.17-1.19,9.16,9.16,0,0,0-2.19-.83v-2.43Zm-3.79,45.74a29.82,29.82,0,0,0,3.35.11,17.46,17.46,0,0,0,6.8-1.17,10.14,10.14,0,0,0,3.49-2.43,16.17,16.17,0,0,0,3.6-6.58,37.6,37.6,0,0,0,1.33-10.77,31,31,0,0,0-1.88-11.6,14.1,14.1,0,0,0-5.27-6.81,14.8,14.8,0,0,0-8.15-2.18c-1.52,0-2.61,0-3.27.07Z"/><path d="M677.68,1185.91v11.7h-5a22.71,22.71,0,0,0-2.06-4.73,6.71,6.71,0,0,0-2-2,8.24,8.24,0,0,0-4-.71h-8v17.64h4.85a5.71,5.71,0,0,0,2.54-.46,3.66,3.66,0,0,0,1.53-1.52,14,14,0,0,0,1.16-3.31h4.15v14.93h-4.15a14.11,14.11,0,0,0-1.14-3.26,4.08,4.08,0,0,0-1.49-1.6,5.66,5.66,0,0,0-2.6-.47h-4.85v19.63h8a12,12,0,0,0,2.17-.17,5,5,0,0,0,1.58-.57,5.59,5.59,0,0,0,1.34-1.1,9.8,9.8,0,0,0,1.14-1.51,16.28,16.28,0,0,0,1-2.13,34.07,34.07,0,0,0,1.21-3.64h5l-.7,13.42H641.21v-2.43a9.74,9.74,0,0,0,2.15-.79,2.72,2.72,0,0,0,1.18-1.17,5.23,5.23,0,0,0,.49-1.92c.08-.77.11-1.74.11-2.92v-31.69q0-1.73-.09-2.91a5.09,5.09,0,0,0-.47-1.91,2.94,2.94,0,0,0-1.18-1.19,9.16,9.16,0,0,0-2.19-.83v-2.43Z"/><path d="M691.11,1223.71a12.7,12.7,0,0,0,3.07,6.53q2.15,2.15,6.3,2.15a9.86,9.86,0,0,0,3.9-.74,6.08,6.08,0,0,0,2.78-2.37,7.45,7.45,0,0,0,1-4.1,8.68,8.68,0,0,0-.84-4,9.89,9.89,0,0,0-2.72-3.18,30.2,30.2,0,0,0-5.22-3.2,49.74,49.74,0,0,1-5.19-3,20.07,20.07,0,0,1-4-3.4,14.33,14.33,0,0,1-2.54-4.06,13.06,13.06,0,0,1-.9-5,12.91,12.91,0,0,1,2.25-7.68,13.68,13.68,0,0,1,6.48-4.8,27.32,27.32,0,0,1,9.84-1.63,52.22,52.22,0,0,1,6.25.35,62.3,62.3,0,0,1,6.8,1.23v10.66h-5a15.29,15.29,0,0,0-1.78-4.61,6.77,6.77,0,0,0-2.7-2.52,10.34,10.34,0,0,0-7.83-.08,5.9,5.9,0,0,0-2.61,2.19,6.23,6.23,0,0,0-1,3.51,7.83,7.83,0,0,0,.83,3.7,9.65,9.65,0,0,0,2.77,3,39.12,39.12,0,0,0,5.67,3.4,37.3,37.3,0,0,1,7.11,4.61,14.8,14.8,0,0,1,3.82,4.93A14.51,14.51,0,0,1,719,1222a14.36,14.36,0,0,1-2.1,7.84,13.46,13.46,0,0,1-6.1,5.12,22.74,22.74,0,0,1-9.27,1.78,76,76,0,0,1-7.81-.42,66.47,66.47,0,0,1-7.63-1.24v-11.32Z"/><path d="M746.08,1185.91a46.19,46.19,0,0,1,10.26,1,22.9,22.9,0,0,1,7.31,3,17.87,17.87,0,0,1,5.17,4.9,20.45,20.45,0,0,1,2.92,6.62,34.54,34.54,0,0,1,1,8.51,36.63,36.63,0,0,1-1.34,10.3,21.58,21.58,0,0,1-4,7.79,19.44,19.44,0,0,1-5.86,4.78,26.15,26.15,0,0,1-8,2.65,60.46,60.46,0,0,1-9.82.66H727v-2.43a9.74,9.74,0,0,0,2.15-.79,2.72,2.72,0,0,0,1.18-1.17,5.23,5.23,0,0,0,.49-1.92c.08-.77.11-1.74.11-2.92v-31.69q0-1.73-.09-2.91a5.09,5.09,0,0,0-.47-1.91,2.94,2.94,0,0,0-1.18-1.19,9.16,9.16,0,0,0-2.19-.83v-2.43Zm-3.79,45.74a29.82,29.82,0,0,0,3.35.11,17.46,17.46,0,0,0,6.8-1.17,10.14,10.14,0,0,0,3.49-2.43,16.05,16.05,0,0,0,3.6-6.58,37.6,37.6,0,0,0,1.33-10.77,31,31,0,0,0-1.88-11.6,14.1,14.1,0,0,0-5.27-6.81,14.8,14.8,0,0,0-8.15-2.18c-1.52,0-2.61,0-3.27.07Z"/><path d="M818.29,1185.91v11.7h-5a22.71,22.71,0,0,0-2.06-4.73,6.71,6.71,0,0,0-2-2,8.24,8.24,0,0,0-4-.71h-8v17.64H802a5.71,5.71,0,0,0,2.54-.46,3.66,3.66,0,0,0,1.53-1.52,14,14,0,0,0,1.16-3.31h4.15v14.93h-4.15a14.11,14.11,0,0,0-1.14-3.26,4.08,4.08,0,0,0-1.49-1.6,5.66,5.66,0,0,0-2.6-.47h-4.85v19.63h8a12,12,0,0,0,2.17-.17,5,5,0,0,0,1.58-.57,5.59,5.59,0,0,0,1.34-1.1,9.8,9.8,0,0,0,1.14-1.51,16.28,16.28,0,0,0,1-2.13,34.07,34.07,0,0,0,1.21-3.64h5l-.7,13.42H781.82v-2.43a9.74,9.74,0,0,0,2.15-.79,2.72,2.72,0,0,0,1.18-1.17,5.23,5.23,0,0,0,.49-1.92c.08-.77.11-1.74.11-2.92v-31.69q0-1.73-.09-2.91a5.09,5.09,0,0,0-.47-1.91,2.94,2.94,0,0,0-1.18-1.19,9.16,9.16,0,0,0-2.19-.83v-2.43Z"/><path d="M612.46,1640.86v-6.25a24.63,24.63,0,0,0,6.3-1.75,7.44,7.44,0,0,0,3.45-3.08,12.41,12.41,0,0,0,1.42-5.06c.19-2,.29-4.6.29-7.63v-94.4h-7.67a22.57,22.57,0,0,0-8.71,1.32,13.53,13.53,0,0,0-5.26,4.17,25.51,25.51,0,0,0-3.83,7.62c-1.08,3.19-2,6.2-2.66,9h-13v-33.23H694.27v33.23h-13q-1.8-6.43-2.84-9.47a27.47,27.47,0,0,0-2.32-5.16,18.23,18.23,0,0,0-2.7-3.55,13,13,0,0,0-3-2.27,13.78,13.78,0,0,0-4-1.28,38.13,38.13,0,0,0-6.3-.42h-6.82v94.4a75.55,75.55,0,0,0,.29,7.63,13.33,13.33,0,0,0,1,4.21,8.18,8.18,0,0,0,1.84,2.6,10.19,10.19,0,0,0,3,1.8,22.06,22.06,0,0,0,5.26,1.28v6.25Z"/><path d="M764.63,1640.86H714.92v-6.25a27.48,27.48,0,0,0,5.54-2,7.14,7.14,0,0,0,3-3,13.6,13.6,0,0,0,1.27-4.93q.29-3,.29-7.53v-81.62q0-4.46-.24-7.48a12.93,12.93,0,0,0-1.23-4.93,7.64,7.64,0,0,0-3-3.07,23.13,23.13,0,0,0-5.63-2.13v-6.25h55.2a98.73,98.73,0,0,1,19,1.56,47.89,47.89,0,0,1,13.68,4.78,28.41,28.41,0,0,1,8.33,6.68,28.83,28.83,0,0,1,5.26,9.37,38.21,38.21,0,0,1,1.85,12.45,35.64,35.64,0,0,1-3.27,15.91,31.76,31.76,0,0,1-8.81,11,62.78,62.78,0,0,1-14.82,8.29v1a33.22,33.22,0,0,1,11.6,8.09,52.82,52.82,0,0,1,8.29,12.83l6,12.88q4,8.63,7.91,12.93a16.16,16.16,0,0,0,9.33,5.25v6.25H798q-5.49-7.58-12.4-22.54l-7.39-16.19a55.73,55.73,0,0,0-5.68-10.22,13.6,13.6,0,0,0-4.88-4.17q-2.5-1.14-7.71-1.14h-5.5v30.49a49.64,49.64,0,0,0,.67,10,8.51,8.51,0,0,0,2.55,4.54q1.89,1.71,7,3Zm-10.23-118v52.64h9.38a33,33,0,0,0,12.5-2,19,19,0,0,0,7.81-5.68,21,21,0,0,0,4-8.57,50.38,50.38,0,0,0,1.09-10.8q0-12.87-6.06-19.32t-18-6.43C759.67,1522.69,756.11,1522.75,754.4,1522.88Z"/><path d="M889.31,1617.09c0,2.21.06,4.27.19,6.16a19.88,19.88,0,0,0,.76,4.64,8.34,8.34,0,0,0,1.65,3,9.18,9.18,0,0,0,3,2.13,23.66,23.66,0,0,0,4.64,1.56v6.25H849.82v-6.25a27.25,27.25,0,0,0,5.54-2,7,7,0,0,0,3-3,13.59,13.59,0,0,0,1.28-4.93q.29-3,.28-7.53v-81.72q0-4.55-.23-7.48a13.06,13.06,0,0,0-1.23-4.87,7.37,7.37,0,0,0-3-3.08,24.76,24.76,0,0,0-5.64-2.08v-6.25h49.72v6.25a21.16,21.16,0,0,0-5.73,2.22A8.12,8.12,0,0,0,891,1523a12.82,12.82,0,0,0-1.32,4.45,64,64,0,0,0-.38,8Z"/><path d="M992.2,1600.81H951.76l-3.12,9a74.82,74.82,0,0,0-2.18,7.34,32.12,32.12,0,0,0-.85,7.53q0,9.28,9.85,9.94v6.25H915v-6.25a11.78,11.78,0,0,0,6.16-2.46,21.09,21.09,0,0,0,4.83-5.68,62.68,62.68,0,0,0,4.64-10.32l39.48-105.21h25.29L1026.66,1617a74.91,74.91,0,0,0,3.51,10.08,13.63,13.63,0,0,0,3.69,4.83,14.83,14.83,0,0,0,6.34,2.7v6.25H987.93v-6.25q4.94-.57,7.3-2.74a8,8,0,0,0,2.36-6.16,36.45,36.45,0,0,0-.66-6.53q-.66-3.6-2.18-9.09Zm-1.05-129,21.4,23.76-6.72,6.35-22.54-15.82h-1L959.53,1502,953,1495.6l21.69-23.76Zm-35.79,117.89h34.09l-15.15-53.31Z"/><path d="M1172,1511.61v6.25a34.94,34.94,0,0,0-5.35,2.08,8.39,8.39,0,0,0-2.65,2.27,10.49,10.49,0,0,0-1.66,4.31,50,50,0,0,0-.57,8.85v105.49h-24l-42.61-73.67q-8.61-15-12.69-23.48h-.85q.95,20.36,1,43v30.49a46.58,46.58,0,0,0,.71,9.94,8.63,8.63,0,0,0,2.55,4.5c1.24,1.1,3.55,2.1,7,3v6.25H1057v-6.25a24.82,24.82,0,0,0,5.54-2.08,7.25,7.25,0,0,0,3-3.08,13.62,13.62,0,0,0,1.28-4.88q.29-2.92.28-7.38v-81.91a51.81,51.81,0,0,0-.61-9.8,8.61,8.61,0,0,0-2.56-4.5q-1.94-1.8-7-3.12v-6.25h38.35l33.52,58.23q3.12,5.49,8.15,14.87t8.9,17.71h1.51q-1-22.64-1-49.43v-17.62a59.64,59.64,0,0,0-.47-8.9,10.47,10.47,0,0,0-1.47-4.16,8,8,0,0,0-2.65-2.37,27.76,27.76,0,0,0-5.54-2.08v-6.25Z"/><path d="M1289.05,1515.11V1542h-13a44.71,44.71,0,0,0-5-12.26,17.64,17.64,0,0,0-7.19-6.44,28.35,28.35,0,0,0-27.89,3.6q-7.2,5.73-11.36,18.27t-4.17,31.77a129.89,129.89,0,0,0,2.79,28.74q2.81,12.18,8.53,18.89a17.85,17.85,0,0,0,14.15,6.73q8.34,0,12.31-5t4-15.86v-3.6a78.07,78.07,0,0,0-.47-10.28,12,12,0,0,0-1.47-4.59,7.76,7.76,0,0,0-2.6-2.46,29.15,29.15,0,0,0-5.69-2.18v-6.25h48.49v6.25q-4.74,1.42-6.44,3.22a9.55,9.55,0,0,0-2.32,4.78,43.82,43.82,0,0,0-.62,8.38v35.7l-13.63,2.84-6.44-6.82a48.44,48.44,0,0,1-25.85,6.92q-27.66,0-41.24-16.15t-13.59-48.91q0-17.23,4.83-30.3t13.4-21.26a53,53,0,0,1,19.31-11.93,69.78,69.78,0,0,1,23.06-3.74A136.68,136.68,0,0,1,1289.05,1515.11Z"/><path d="M1403.82,1535.37a53.15,53.15,0,0,0-.62-9.89,8.58,8.58,0,0,0-2.42-4.5c-1.2-1.13-3.53-2.18-7-3.12v-6.25h41.66v6.25a26.49,26.49,0,0,0-5.4,2,7.49,7.49,0,0,0-3,3,13.17,13.17,0,0,0-1.32,4.93q-.29,3-.29,7.52v59.19a86.19,86.19,0,0,1-1.89,19.65,36.48,36.48,0,0,1-5.87,13.3,30.89,30.89,0,0,1-9.89,8.71,44.25,44.25,0,0,1-13.31,4.74,88.7,88.7,0,0,1-16.57,1.42q-13.45,0-22.73-2.8a36.4,36.4,0,0,1-15.1-8.42,34.46,34.46,0,0,1-8.62-13.69q-2.79-8-2.79-20.73v-61.27q0-4.46-.24-7.48a12.75,12.75,0,0,0-1.23-4.93,7.64,7.64,0,0,0-3-3.07,23.13,23.13,0,0,0-5.63-2.13v-6.25h49.71v6.25a21.16,21.16,0,0,0-5.73,2.22,8.09,8.09,0,0,0-2.79,2.89,12.81,12.81,0,0,0-1.33,4.45,64,64,0,0,0-.38,8V1598a90.17,90.17,0,0,0,1,13.63,30.39,30.39,0,0,0,3.46,10.56,17.06,17.06,0,0,0,7,6.77q4.44,2.37,11.45,2.37,9.66,0,14.4-3.88a20.8,20.8,0,0,0,6.67-10.85q2-7,2-20.78Z"/><path d="M1508.5,1511.61v6.25a26.49,26.49,0,0,0-5.4,2,7.84,7.84,0,0,0-3.08,3,12.58,12.58,0,0,0-1.41,4.87,67.79,67.79,0,0,0-.34,7.53v94.31h18.37a19.32,19.32,0,0,0,8.81-1.7,15.6,15.6,0,0,0,5.73-5.26,34.45,34.45,0,0,0,4.17-9.28q1.74-5.73,2.79-10.74h13l-2.08,38.25h-90.24v-6.25a25,25,0,0,0,5.54-2.08,7.37,7.37,0,0,0,3-3.08,13.48,13.48,0,0,0,1.27-4.92q.28-3,.29-7.53v-81.53q0-4.46-.24-7.48a12.93,12.93,0,0,0-1.23-4.93,7.64,7.64,0,0,0-3-3.07,23.13,23.13,0,0,0-5.63-2.13v-6.25Z"/><path d="M1625.89,1642.38q-27.84,0-41.81-16.29t-14-48.77q0-21.3,6.77-36.41t19.93-23q13.15-7.86,31.34-7.86,28.32,0,42.52,16.24t14.2,48.25q0,17.89-4.21,30.73t-12,21.06a46.78,46.78,0,0,1-18.61,12.12A71.33,71.33,0,0,1,1625.89,1642.38Zm-25.66-67.61q0,28.59,6.86,42.56t21,14a19.74,19.74,0,0,0,12.4-3.93,28,28,0,0,0,8.29-11,62,62,0,0,0,4.54-16.71,150.53,150.53,0,0,0,1.38-21.21q0-18.84-3-31.58t-9-19.22a20,20,0,0,0-15.39-6.49q-13.72,0-20.41,13.12T1600.23,1574.77Z"/><path d="M835.08,1343.75v24.76H824.42q-2.56-7.4-4.36-10a14,14,0,0,0-4.28-4.13q-2.49-1.52-8.49-1.52h-17v37.37H800.6a12.17,12.17,0,0,0,5.37-1,7.66,7.66,0,0,0,3.23-3.23,28.8,28.8,0,0,0,2.45-7h8.8v31.6h-8.8a28.43,28.43,0,0,0-2.41-6.89,8.38,8.38,0,0,0-3.15-3.38,11.61,11.61,0,0,0-5.49-1H790.32v41.57h16.89a25.87,25.87,0,0,0,4.6-.35,10.76,10.76,0,0,0,3.35-1.21A12.49,12.49,0,0,0,818,1437a20.94,20.94,0,0,0,2.41-3.2,33.3,33.3,0,0,0,2.22-4.51,74.51,74.51,0,0,0,2.57-7.71h10.66L834.38,1450H757.86v-5.14a21.84,21.84,0,0,0,4.55-1.68,5.65,5.65,0,0,0,2.49-2.49,11,11,0,0,0,1.05-4q.24-2.46.24-6.19v-67.11q0-3.66-.2-6.15a10.44,10.44,0,0,0-1-4,6.24,6.24,0,0,0-2.49-2.53,19.18,19.18,0,0,0-4.63-1.75v-5.14Z"/><path d="M866.1,1423.78q1.95,9.27,6.5,13.82t13.36,4.55a20.85,20.85,0,0,0,8.25-1.55,12.76,12.76,0,0,0,5.87-5,15.81,15.81,0,0,0,2.22-8.68,18.25,18.25,0,0,0-1.79-8.37,21,21,0,0,0-5.76-6.74,64.73,64.73,0,0,0-11-6.77,101.34,101.34,0,0,1-11-6.31,42.48,42.48,0,0,1-8.37-7.2,30.22,30.22,0,0,1-5.37-8.6,30.1,30.1,0,0,1,2.84-26.78A29.17,29.17,0,0,1,875.56,1346a57.74,57.74,0,0,1,20.83-3.46,112,112,0,0,1,13.23.74,134.58,134.58,0,0,1,14.4,2.6v22.58H913.36a32.75,32.75,0,0,0-3.78-9.77,14.4,14.4,0,0,0-5.72-5.33,21.9,21.9,0,0,0-16.58-.16,12.56,12.56,0,0,0-5.53,4.63,13.25,13.25,0,0,0-2,7.44,16.44,16.44,0,0,0,1.75,7.82,20.56,20.56,0,0,0,5.88,6.46,82.08,82.08,0,0,0,12,7.21,77.37,77.37,0,0,1,15.06,9.77,28.86,28.86,0,0,1,10.7,23.54,30.62,30.62,0,0,1-4.43,16.63,28.51,28.51,0,0,1-12.93,10.82,47.91,47.91,0,0,1-19.61,3.77,161.94,161.94,0,0,1-16.55-.89,138.38,138.38,0,0,1-16.15-2.61v-24Z"/><path d="M964.7,1450v-5.14a20,20,0,0,0,5.17-1.44,6.18,6.18,0,0,0,2.84-2.53,10.07,10.07,0,0,0,1.17-4.17q.24-2.52.24-6.26v-77.62h-6.31a18.44,18.44,0,0,0-7.16,1.09,11.15,11.15,0,0,0-4.32,3.43,21.09,21.09,0,0,0-3.16,6.26q-1.32,3.93-2.18,7.44H940.33v-27.33H1032v27.33h-10.67q-1.47-5.3-2.33-7.79a22.51,22.51,0,0,0-1.91-4.24,15,15,0,0,0-2.22-2.92,10.55,10.55,0,0,0-2.49-1.87,11.12,11.12,0,0,0-3.31-1,31.27,31.27,0,0,0-5.18-.35h-5.6v77.62q0,4.13.23,6.26a11,11,0,0,0,.86,3.47,6.69,6.69,0,0,0,1.52,2.14,8.43,8.43,0,0,0,2.49,1.48,18.4,18.4,0,0,0,4.32,1.05V1450Z"/><path d="M1090.53,1417.09h-33.24l-2.57,7.39q-1.08,3.12-1.79,6a26.86,26.86,0,0,0-.7,6.19q0,7.63,8.1,8.18V1450h-33.24v-5.14a9.69,9.69,0,0,0,5.06-2,17.13,17.13,0,0,0,4-4.67,51.14,51.14,0,0,0,3.81-8.48l32.46-86.49h20.79l25.69,87.19a62.16,62.16,0,0,0,2.88,8.29,11.24,11.24,0,0,0,3,4,12.15,12.15,0,0,0,5.21,2.22V1450h-43v-5.14a10.38,10.38,0,0,0,6-2.26,6.52,6.52,0,0,0,2-5.06,30.11,30.11,0,0,0-.54-5.37c-.37-2-1-4.46-1.79-7.47Zm-.85-106,17.59,19.54-5.53,5.21-18.52-13h-.86l-18.68,13-5.38-5.21,17.83-19.54ZM1060.25,1408h28l-12.46-43.83Z"/><path d="M1239.88,1343.75v5.14a30.72,30.72,0,0,0-4.4,1.71,6.84,6.84,0,0,0-2.17,1.87,8.56,8.56,0,0,0-1.37,3.54,41.55,41.55,0,0,0-.46,7.28V1450H1211.7l-35-60.57q-7.08-12.3-10.43-19.31h-.7q.78,16.74.78,35.35v25.06a38.74,38.74,0,0,0,.58,8.18,7.16,7.16,0,0,0,2.1,3.7q1.51,1.35,5.72,2.45V1450H1145.3v-5.14a20.82,20.82,0,0,0,4.55-1.71,6,6,0,0,0,2.49-2.53,11,11,0,0,0,1.05-4q.24-2.42.24-6.08v-67.34a42,42,0,0,0-.51-8,7.11,7.11,0,0,0-2.1-3.7c-1.07-1-3-1.84-5.72-2.57v-5.14h31.53l27.55,47.88q2.58,4.51,6.7,12.22t7.32,14.56h1.24q-.86-18.6-.85-40.64v-14.48a48.24,48.24,0,0,0-.39-7.32,8.52,8.52,0,0,0-1.21-3.42,6.55,6.55,0,0,0-2.18-2,23,23,0,0,0-4.55-1.71v-5.14Z"/><path d="M1335.6,1346.17v22.57H1325q-1.87-8.79-5.92-13a14.08,14.08,0,0,0-10.58-4.16q-12.32,0-18.61,11.79t-6.31,35q0,21.57,5.76,32.66t16.9,11.09a19.66,19.66,0,0,0,9.26-1.9,14,14,0,0,0,5.72-5.73,40.71,40.71,0,0,0,3.7-10.74h10.67v23.59a158.23,158.23,0,0,1-15.65,3,113,113,0,0,1-14.71.93q-16.2,0-26.43-5.84a34.87,34.87,0,0,1-15.11-17.63q-4.86-11.79-4.86-29.85,0-16.9,5.72-29.39a42.72,42.72,0,0,1,16.85-19.27q11.13-6.78,26.63-6.77a107.87,107.87,0,0,1,14.24.85A96.57,96.57,0,0,1,1335.6,1346.17Z"/><path d="M1387.92,1430.48c0,1.81,0,3.5.16,5.06a16.5,16.5,0,0,0,.62,3.81,6.79,6.79,0,0,0,1.36,2.49,7.52,7.52,0,0,0,2.45,1.75,19.09,19.09,0,0,0,3.82,1.29V1450h-40.87v-5.14a21.84,21.84,0,0,0,4.55-1.68,5.65,5.65,0,0,0,2.49-2.49,11,11,0,0,0,1-4q.24-2.46.24-6.19v-67.19q0-3.74-.2-6.15a10.61,10.61,0,0,0-1-4,6,6,0,0,0-2.49-2.53,20.71,20.71,0,0,0-4.63-1.71v-5.14h40.87v5.14a17.42,17.42,0,0,0-4.71,1.83,6.75,6.75,0,0,0-2.3,2.37,10.64,10.64,0,0,0-1.09,3.66,51.93,51.93,0,0,0-.31,6.62Z"/><path d="M1470.38,1417.09h-33.25l-2.56,7.39q-1.1,3.12-1.8,6a26.86,26.86,0,0,0-.7,6.19q0,7.63,8.1,8.18V1450h-33.24v-5.14a9.65,9.65,0,0,0,5.06-2,17.13,17.13,0,0,0,4-4.67,51.14,51.14,0,0,0,3.81-8.48l32.47-86.49H1473l25.69,87.19a62.16,62.16,0,0,0,2.88,8.29,11.24,11.24,0,0,0,3,4,12.14,12.14,0,0,0,5.22,2.22V1450h-43v-5.14a10.45,10.45,0,0,0,6-2.26,6.55,6.55,0,0,0,1.94-5.06,30.11,30.11,0,0,0-.54-5.37c-.37-2-1-4.46-1.79-7.47Zm-30.29-9.11h28l-12.46-43.83Z"/><rect x="516.18" y="1267.74" width="1235.35" height="14.3"/><path d="M767.61,1789.79a23.66,23.66,0,0,1-3.26,5.25,10.92,10.92,0,0,1-3.81,2.81,16.47,16.47,0,0,1-6.13,1.34,38.9,38.9,0,0,1-9.58-.94c0-1.59.11-3.18.17-4.76a17,17,0,0,0,4,0,5.67,5.67,0,0,0,2.35-.84,7.54,7.54,0,0,0,1.78-1.82,29.73,29.73,0,0,0,2.11-3.68l17.14-34.28c.49-1,.88-1.82,1.16-2.52a4.6,4.6,0,0,0,.38-1.86,3,3,0,0,0-.56-1.56,10,10,0,0,0-1.64-1.71l1-2.07q8.75,4.44,17.58,8.64c-.34.69-.67,1.39-1,2.09a8.43,8.43,0,0,0-2.44-.23,3.25,3.25,0,0,0-1.45.51,4.83,4.83,0,0,0-1.16,1.24,22.21,22.21,0,0,0-1.43,2.63Z"/><path d="M797.83,1769.74q6.69,3,13.42,6l-7.76,17.91a47.34,47.34,0,0,0-1.88,4.93,7.78,7.78,0,0,0-.37,3.12,4.27,4.27,0,0,0,.85,2.12,5.18,5.18,0,0,0,2,1.43,6.56,6.56,0,0,0,3.12.44,7.71,7.71,0,0,0,3.37-1,5,5,0,0,0,2.22-2.45q2.61-6.26,5.21-12.53c.66-1.58,1.11-2.76,1.36-3.56a6.44,6.44,0,0,0,.35-2,2.93,2.93,0,0,0-.47-1.47,7.72,7.72,0,0,0-1.71-1.69l.9-2.14q6.76,2.85,13.57,5.58-4.57,11.42-9.14,22.84c-.66,1.66-1.12,2.88-1.36,3.66a5.72,5.72,0,0,0-.32,2,2.84,2.84,0,0,0,.61,1.54,8,8,0,0,0,2.12,1.73c-.28.74-.57,1.47-.86,2.2q-5-1.81-10-3.69l-4.39-1.81,2.27-4.54-.39-.28a26,26,0,0,1-7.63,1.38,14.78,14.78,0,0,1-5.78-1.18,13.59,13.59,0,0,1-5.55-4,7.87,7.87,0,0,1-1.62-5.18,18.49,18.49,0,0,1,1.84-6.79q2.64-5.86,5.27-11.74c.54-1.19.93-2.12,1.18-2.78a11.2,11.2,0,0,0,.52-1.56,5.43,5.43,0,0,0,.14-1.09,3.21,3.21,0,0,0-.17-1,3.51,3.51,0,0,0-.61-1,7.88,7.88,0,0,0-1.3-1.21Z"/><path d="M877.05,1837.53q-9-2.87-18-5.94l.75-2.19a4.7,4.7,0,0,0,2.72-.28,4.07,4.07,0,0,0,1.56-1.62,28.23,28.23,0,0,0,1.72-4.3c1-3,2-5.93,3-8.9.53-1.57.93-2.88,1.2-3.91a17.51,17.51,0,0,0,.5-2.6,5.64,5.64,0,0,0-.1-1.83,4.8,4.8,0,0,0-.55-1.38,3.4,3.4,0,0,0-.93-1,5.6,5.6,0,0,0-1.57-.76,6.24,6.24,0,0,0-3.08-.2,7.76,7.76,0,0,0-3.22,1.29,5.29,5.29,0,0,0-2,2.58q-2.27,6.39-4.52,12.76a31.18,31.18,0,0,0-1.33,4.45,4,4,0,0,0,.21,2.26,4.85,4.85,0,0,0,2,1.92l-.76,2.19q-8.91-3.1-17.76-6.42l.82-2.17a5.38,5.38,0,0,0,2.84-.22,3.81,3.81,0,0,0,1.61-1.54,27.36,27.36,0,0,0,1.83-4.23l5-13.56c.6-1.62,1-2.84,1.24-3.64a5.73,5.73,0,0,0,.27-2,3,3,0,0,0-.6-1.53,7.65,7.65,0,0,0-2.09-1.66l.84-2.24q4.86,1.67,9.74,3.28l4.44,1.59-2.22,4.58.39.25a42.44,42.44,0,0,1,4.88-1.51,17.49,17.49,0,0,1,4.06-.45,13,13,0,0,1,4,.69,13.68,13.68,0,0,1,4.56,2.4A7.9,7.9,0,0,1,881,1805a9.71,9.71,0,0,1,.52,4.24,22.9,22.9,0,0,1-1.11,5.22l-4,12.24c-.31,1-.59,1.91-.83,2.78a9.7,9.7,0,0,0-.39,2.14,3.77,3.77,0,0,0,.2,1.45,3.28,3.28,0,0,0,.83,1.18,9.08,9.08,0,0,0,1.52,1.11C877.51,1836.06,877.28,1836.79,877.05,1837.53Z"/><path d="M917.74,1844.49a31.25,31.25,0,0,1-4.49,1.8,16.43,16.43,0,0,1-4.12.66,14.12,14.12,0,0,1-4.41-.55c-4.42-1.24-7.34-3.62-8.72-7.1s-1.23-8,.45-13.63a22.18,22.18,0,0,1,4.86-9,14.06,14.06,0,0,1,7.6-4.27,20.85,20.85,0,0,1,9.81.57,28.75,28.75,0,0,1,3.32,1.12,23.64,23.64,0,0,1,2.94,1.41c.89.5,2,1.2,3.26,2.09l3.17-1.24,4.46,1.78q-5,19.94-10,39.86a14.92,14.92,0,0,0-.61,3.71,3.31,3.31,0,0,0,.6,1.87,7,7,0,0,0,2.24,1.68c-.18.75-.37,1.5-.55,2.25q-9.56-2.34-19-4.92l.6-2.24a7.69,7.69,0,0,0,3-.25,3.23,3.23,0,0,0,1.53-1.32,14.9,14.9,0,0,0,1.3-3.6Q916.32,1849.8,917.74,1844.49Zm4.78-18c.73-2.76.78-5,.14-6.55a5.5,5.5,0,0,0-4-3.23,5.63,5.63,0,0,0-4.26.45,9.68,9.68,0,0,0-3.64,3.67,25.62,25.62,0,0,0-2.73,6.5c-1.25,4.44-1.67,7.9-1.22,10.37a5.43,5.43,0,0,0,4.07,4.66,8,8,0,0,0,3.52.15,6.5,6.5,0,0,0,3.21-1.54,6.35,6.35,0,0,0,1.93-3.23Q921,1832.11,922.52,1826.48Z"/><path d="M952.32,1822q7,1.62,14.11,3.11l-4,19.09a44.78,44.78,0,0,0-.86,5.21,7.7,7.7,0,0,0,.24,3.12,4.28,4.28,0,0,0,1.23,1.91,5,5,0,0,0,2.25,1,6.47,6.47,0,0,0,3.11-.2,7.63,7.63,0,0,0,3-1.7,5.1,5.1,0,0,0,1.68-2.84q1.29-6.66,2.6-13.32c.33-1.68.54-2.93.63-3.76a6.35,6.35,0,0,0-.05-2,2.83,2.83,0,0,0-.74-1.35,7.86,7.86,0,0,0-2-1.31c.15-.75.31-1.51.46-2.27q7.1,1.42,14.21,2.72l-4.41,24.21c-.32,1.75-.53,3-.61,3.86a5.81,5.81,0,0,0,.08,2,2.8,2.8,0,0,0,.89,1.39,7.9,7.9,0,0,0,2.39,1.27c-.13.77-.27,1.55-.41,2.32q-5.2-.76-10.4-1.59l-4.6-.88q.65-2.46,1.31-4.9l-.43-.2a25.91,25.91,0,0,1-7.11,2.89,14.26,14.26,0,0,1-5.82,0A13.14,13.14,0,0,1,953,1857a7.9,7.9,0,0,1-2.57-4.75,18.9,18.9,0,0,1,.47-7l2.82-12.55c.28-1.28.49-2.27.6-3a12.25,12.25,0,0,0,.2-1.64,5.37,5.37,0,0,0-.08-1.09,2.93,2.93,0,0,0-.36-1,3.54,3.54,0,0,0-.79-.9,8,8,0,0,0-1.49-.92C952,1823.48,952.15,1822.73,952.32,1822Z"/><path d="M1036,1865.27a24.36,24.36,0,0,1-8.35,4.4,22.62,22.62,0,0,1-9,.41c-6-.82-10.2-3-12.72-6.38s-3.3-8-2.38-13.84a20.37,20.37,0,0,1,3.78-9.35,15.22,15.22,0,0,1,7.26-5.23,21.16,21.16,0,0,1,9.76-.76,22.23,22.23,0,0,1,5.76,1.51,14.37,14.37,0,0,1,4.06,2.59,11.65,11.65,0,0,1,2.61,3.52,17.08,17.08,0,0,1,1.52,5.28,29.7,29.7,0,0,1,0,7.11q-11.9-1.38-23.77-3.11c-.58,4.2-.23,7.41,1.1,9.62s3.63,3.55,6.93,4a13.08,13.08,0,0,0,5.34-.31,17.9,17.9,0,0,0,5.44-2.89Zm-8.36-15.87q.54-5.36-.45-8.15a4.53,4.53,0,0,0-3.93-3.18,5.19,5.19,0,0,0-4.9,2.08,17.43,17.43,0,0,0-3.14,7.54Q1021.37,1848.59,1027.59,1849.4Z"/><path d="M1051.26,1871a5.4,5.4,0,0,0,2.69-.94,4,4,0,0,0,1.15-1.9,28.07,28.07,0,0,0,.67-4.57l1.53-16.27a17.48,17.48,0,0,0,.09-2.78,3.77,3.77,0,0,0-.47-1.74,3.05,3.05,0,0,0-1.16-1.09,10.91,10.91,0,0,0-2-.77l.24-2.38q5.07.36,10.15.65c1.53.14,3.07.26,4.6.39q-1,12.45-2,24.91c-.11,1.31-.17,2.32-.19,3a11.6,11.6,0,0,0,0,1.66,4.71,4.71,0,0,0,.24,1.06,3.47,3.47,0,0,0,.49.88,3,3,0,0,0,.94.78,8.1,8.1,0,0,0,1.68.7c-.06.77-.12,1.54-.17,2.31q-9.39-.7-18.75-1.63C1051.1,1872.56,1051.18,1871.79,1051.26,1871Zm18.3-45.13-.69,8.59c-3.34-.27-6.69-.56-10-.88q.4-4.27.8-8.57C1063,1825.34,1066.26,1825.62,1069.56,1825.89Z"/><path d="M1100.3,1846.85l.48.12a18.15,18.15,0,0,1,5.72-4.15,14.61,14.61,0,0,1,6.2-1.15,26.84,26.84,0,0,1,4.72.57c-.07,3.23-.13,6.47-.2,9.7l-6.76-.16a8.07,8.07,0,0,0-1.57-3.18,3.59,3.59,0,0,0-2.7-1.18,4.26,4.26,0,0,0-1.82.41,6.66,6.66,0,0,0-1.87,1.27,5.38,5.38,0,0,0-1.26,1.71,7.36,7.36,0,0,0-.54,1.79,24.33,24.33,0,0,0-.23,2.74l-.45,11.2a27.61,27.61,0,0,0,.08,4.68,3.79,3.79,0,0,0,1,2.14,5.28,5.28,0,0,0,2.69,1.17l-.09,2.32q-9.5-.35-19-.89c0-.77.09-1.54.14-2.32a5.3,5.3,0,0,0,2.62-1.05,3.84,3.84,0,0,0,1.06-1.94,28.34,28.34,0,0,0,.5-4.59q.39-7.21.77-14.43c.09-1.73.13-3,.12-3.85a5.8,5.8,0,0,0-.34-2,3,3,0,0,0-1-1.29,7.79,7.79,0,0,0-2.45-1c0-.79.09-1.59.14-2.38,3.37.1,6.75.18,10.12.24,1.55.08,3.1.14,4.65.21C1100.79,1843.33,1100.54,1845.09,1100.3,1846.85Z"/><path d="M1147.56,1877.84a23.45,23.45,0,0,1-9.78-1.71,13.36,13.36,0,0,1-6.39-5.8,20.08,20.08,0,0,1-2.24-10.15,22,22,0,0,1,1.43-8.15,15.1,15.1,0,0,1,9.67-9,25.11,25.11,0,0,1,7.32-1.16c6-.1,10.47,1.26,13.62,4.14s4.85,7.2,5.07,13a20.55,20.55,0,0,1-1.92,10.33,14.24,14.24,0,0,1-6.47,6.34A23.94,23.94,0,0,1,1147.56,1877.84Zm-6.94-18.45q.06,7.45,1.91,11.15a5.81,5.81,0,0,0,5.54,3.63,5.74,5.74,0,0,0,3.38-1,6.49,6.49,0,0,0,2.12-2.79,15.34,15.34,0,0,0,1.06-4.33,41.94,41.94,0,0,0,.2-5.65q-.19-7.56-2.06-11.26t-5.29-3.64a5.52,5.52,0,0,0-4,1.57,9.19,9.19,0,0,0-2.19,4.56A34.47,34.47,0,0,0,1140.62,1859.39Zm16.47-34.2c0,.77,0,1.55.07,2.32q-6.14,5.84-12.44,11.59c-1-.76-2-1.52-3-2.29q3.95-5.7,7.77-11.43C1152.05,1825.33,1154.57,1825.26,1157.09,1825.19Z"/><path d="M1197.54,1881.3a14.83,14.83,0,0,0,.59,3.69,3.24,3.24,0,0,0,1.24,1.64,7,7,0,0,0,2.9.83c.07.77.13,1.54.19,2.31q-9.74.78-19.49,1.33c0-.77-.09-1.54-.14-2.31a7.05,7.05,0,0,0,2.5-1.24,3.37,3.37,0,0,0,.93-1.73,15.49,15.49,0,0,0,.08-3.76l-1.89-30.7c-.11-1.66-.2-2.84-.28-3.54a8.16,8.16,0,0,0-.37-1.77,3.24,3.24,0,0,0-.65-1.18,3,3,0,0,0-1.14-.76,10,10,0,0,0-2.16-.51c0-.79-.09-1.59-.14-2.38q5.1-.43,10.2-.93l4.53-.32c0,1.71-.11,3.41-.17,5.12l.45.07a25.26,25.26,0,0,1,5.61-4.65,13.48,13.48,0,0,1,5.54-1.76c4.37-.39,7.78.75,10.27,3.45s4.06,7,4.67,12.79a22.88,22.88,0,0,1-.92,10.33,13.23,13.23,0,0,1-5.37,6.72,21,21,0,0,1-9.64,2.93,32.09,32.09,0,0,1-7.84-.3C1197.21,1876.88,1197.37,1879.09,1197.54,1881.3Zm-1.33-17.77q.32,4.31,2.1,6.24a6,6,0,0,0,5.19,1.65,5.83,5.83,0,0,0,5.08-3.85c1-2.36,1.34-5.63,1-9.81q-.63-7-2.56-10.18a5.33,5.33,0,0,0-5.32-2.93,7,7,0,0,0-3.18,1.07,6.88,6.88,0,0,0-2.41,2.5,5.83,5.83,0,0,0-.75,3.42Q1195.75,1857.58,1196.21,1863.53Z"/><path d="M1257.17,1868.94a23.47,23.47,0,0,1-9.94-.43,13.36,13.36,0,0,1-7.1-4.92,19.89,19.89,0,0,1-3.53-9.78,21.81,21.81,0,0,1,.36-8.26,15.09,15.09,0,0,1,8.43-10.22,25.43,25.43,0,0,1,7.13-2.1c5.9-.87,10.58-.11,14.08,2.34s5.75,6.5,6.72,12.19a20.42,20.42,0,0,1-.58,10.49,14.24,14.24,0,0,1-5.61,7.13A24,24,0,0,1,1257.17,1868.94Zm-9.28-17.39q1,7.38,3.34,10.8a5.82,5.82,0,0,0,6,2.88,5.72,5.72,0,0,0,3.22-1.44,6.52,6.52,0,0,0,1.75-3,15,15,0,0,0,.49-4.44,41.75,41.75,0,0,0-.53-5.62q-1.17-7.47-3.5-10.9t-5.73-2.92a5.56,5.56,0,0,0-3.8,2.08,9.21,9.21,0,0,0-1.59,4.8A34.87,34.87,0,0,0,1247.89,1851.55Z"/><path d="M1304,1849.76a30.06,30.06,0,0,0,1.17,4.46,3.9,3.9,0,0,0,1.33,1.79,5.52,5.52,0,0,0,2.88.63l.48,2.27q-9.28,2-18.59,3.73c-.15-.76-.29-1.52-.44-2.28a7.44,7.44,0,0,0,1.68-.91,3.22,3.22,0,0,0,.85-1,3.88,3.88,0,0,0,.41-1.22,6.26,6.26,0,0,0,0-1.93c-.1-.81-.3-1.95-.58-3.42l-5.22-26.92q-.57-3-.9-4.35a19.37,19.37,0,0,0-.67-2.31,3.93,3.93,0,0,0-.84-1.41,2.7,2.7,0,0,0-1.23-.72,8.92,8.92,0,0,0-2.31-.2c-.14-.76-.28-1.52-.43-2.28,3.28-.79,6.54-1.59,9.81-2.42l4.45-.91Q1299.92,1830.09,1304,1849.76Z"/><path d="M1324,1853.4a5.48,5.48,0,0,0,2.27-1.75,3.94,3.94,0,0,0,.48-2.18,27.83,27.83,0,0,0-.81-4.54q-1.87-8-3.76-15.91a18.26,18.26,0,0,0-.8-2.66,3.82,3.82,0,0,0-1-1.5,2.92,2.92,0,0,0-1.46-.65,10.59,10.59,0,0,0-2.14-.1l-.54-2.33q5-1.27,9.88-2.63l4.51-1.11,6.06,24.25c.32,1.27.58,2.25.79,2.93a12.15,12.15,0,0,0,.57,1.57,4.8,4.8,0,0,0,.57.92,3.25,3.25,0,0,0,.75.68,3.14,3.14,0,0,0,1.15.44,8,8,0,0,0,1.82.12l.57,2.25q-9.17,2.33-18.39,4.46C1324.33,1854.91,1324.15,1854.15,1324,1853.4Zm3-48.63c.69,2.79,1.39,5.57,2.08,8.36q-4.9,1.23-9.83,2.39l-2-8.39Q1322.13,1806,1327,1804.77Z"/><path d="M1359.75,1836.87a9.14,9.14,0,0,0,4.12,3.82,8.3,8.3,0,0,0,5.61,0,6.86,6.86,0,0,0,3.88-2.38,4.2,4.2,0,0,0,.44-3.76,4.44,4.44,0,0,0-1.35-2.17,6.81,6.81,0,0,0-2.69-1.24,45.13,45.13,0,0,0-5.77-.86,35.23,35.23,0,0,1-4.31-.71,15.72,15.72,0,0,1-3.72-1.35,10.18,10.18,0,0,1-2.85-2.18,7.75,7.75,0,0,1-1.7-3.18,8.34,8.34,0,0,1,.43-5.81,12.38,12.38,0,0,1,4.38-4.92,26,26,0,0,1,7.56-3.47q2.61-.78,5.17-1.33c1.71-.37,4-.73,6.73-1.11l2.43,7.82q-2.37.75-4.76,1.47a12.59,12.59,0,0,0-2.83-2.78,5.59,5.59,0,0,0-2.66-1,8.36,8.36,0,0,0-3,.38,6.71,6.71,0,0,0-3.48,2.12,3.45,3.45,0,0,0-.59,3.25,4.73,4.73,0,0,0,1.14,2,5.65,5.65,0,0,0,2.33,1.24,30.81,30.81,0,0,0,5.73.82,31.86,31.86,0,0,1,6.4,1.06,11.39,11.39,0,0,1,4.3,2.28,8.58,8.58,0,0,1,2.48,4,9.8,9.8,0,0,1,.36,5,9.5,9.5,0,0,1-2.11,4.2,15.46,15.46,0,0,1-4.24,3.37,29.75,29.75,0,0,1-6,2.46,64.12,64.12,0,0,1-14.18,2.28q-1.11-4-2.21-8.1Z"/><path d="M1414.19,1813.21q-8.57,3.06-17.17,5.94l-2.34-7q8.53-2.85,17-5.89Z"/><path d="M1433.52,1809.94a11.6,11.6,0,0,0,5.27,4.65c1.91.73,4.24.55,7-.54a11.16,11.16,0,0,0,3.58-2.19,6.19,6.19,0,0,0,1.87-3.21,6.55,6.55,0,0,0-.46-4,7.62,7.62,0,0,0-2.25-3.16,9.76,9.76,0,0,0-3.78-1.75,34.15,34.15,0,0,0-6.19-.82,46.5,46.5,0,0,1-6.06-.68,20.18,20.18,0,0,1-5-1.56,13.18,13.18,0,0,1-3.82-2.7,11.8,11.8,0,0,1-2.55-4.11,12,12,0,0,1-.48-7.68,14.18,14.18,0,0,1,4.46-6.64,29.44,29.44,0,0,1,8.62-5.11,59.55,59.55,0,0,1,5.94-2.08q2.89-.84,6.78-1.57,2,4.7,4,9.39l-4.74,2a14.13,14.13,0,0,0-3.37-3.38,6.77,6.77,0,0,0-3.45-1.18,11.07,11.07,0,0,0-7.37,2.91,5.9,5.9,0,0,0-1.69,2.91,5.74,5.74,0,0,0,.33,3.48,7,7,0,0,0,2.08,3,9.32,9.32,0,0,0,3.72,1.66,38,38,0,0,0,6.62.84,41.39,41.39,0,0,1,8.48,1.27,14.71,14.71,0,0,1,5.5,2.8,13.12,13.12,0,0,1,3.5,5,12.73,12.73,0,0,1,.89,7.78,13.79,13.79,0,0,1-4.11,7,25.69,25.69,0,0,1-8.51,5.3,83,83,0,0,1-7.9,2.68,71,71,0,0,1-8,1.8q-1.92-5.07-3.83-10.13Z"/><path d="M1490.92,1788.75a18.37,18.37,0,0,0,1.58,2.89,3.66,3.66,0,0,0,1.24,1.12,3.4,3.4,0,0,0,1.59.32,10.72,10.72,0,0,0,2.65-.52c.33.7.66,1.39,1,2.09q-9.59,4.57-19.25,8.91l-1-2.12a11.47,11.47,0,0,0,1.78-1.63,2.71,2.71,0,0,0,.68-1.54,4.62,4.62,0,0,0-.27-1.89,25.22,25.22,0,0,0-1-2.59l-12.51-27.6q-.67-1.51-1.23-2.49a4.48,4.48,0,0,0-1.2-1.47,3,3,0,0,0-1.55-.55,9.6,9.6,0,0,0-2.35.19l-.95-2.12q9.86-4.41,19.61-9.09c5.66-2.72,10.34-3.87,14.11-3.39s6.66,2.67,8.66,6.59a14.34,14.34,0,0,1,1.67,8.26,13.72,13.72,0,0,1-3.54,7.61,27.36,27.36,0,0,1-8.92,6.33c-2.25,1.08-4.11,1.91-5.59,2.51Q1488.52,1783.66,1490.92,1788.75Zm-6.49-13.78c1-.46,2-.93,3-1.41a15.17,15.17,0,0,0,5.06-3.54,6.6,6.6,0,0,0,1.61-4.33,13.08,13.08,0,0,0-1.61-5.75,13.22,13.22,0,0,0-3.53-4.75,6.3,6.3,0,0,0-4.17-1.38,13.3,13.3,0,0,0-5.15,1.46q-2.37,1.13-3.63,1.8Z"/><path d="M1133.85,290.5c-465.77,0-843.36,377.58-843.36,843.36s377.59,843.36,843.36,843.36,843.36-377.59,843.36-843.36S1599.63,290.5,1133.85,290.5Zm0,1648c-444.4,0-804.66-360.26-804.66-804.66s360.26-804.67,804.66-804.67,804.67,360.26,804.67,804.67S1578.26,1938.52,1133.85,1938.52Z"/><path d="M1133.85,251.8c-487.15,0-882.06,394.91-882.06,882.06s394.91,882.06,882.06,882.06,882.06-394.91,882.06-882.06S1621,251.8,1133.85,251.8Zm0,1751.18c-480,0-869.12-389.12-869.12-869.12s389.12-869.12,869.12-869.12S2003,653.86,2003,1133.86,1613.85,2003,1133.85,2003Z"/></g></svg>